<?xml version="1.0" encoding="UTF-8" standalone="no"?>
<!DOCTYPE svg PUBLIC "-//W3C//DTD SVG 1.1//EN"
 "http://www.w3.org/Graphics/SVG/1.1/DTD/svg11.dtd">
<!-- Generated by graphviz version 2.38.0 (20140413.2041)
 -->
<!-- Title: MyCapytain.resolvers.cts.api.HttpCTSResolver Pages: 1 -->
<svg width="285pt" height="275pt"
 viewBox="0.00 0.00 285.00 275.00" xmlns="http://www.w3.org/2000/svg" xmlns:xlink="http://www.w3.org/1999/xlink">
<g id="graph0" class="graph" transform="scale(1 1) rotate(0) translate(4 271)">
<title>MyCapytain.resolvers.cts.api.HttpCTSResolver</title>
<polygon fill="white" stroke="none" points="-4,4 -4,-271 281,-271 281,4 -4,4"/>
<!-- 0 -->
<g id="node1" class="node"><title>0</title>
<polygon fill="none" stroke="black" points="0,-0.5 0,-114.5 277,-114.5 277,-0.5 0,-0.5"/>
<text text-anchor="middle" x="138.5" y="-99.3" font-family="Times,serif" font-size="14.00">MyCapytain.resolvers.cts.api.HttpCTSResolver</text>
<polyline fill="none" stroke="black" points="0,-91.5 277,-91.5 "/>
<text text-anchor="start" x="8" y="-76.3" font-family="Times,serif" font-size="14.00">endpoint</text>
<polyline fill="none" stroke="black" points="0,-68.5 277,-68.5 "/>
<text text-anchor="start" x="8" y="-53.3" font-family="Times,serif" font-size="14.00">getMetadata()</text>
<text text-anchor="start" x="8" y="-38.3" font-family="Times,serif" font-size="14.00">getPassage()</text>
<text text-anchor="start" x="8" y="-23.3" font-family="Times,serif" font-size="14.00">getReffs()</text>
<text text-anchor="start" x="8" y="-8.3" font-family="Times,serif" font-size="14.00">getSiblings()</text>
</g>
<!-- 1 -->
<g id="node2" class="node"><title>1</title>
<polygon fill="none" stroke="black" points="13.5,-151.5 13.5,-266.5 263.5,-266.5 263.5,-151.5 13.5,-151.5"/>
<text text-anchor="middle" x="138.5" y="-251.3" font-family="Times,serif" font-size="14.00">MyCapytain.resolvers.prototypes.Resolver</text>
<polyline fill="none" stroke="black" points="13.5,-243.5 263.5,-243.5 "/>
<polyline fill="none" stroke="black" points="13.5,-219.5 263.5,-219.5 "/>
<text text-anchor="start" x="21.5" y="-204.3" font-family="Times,serif" font-size="14.00">getMetadata()</text>
<text text-anchor="start" x="21.5" y="-189.3" font-family="Times,serif" font-size="14.00">getPassage()</text>
<text text-anchor="start" x="21.5" y="-174.3" font-family="Times,serif" font-size="14.00">getReffs()</text>
<text text-anchor="start" x="21.5" y="-159.3" font-family="Times,serif" font-size="14.00">getSiblings()</text>
</g>
<!-- 0&#45;&gt;1 -->
<g id="edge1" class="edge"><title>0&#45;&gt;1</title>
<path fill="none" stroke="black" d="M138.5,-114.594C138.5,-123.169 138.5,-132.094 138.5,-140.878"/>
<polygon fill="none" stroke="black" points="135,-141.094 138.5,-151.094 142,-141.094 135,-141.094"/>
</g>
</g>
</svg>
