<?xml version="1.0" encoding="UTF-8" standalone="no"?>
<!DOCTYPE svg PUBLIC "-//W3C//DTD SVG 1.1//EN"
 "http://www.w3.org/Graphics/SVG/1.1/DTD/svg11.dtd">
<!-- Generated by graphviz version 2.38.0 (20140413.2041)
 -->
<!-- Title: MyCapytain.resources.texts.api.cts.Text Pages: 1 -->
<svg width="1170pt" height="1703pt"
 viewBox="0.00 0.00 1170.00 1703.00" xmlns="http://www.w3.org/2000/svg" xmlns:xlink="http://www.w3.org/1999/xlink">
<g id="graph0" class="graph" transform="scale(1 1) rotate(0) translate(4 1699)">
<title>MyCapytain.resources.texts.api.cts.Text</title>
<polygon fill="white" stroke="none" points="-4,4 -4,-1699 1166,-1699 1166,4 -4,4"/>
<!-- 0 -->
<g id="node1" class="node"><title>0</title>
<polygon fill="none" stroke="black" points="882.5,-316.5 882.5,-400.5 1127.5,-400.5 1127.5,-316.5 882.5,-316.5"/>
<text text-anchor="middle" x="1005" y="-385.3" font-family="Times,serif" font-size="14.00">MyCapytain.common.metadata.Metadata</text>
<polyline fill="none" stroke="black" points="882.5,-377.5 1127.5,-377.5 "/>
<text text-anchor="start" x="890.5" y="-362.3" font-family="Times,serif" font-size="14.00">metadata</text>
<polyline fill="none" stroke="black" points="882.5,-354.5 1127.5,-354.5 "/>
<text text-anchor="start" x="890.5" y="-339.3" font-family="Times,serif" font-size="14.00">export()</text>
<text text-anchor="start" x="890.5" y="-324.3" font-family="Times,serif" font-size="14.00">keys()</text>
</g>
<!-- 5 -->
<g id="node6" class="node"><title>5</title>
<polygon fill="none" stroke="black" points="848,-825.5 848,-1059.5 1162,-1059.5 1162,-825.5 848,-825.5"/>
<text text-anchor="middle" x="1005" y="-1044.3" font-family="Times,serif" font-size="14.00">MyCapytain.resources.prototypes.metadata.Collection</text>
<polyline fill="none" stroke="black" points="848,-1036.5 1162,-1036.5 "/>
<text text-anchor="start" x="856" y="-1021.3" font-family="Times,serif" font-size="14.00">DC_TITLE_KEY : NoneType</text>
<text text-anchor="start" x="856" y="-1006.3" font-family="Times,serif" font-size="14.00">TYPE_URI : str</text>
<text text-anchor="start" x="856" y="-991.3" font-family="Times,serif" font-size="14.00">descendants</text>
<text text-anchor="start" x="856" y="-976.3" font-family="Times,serif" font-size="14.00">id</text>
<text text-anchor="start" x="856" y="-961.3" font-family="Times,serif" font-size="14.00">members</text>
<text text-anchor="start" x="856" y="-946.3" font-family="Times,serif" font-size="14.00">metadata</text>
<text text-anchor="start" x="856" y="-931.3" font-family="Times,serif" font-size="14.00">parents : list</text>
<text text-anchor="start" x="856" y="-916.3" font-family="Times,serif" font-size="14.00">properties : dict</text>
<text text-anchor="start" x="856" y="-901.3" font-family="Times,serif" font-size="14.00">readable</text>
<text text-anchor="start" x="856" y="-886.3" font-family="Times,serif" font-size="14.00">readableDescendants</text>
<text text-anchor="start" x="856" y="-871.3" font-family="Times,serif" font-size="14.00">title</text>
<polyline fill="none" stroke="black" points="848,-863.5 1162,-863.5 "/>
<text text-anchor="start" x="856" y="-848.3" font-family="Times,serif" font-size="14.00">default_export()</text>
<text text-anchor="start" x="856" y="-833.3" font-family="Times,serif" font-size="14.00">export()</text>
</g>
<!-- 0&#45;&gt;5 -->
<g id="edge11" class="edge"><title>0&#45;&gt;5</title>
<path fill="none" stroke="black" d="M1005,-400.889C1005,-485.631 1005,-681.946 1005,-813.195"/>
<polygon fill="black" stroke="black" points="1005,-813.292 1009,-819.292 1005,-825.292 1001,-819.292 1005,-813.292"/>
<text text-anchor="middle" x="1030" y="-527.8" font-family="Times,serif" font-size="14.00" fill="green">metadata</text>
</g>
<!-- 13 -->
<g id="node14" class="node"><title>13</title>
<polygon fill="none" stroke="black" points="402.5,-557.5 402.5,-806.5 721.5,-806.5 721.5,-557.5 402.5,-557.5"/>
<text text-anchor="middle" x="562" y="-791.3" font-family="Times,serif" font-size="14.00">MyCapytain.resources.texts.api.cts.__SharedMethod__</text>
<polyline fill="none" stroke="black" points="402.5,-783.5 721.5,-783.5 "/>
<text text-anchor="start" x="410.5" y="-768.3" font-family="Times,serif" font-size="14.00">citation : NoneType</text>
<text text-anchor="start" x="410.5" y="-753.3" font-family="Times,serif" font-size="14.00">firstId</text>
<text text-anchor="start" x="410.5" y="-738.3" font-family="Times,serif" font-size="14.00">lastId</text>
<text text-anchor="start" x="410.5" y="-723.3" font-family="Times,serif" font-size="14.00">metadata</text>
<text text-anchor="start" x="410.5" y="-708.3" font-family="Times,serif" font-size="14.00">retriever</text>
<polyline fill="none" stroke="black" points="402.5,-700.5 721.5,-700.5 "/>
<text text-anchor="start" x="410.5" y="-685.3" font-family="Times,serif" font-size="14.00">firstUrn()</text>
<text text-anchor="start" x="410.5" y="-670.3" font-family="Times,serif" font-size="14.00">getFirstUrn()</text>
<text text-anchor="start" x="410.5" y="-655.3" font-family="Times,serif" font-size="14.00">getLabel()</text>
<text text-anchor="start" x="410.5" y="-640.3" font-family="Times,serif" font-size="14.00">getPassage()</text>
<text text-anchor="start" x="410.5" y="-625.3" font-family="Times,serif" font-size="14.00">getPassagePlus()</text>
<text text-anchor="start" x="410.5" y="-610.3" font-family="Times,serif" font-size="14.00">getPrevNextUrn()</text>
<text text-anchor="start" x="410.5" y="-595.3" font-family="Times,serif" font-size="14.00">getReffs()</text>
<text text-anchor="start" x="410.5" y="-580.3" font-family="Times,serif" font-size="14.00">getValidReff()</text>
<text text-anchor="start" x="410.5" y="-565.3" font-family="Times,serif" font-size="14.00">prevnext()</text>
</g>
<!-- 0&#45;&gt;13 -->
<g id="edge12" class="edge"><title>0&#45;&gt;13</title>
<path fill="none" stroke="black" d="M975.64,-400.53C950.535,-433.029 911.761,-477.548 869,-506 817.317,-540.388 791.013,-527.528 732.709,-555.917"/>
<polygon fill="black" stroke="black" points="732.522,-556.013 729.013,-562.312 721.848,-561.496 725.358,-555.196 732.522,-556.013"/>
<text text-anchor="middle" x="859" y="-527.8" font-family="Times,serif" font-size="14.00" fill="green">metadata</text>
</g>
<!-- 1 -->
<g id="node2" class="node"><title>1</title>
<polygon fill="none" stroke="black" points="739.5,-565 739.5,-799 978.5,-799 978.5,-565 739.5,-565"/>
<text text-anchor="middle" x="859" y="-783.8" font-family="Times,serif" font-size="14.00">MyCapytain.common.reference.Citation</text>
<polyline fill="none" stroke="black" points="739.5,-776 978.5,-776 "/>
<text text-anchor="start" x="747.5" y="-760.8" font-family="Times,serif" font-size="14.00">child</text>
<text text-anchor="start" x="747.5" y="-745.8" font-family="Times,serif" font-size="14.00">child : NoneType</text>
<text text-anchor="start" x="747.5" y="-730.8" font-family="Times,serif" font-size="14.00">name</text>
<text text-anchor="start" x="747.5" y="-715.8" font-family="Times,serif" font-size="14.00">name : NoneType</text>
<text text-anchor="start" x="747.5" y="-700.8" font-family="Times,serif" font-size="14.00">refsDecl</text>
<text text-anchor="start" x="747.5" y="-685.8" font-family="Times,serif" font-size="14.00">refsDecl : NoneType</text>
<text text-anchor="start" x="747.5" y="-670.8" font-family="Times,serif" font-size="14.00">scope</text>
<text text-anchor="start" x="747.5" y="-655.8" font-family="Times,serif" font-size="14.00">scope : NoneType</text>
<text text-anchor="start" x="747.5" y="-640.8" font-family="Times,serif" font-size="14.00">xpath</text>
<text text-anchor="start" x="747.5" y="-625.8" font-family="Times,serif" font-size="14.00">xpath : NoneType</text>
<polyline fill="none" stroke="black" points="739.5,-618 978.5,-618 "/>
<text text-anchor="start" x="747.5" y="-602.8" font-family="Times,serif" font-size="14.00">fill()</text>
<text text-anchor="start" x="747.5" y="-587.8" font-family="Times,serif" font-size="14.00">ingest()</text>
<text text-anchor="start" x="747.5" y="-572.8" font-family="Times,serif" font-size="14.00">isEmpty()</text>
</g>
<!-- 2 -->
<g id="node3" class="node"><title>2</title>
<polygon fill="none" stroke="black" points="515,-1535.5 515,-1694.5 751,-1694.5 751,-1535.5 515,-1535.5"/>
<text text-anchor="middle" x="633" y="-1679.3" font-family="Times,serif" font-size="14.00">MyCapytain.common.reference.NodeId</text>
<polyline fill="none" stroke="black" points="515,-1671.5 751,-1671.5 "/>
<text text-anchor="start" x="523" y="-1656.3" font-family="Times,serif" font-size="14.00">childIds</text>
<text text-anchor="start" x="523" y="-1641.3" font-family="Times,serif" font-size="14.00">depth</text>
<text text-anchor="start" x="523" y="-1626.3" font-family="Times,serif" font-size="14.00">id</text>
<text text-anchor="start" x="523" y="-1611.3" font-family="Times,serif" font-size="14.00">nextId</text>
<text text-anchor="start" x="523" y="-1596.3" font-family="Times,serif" font-size="14.00">parentId</text>
<text text-anchor="start" x="523" y="-1581.3" font-family="Times,serif" font-size="14.00">prevId</text>
<text text-anchor="start" x="523" y="-1566.3" font-family="Times,serif" font-size="14.00">siblingsId</text>
<polyline fill="none" stroke="black" points="515,-1558.5 751,-1558.5 "/>
<text text-anchor="middle" x="633" y="-1543.3" font-family="Times,serif" font-size="14.00"> </text>
</g>
<!-- 3 -->
<g id="node4" class="node"><title>3</title>
<polygon fill="none" stroke="black" points="0,-211.5 0,-505.5 224,-505.5 224,-211.5 0,-211.5"/>
<text text-anchor="middle" x="112" y="-490.3" font-family="Times,serif" font-size="14.00">MyCapytain.common.reference.URN</text>
<polyline fill="none" stroke="black" points="0,-482.5 224,-482.5 "/>
<text text-anchor="start" x="8" y="-467.3" font-family="Times,serif" font-size="14.00">COMPLETE : int</text>
<text text-anchor="start" x="8" y="-452.3" font-family="Times,serif" font-size="14.00">NAMESPACE : int</text>
<text text-anchor="start" x="8" y="-437.3" font-family="Times,serif" font-size="14.00">NO_PASSAGE : int</text>
<text text-anchor="start" x="8" y="-422.3" font-family="Times,serif" font-size="14.00">PASSAGE : int</text>
<text text-anchor="start" x="8" y="-407.3" font-family="Times,serif" font-size="14.00">PASSAGE_END : int</text>
<text text-anchor="start" x="8" y="-392.3" font-family="Times,serif" font-size="14.00">PASSAGE_START : int</text>
<text text-anchor="start" x="8" y="-377.3" font-family="Times,serif" font-size="14.00">TEXTGROUP : int</text>
<text text-anchor="start" x="8" y="-362.3" font-family="Times,serif" font-size="14.00">VERSION : int</text>
<text text-anchor="start" x="8" y="-347.3" font-family="Times,serif" font-size="14.00">WORK : int</text>
<text text-anchor="start" x="8" y="-332.3" font-family="Times,serif" font-size="14.00">namespace</text>
<text text-anchor="start" x="8" y="-317.3" font-family="Times,serif" font-size="14.00">reference</text>
<text text-anchor="start" x="8" y="-302.3" font-family="Times,serif" font-size="14.00">textgroup</text>
<text text-anchor="start" x="8" y="-287.3" font-family="Times,serif" font-size="14.00">urn_namespace</text>
<text text-anchor="start" x="8" y="-272.3" font-family="Times,serif" font-size="14.00">version</text>
<text text-anchor="start" x="8" y="-257.3" font-family="Times,serif" font-size="14.00">work</text>
<polyline fill="none" stroke="black" points="0,-249.5 224,-249.5 "/>
<text text-anchor="start" x="8" y="-234.3" font-family="Times,serif" font-size="14.00">model()</text>
<text text-anchor="start" x="8" y="-219.3" font-family="Times,serif" font-size="14.00">upTo()</text>
</g>
<!-- 6 -->
<g id="node7" class="node"><title>6</title>
<polygon fill="none" stroke="black" points="102,-632.5 102,-731.5 384,-731.5 384,-632.5 102,-632.5"/>
<text text-anchor="middle" x="243" y="-716.3" font-family="Times,serif" font-size="14.00">MyCapytain.resources.prototypes.text.CTSNode</text>
<polyline fill="none" stroke="black" points="102,-708.5 384,-708.5 "/>
<text text-anchor="start" x="110" y="-693.3" font-family="Times,serif" font-size="14.00">urn</text>
<text text-anchor="start" x="110" y="-678.3" font-family="Times,serif" font-size="14.00">urn : NoneType</text>
<polyline fill="none" stroke="black" points="102,-670.5 384,-670.5 "/>
<text text-anchor="start" x="110" y="-655.3" font-family="Times,serif" font-size="14.00">getLabel()</text>
<text text-anchor="start" x="110" y="-640.3" font-family="Times,serif" font-size="14.00">getValidReff()</text>
</g>
<!-- 3&#45;&gt;6 -->
<g id="edge13" class="edge"><title>3&#45;&gt;6</title>
<path fill="none" stroke="black" d="M171.559,-505.668C188.185,-546.474 205.327,-588.542 218.65,-621.241"/>
<polygon fill="black" stroke="black" points="218.668,-621.285 224.637,-625.332 223.196,-632.398 217.228,-628.351 218.668,-621.285"/>
<text text-anchor="middle" x="205" y="-527.8" font-family="Times,serif" font-size="14.00" fill="green">__urn__</text>
</g>
<!-- 4 -->
<g id="node5" class="node"><title>4</title>
<polygon fill="none" stroke="black" points="592,-324 592,-393 860,-393 860,-324 592,-324"/>
<text text-anchor="middle" x="726" y="-377.8" font-family="Times,serif" font-size="14.00">MyCapytain.resources.collections.cts.Citation</text>
<polyline fill="none" stroke="black" points="592,-370 860,-370 "/>
<text text-anchor="start" x="600" y="-354.8" font-family="Times,serif" font-size="14.00">escape</text>
<polyline fill="none" stroke="black" points="592,-347 860,-347 "/>
<text text-anchor="start" x="600" y="-331.8" font-family="Times,serif" font-size="14.00">ingest()</text>
</g>
<!-- 4&#45;&gt;1 -->
<g id="edge1" class="edge"><title>4&#45;&gt;1</title>
<path fill="none" stroke="black" d="M739.982,-393.298C755.904,-431.786 782.853,-496.93 807.085,-555.506"/>
<polygon fill="none" stroke="black" points="803.891,-556.942 810.948,-564.845 810.36,-554.267 803.891,-556.942"/>
</g>
<!-- 4&#45;&gt;13 -->
<g id="edge14" class="edge"><title>4&#45;&gt;13</title>
<path fill="none" stroke="black" d="M708.759,-393.298C690.14,-429.8 659.289,-490.277 630.666,-546.389"/>
<polygon fill="black" stroke="black" points="630.617,-546.486 631.453,-553.649 625.164,-557.176 624.327,-550.013 630.617,-546.486"/>
<text text-anchor="middle" x="660.5" y="-527.8" font-family="Times,serif" font-size="14.00" fill="green">citation</text>
</g>
<!-- 9 -->
<g id="node10" class="node"><title>9</title>
<polygon fill="none" stroke="black" points="770.5,-1535.5 770.5,-1694.5 1085.5,-1694.5 1085.5,-1535.5 770.5,-1535.5"/>
<text text-anchor="middle" x="928" y="-1679.3" font-family="Times,serif" font-size="14.00">MyCapytain.resources.prototypes.text.TextualElement</text>
<polyline fill="none" stroke="black" points="770.5,-1671.5 1085.5,-1671.5 "/>
<text text-anchor="start" x="778.5" y="-1656.3" font-family="Times,serif" font-size="14.00">about</text>
<text text-anchor="start" x="778.5" y="-1641.3" font-family="Times,serif" font-size="14.00">default_exclude : list</text>
<text text-anchor="start" x="778.5" y="-1626.3" font-family="Times,serif" font-size="14.00">id</text>
<text text-anchor="start" x="778.5" y="-1611.3" font-family="Times,serif" font-size="14.00">metadata</text>
<text text-anchor="start" x="778.5" y="-1596.3" font-family="Times,serif" font-size="14.00">metadata : NoneType</text>
<text text-anchor="start" x="778.5" y="-1581.3" font-family="Times,serif" font-size="14.00">text</text>
<polyline fill="none" stroke="black" points="770.5,-1573.5 1085.5,-1573.5 "/>
<text text-anchor="start" x="778.5" y="-1558.3" font-family="Times,serif" font-size="14.00">default_export()</text>
<text text-anchor="start" x="778.5" y="-1543.3" font-family="Times,serif" font-size="14.00">export()</text>
</g>
<!-- 5&#45;&gt;9 -->
<g id="edge15" class="edge"><title>5&#45;&gt;9</title>
<path fill="none" stroke="black" d="M966.511,-1059.82C948.097,-1125.47 930,-1209.46 930,-1286 930,-1286 930,-1286 930,-1464 930,-1483.2 929.834,-1503.77 929.598,-1523.34"/>
<polygon fill="black" stroke="black" points="929.598,-1523.38 933.52,-1529.43 929.443,-1535.38 925.521,-1529.32 929.598,-1523.38"/>
<text text-anchor="middle" x="959" y="-1344.3" font-family="Times,serif" font-size="14.00" fill="green">__about__</text>
</g>
<!-- 8 -->
<g id="node9" class="node"><title>8</title>
<polygon fill="none" stroke="black" points="384,-1078.5 384,-1267.5 740,-1267.5 740,-1078.5 384,-1078.5"/>
<text text-anchor="middle" x="562" y="-1252.3" font-family="Times,serif" font-size="14.00">MyCapytain.resources.prototypes.text.InteractiveTextualNode</text>
<polyline fill="none" stroke="black" points="384,-1244.5 740,-1244.5 "/>
<text text-anchor="start" x="392" y="-1229.3" font-family="Times,serif" font-size="14.00">childIds</text>
<text text-anchor="start" x="392" y="-1214.3" font-family="Times,serif" font-size="14.00">children</text>
<text text-anchor="start" x="392" y="-1199.3" font-family="Times,serif" font-size="14.00">first</text>
<text text-anchor="start" x="392" y="-1184.3" font-family="Times,serif" font-size="14.00">firstId</text>
<text text-anchor="start" x="392" y="-1169.3" font-family="Times,serif" font-size="14.00">last</text>
<text text-anchor="start" x="392" y="-1154.3" font-family="Times,serif" font-size="14.00">lastId</text>
<text text-anchor="start" x="392" y="-1139.3" font-family="Times,serif" font-size="14.00">next</text>
<text text-anchor="start" x="392" y="-1124.3" font-family="Times,serif" font-size="14.00">parent</text>
<text text-anchor="start" x="392" y="-1109.3" font-family="Times,serif" font-size="14.00">prev</text>
<polyline fill="none" stroke="black" points="384,-1101.5 740,-1101.5 "/>
<text text-anchor="middle" x="562" y="-1086.3" font-family="Times,serif" font-size="14.00"> </text>
</g>
<!-- 6&#45;&gt;8 -->
<g id="edge2" class="edge"><title>6&#45;&gt;8</title>
<path fill="none" stroke="black" d="M274.753,-731.675C325.873,-810.038 427.517,-965.85 495.147,-1069.52"/>
<polygon fill="none" stroke="black" points="492.373,-1071.67 500.768,-1078.14 498.236,-1067.85 492.373,-1071.67"/>
</g>
<!-- 7 -->
<g id="node8" class="node"><title>7</title>
<polygon fill="none" stroke="black" points="242,-324 242,-393 534,-393 534,-324 242,-324"/>
<text text-anchor="middle" x="388" y="-377.8" font-family="Times,serif" font-size="14.00">MyCapytain.resources.prototypes.text.CitableText</text>
<polyline fill="none" stroke="black" points="242,-370 534,-370 "/>
<text text-anchor="start" x="250" y="-354.8" font-family="Times,serif" font-size="14.00">reffs</text>
<polyline fill="none" stroke="black" points="242,-347 534,-347 "/>
<text text-anchor="middle" x="388" y="-331.8" font-family="Times,serif" font-size="14.00"> </text>
</g>
<!-- 7&#45;&gt;6 -->
<g id="edge3" class="edge"><title>7&#45;&gt;6</title>
<path fill="none" stroke="black" d="M372.757,-393.298C348.138,-447.883 299.338,-556.086 269.103,-623.124"/>
<polygon fill="none" stroke="black" points="265.885,-621.745 264.964,-632.3 272.266,-624.623 265.885,-621.745"/>
</g>
<!-- 10 -->
<g id="node11" class="node"><title>10</title>
<polygon fill="none" stroke="black" points="467.5,-1305.5 467.5,-1390.5 770.5,-1390.5 770.5,-1305.5 467.5,-1305.5"/>
<text text-anchor="middle" x="619" y="-1375.3" font-family="Times,serif" font-size="14.00">MyCapytain.resources.prototypes.text.TextualGraph</text>
<polyline fill="none" stroke="black" points="467.5,-1367.5 770.5,-1367.5 "/>
<polyline fill="none" stroke="black" points="467.5,-1343.5 770.5,-1343.5 "/>
<text text-anchor="start" x="475.5" y="-1328.3" font-family="Times,serif" font-size="14.00">getPassage()</text>
<text text-anchor="start" x="475.5" y="-1313.3" font-family="Times,serif" font-size="14.00">getReffs()</text>
</g>
<!-- 8&#45;&gt;10 -->
<g id="edge4" class="edge"><title>8&#45;&gt;10</title>
<path fill="none" stroke="black" d="M592.836,-1267.59C595.999,-1277.19 599.124,-1286.68 602.053,-1295.57"/>
<polygon fill="none" stroke="black" points="598.815,-1296.92 605.269,-1305.32 605.464,-1294.73 598.815,-1296.92"/>
</g>
<!-- 11 -->
<g id="node12" class="node"><title>11</title>
<polygon fill="none" stroke="black" points="483.5,-1428.5 483.5,-1497.5 782.5,-1497.5 782.5,-1428.5 483.5,-1428.5"/>
<text text-anchor="middle" x="633" y="-1482.3" font-family="Times,serif" font-size="14.00">MyCapytain.resources.prototypes.text.TextualNode</text>
<polyline fill="none" stroke="black" points="483.5,-1474.5 782.5,-1474.5 "/>
<text text-anchor="start" x="491.5" y="-1459.3" font-family="Times,serif" font-size="14.00">citation</text>
<polyline fill="none" stroke="black" points="483.5,-1451.5 782.5,-1451.5 "/>
<text text-anchor="middle" x="633" y="-1436.3" font-family="Times,serif" font-size="14.00"> </text>
</g>
<!-- 10&#45;&gt;11 -->
<g id="edge5" class="edge"><title>10&#45;&gt;11</title>
<path fill="none" stroke="black" d="M624.173,-1390.76C625.283,-1399.71 626.458,-1409.19 627.576,-1418.22"/>
<polygon fill="none" stroke="black" points="624.105,-1418.67 628.808,-1428.17 631.052,-1417.81 624.105,-1418.67"/>
</g>
<!-- 11&#45;&gt;2 -->
<g id="edge6" class="edge"><title>11&#45;&gt;2</title>
<path fill="none" stroke="black" d="M633,-1497.66C633,-1506.06 633,-1515.46 633,-1525.19"/>
<polygon fill="none" stroke="black" points="629.5,-1525.41 633,-1535.41 636.5,-1525.41 629.5,-1525.41"/>
</g>
<!-- 11&#45;&gt;9 -->
<g id="edge7" class="edge"><title>11&#45;&gt;9</title>
<path fill="none" stroke="black" d="M699.204,-1497.66C718.849,-1507.65 741.293,-1519.06 764.269,-1530.75"/>
<polygon fill="none" stroke="black" points="762.941,-1534 773.441,-1535.41 766.114,-1527.76 762.941,-1534"/>
</g>
<!-- 12 -->
<g id="node13" class="node"><title>12</title>
<polygon fill="none" stroke="black" points="395,-0.5 395,-159.5 631,-159.5 631,-0.5 395,-0.5"/>
<text text-anchor="middle" x="513" y="-144.3" font-family="Times,serif" font-size="14.00">MyCapytain.resources.texts.api.cts.Text</text>
<polyline fill="none" stroke="black" points="395,-136.5 631,-136.5 "/>
<text text-anchor="start" x="403" y="-121.3" font-family="Times,serif" font-size="14.00">DEFAULT_LANG : unicode</text>
<text text-anchor="start" x="403" y="-106.3" font-family="Times,serif" font-size="14.00">next</text>
<text text-anchor="start" x="403" y="-91.3" font-family="Times,serif" font-size="14.00">nextId</text>
<text text-anchor="start" x="403" y="-76.3" font-family="Times,serif" font-size="14.00">prev</text>
<text text-anchor="start" x="403" y="-61.3" font-family="Times,serif" font-size="14.00">prevId</text>
<text text-anchor="start" x="403" y="-46.3" font-family="Times,serif" font-size="14.00">reffs</text>
<text text-anchor="start" x="403" y="-31.3" font-family="Times,serif" font-size="14.00">siblingsId</text>
<polyline fill="none" stroke="black" points="395,-23.5 631,-23.5 "/>
<text text-anchor="start" x="403" y="-8.3" font-family="Times,serif" font-size="14.00">export()</text>
</g>
<!-- 12&#45;&gt;7 -->
<g id="edge8" class="edge"><title>12&#45;&gt;7</title>
<path fill="none" stroke="black" d="M477.347,-159.864C454.585,-210.213 425.958,-273.537 407.332,-314.739"/>
<polygon fill="none" stroke="black" points="404.099,-313.394 403.168,-323.948 410.477,-316.277 404.099,-313.394"/>
</g>
<!-- 12&#45;&gt;13 -->
<g id="edge9" class="edge"><title>12&#45;&gt;13</title>
<path fill="none" stroke="black" d="M533.62,-159.626C537.34,-176.47 540.748,-194.242 543,-211 558.14,-323.646 562.433,-452.728 563.199,-547.079"/>
<polygon fill="none" stroke="black" points="559.701,-547.276 563.27,-557.252 566.7,-547.228 559.701,-547.276"/>
</g>
<!-- 13&#45;&gt;8 -->
<g id="edge10" class="edge"><title>13&#45;&gt;8</title>
<path fill="none" stroke="black" d="M562,-806.711C562,-887.541 562,-991.892 562,-1068.35"/>
<polygon fill="none" stroke="black" points="558.5,-1068.48 562,-1078.48 565.5,-1068.48 558.5,-1068.48"/>
</g>
<!-- 14 -->
<g id="node15" class="node"><title>14</title>
<polygon fill="none" stroke="black" points="921.5,-45.5 921.5,-114.5 1088.5,-114.5 1088.5,-45.5 921.5,-45.5"/>
<text text-anchor="middle" x="1005" y="-99.3" font-family="Times,serif" font-size="14.00">collections.defaultdict</text>
<polyline fill="none" stroke="black" points="921.5,-91.5 1088.5,-91.5 "/>
<text text-anchor="start" x="929.5" y="-76.3" font-family="Times,serif" font-size="14.00">default_factory : NoneType</text>
<polyline fill="none" stroke="black" points="921.5,-68.5 1088.5,-68.5 "/>
<text text-anchor="middle" x="1005" y="-53.3" font-family="Times,serif" font-size="14.00"> </text>
</g>
<!-- 14&#45;&gt;0 -->
<g id="edge16" class="edge"><title>14&#45;&gt;0</title>
<path fill="none" stroke="black" d="M989.108,-114.732C981.368,-133.012 972.905,-156.254 969,-178 961.328,-220.721 972.086,-268.943 983.794,-304.64"/>
<polygon fill="black" stroke="black" points="983.879,-304.89 989.611,-309.266 987.775,-316.24 982.044,-311.863 983.879,-304.89"/>
<text text-anchor="middle" x="994" y="-181.8" font-family="Times,serif" font-size="14.00" fill="green">metadata</text>
</g>
<!-- 14&#45;&gt;0 -->
<g id="edge17" class="edge"><title>14&#45;&gt;0</title>
<path fill="none" stroke="black" d="M1011.05,-114.54C1014.1,-133.162 1017.48,-156.786 1019,-178 1022.04,-220.392 1017.9,-268.389 1013.35,-304.079"/>
<polygon fill="black" stroke="black" points="1013.33,-304.266 1016.5,-310.743 1011.74,-316.16 1008.57,-309.683 1013.33,-304.266"/>
<text text-anchor="middle" x="1044" y="-181.8" font-family="Times,serif" font-size="14.00" fill="green">metadata</text>
</g>
</g>
</svg>
