<?xml version="1.0" encoding="UTF-8" standalone="no"?>
<!DOCTYPE svg PUBLIC "-//W3C//DTD SVG 1.1//EN"
 "http://www.w3.org/Graphics/SVG/1.1/DTD/svg11.dtd">
<!-- Generated by graphviz version 2.38.0 (20140413.2041)
 -->
<!-- Title: MyCapytain.resources.texts.api.cts.Passage Pages: 1 -->
<svg width="1173pt" height="1941pt"
 viewBox="0.00 0.00 1172.50 1941.00" xmlns="http://www.w3.org/2000/svg" xmlns:xlink="http://www.w3.org/1999/xlink">
<g id="graph0" class="graph" transform="scale(1 1) rotate(0) translate(4 1937)">
<title>MyCapytain.resources.texts.api.cts.Passage</title>
<polygon fill="white" stroke="none" points="-4,4 -4,-1937 1168.5,-1937 1168.5,4 -4,4"/>
<!-- 0 -->
<g id="node1" class="node"><title>0</title>
<polygon fill="none" stroke="black" points="214,-121.5 214,-205.5 459,-205.5 459,-121.5 214,-121.5"/>
<text text-anchor="middle" x="336.5" y="-190.3" font-family="Times,serif" font-size="14.00">MyCapytain.common.metadata.Metadata</text>
<polyline fill="none" stroke="black" points="214,-182.5 459,-182.5 "/>
<text text-anchor="start" x="222" y="-167.3" font-family="Times,serif" font-size="14.00">metadata</text>
<polyline fill="none" stroke="black" points="214,-159.5 459,-159.5 "/>
<text text-anchor="start" x="222" y="-144.3" font-family="Times,serif" font-size="14.00">export()</text>
<text text-anchor="start" x="222" y="-129.3" font-family="Times,serif" font-size="14.00">keys()</text>
</g>
<!-- 5 -->
<g id="node6" class="node"><title>5</title>
<polygon fill="none" stroke="black" points="3.5,-510.5 3.5,-744.5 317.5,-744.5 317.5,-510.5 3.5,-510.5"/>
<text text-anchor="middle" x="160.5" y="-729.3" font-family="Times,serif" font-size="14.00">MyCapytain.resources.prototypes.metadata.Collection</text>
<polyline fill="none" stroke="black" points="3.5,-721.5 317.5,-721.5 "/>
<text text-anchor="start" x="11.5" y="-706.3" font-family="Times,serif" font-size="14.00">DC_TITLE_KEY : NoneType</text>
<text text-anchor="start" x="11.5" y="-691.3" font-family="Times,serif" font-size="14.00">TYPE_URI : str</text>
<text text-anchor="start" x="11.5" y="-676.3" font-family="Times,serif" font-size="14.00">descendants</text>
<text text-anchor="start" x="11.5" y="-661.3" font-family="Times,serif" font-size="14.00">id</text>
<text text-anchor="start" x="11.5" y="-646.3" font-family="Times,serif" font-size="14.00">members</text>
<text text-anchor="start" x="11.5" y="-631.3" font-family="Times,serif" font-size="14.00">metadata</text>
<text text-anchor="start" x="11.5" y="-616.3" font-family="Times,serif" font-size="14.00">parents : list</text>
<text text-anchor="start" x="11.5" y="-601.3" font-family="Times,serif" font-size="14.00">properties : dict</text>
<text text-anchor="start" x="11.5" y="-586.3" font-family="Times,serif" font-size="14.00">readable</text>
<text text-anchor="start" x="11.5" y="-571.3" font-family="Times,serif" font-size="14.00">readableDescendants</text>
<text text-anchor="start" x="11.5" y="-556.3" font-family="Times,serif" font-size="14.00">title</text>
<polyline fill="none" stroke="black" points="3.5,-548.5 317.5,-548.5 "/>
<text text-anchor="start" x="11.5" y="-533.3" font-family="Times,serif" font-size="14.00">default_export()</text>
<text text-anchor="start" x="11.5" y="-518.3" font-family="Times,serif" font-size="14.00">export()</text>
</g>
<!-- 0&#45;&gt;5 -->
<g id="edge13" class="edge"><title>0&#45;&gt;5</title>
<path fill="none" stroke="black" d="M286.216,-205.838C281.094,-211.55 276.364,-217.649 272.5,-224 221.472,-307.865 193.095,-415.556 177.681,-498.439"/>
<polygon fill="black" stroke="black" points="177.638,-498.674 180.505,-505.291 175.499,-510.482 172.633,-503.865 177.638,-498.674"/>
<text text-anchor="middle" x="297.5" y="-227.8" font-family="Times,serif" font-size="14.00" fill="green">metadata</text>
</g>
<!-- 12 -->
<g id="node13" class="node"><title>12</title>
<polygon fill="none" stroke="black" points="493.5,-295 493.5,-454 747.5,-454 747.5,-295 493.5,-295"/>
<text text-anchor="middle" x="620.5" y="-438.8" font-family="Times,serif" font-size="14.00">MyCapytain.resources.texts.api.cts.Passage</text>
<polyline fill="none" stroke="black" points="493.5,-431 747.5,-431 "/>
<text text-anchor="start" x="501.5" y="-415.8" font-family="Times,serif" font-size="14.00">citation : NoneType</text>
<text text-anchor="start" x="501.5" y="-400.8" font-family="Times,serif" font-size="14.00">metadata : NoneType</text>
<text text-anchor="start" x="501.5" y="-385.8" font-family="Times,serif" font-size="14.00">nextId</text>
<text text-anchor="start" x="501.5" y="-370.8" font-family="Times,serif" font-size="14.00">prevId</text>
<text text-anchor="start" x="501.5" y="-355.8" font-family="Times,serif" font-size="14.00">resource</text>
<text text-anchor="start" x="501.5" y="-340.8" font-family="Times,serif" font-size="14.00">response</text>
<text text-anchor="start" x="501.5" y="-325.8" font-family="Times,serif" font-size="14.00">urn</text>
<polyline fill="none" stroke="black" points="493.5,-318 747.5,-318 "/>
<text text-anchor="middle" x="620.5" y="-302.8" font-family="Times,serif" font-size="14.00"> </text>
</g>
<!-- 0&#45;&gt;12 -->
<g id="edge14" class="edge"><title>0&#45;&gt;12</title>
<path fill="none" stroke="black" d="M403.435,-205.526C427.8,-221.049 455.292,-239.262 479.5,-257 492.485,-266.514 505.857,-276.829 518.953,-287.254"/>
<polygon fill="black" stroke="black" points="519.069,-287.347 526.252,-287.981 528.43,-294.855 521.247,-294.222 519.069,-287.347"/>
<text text-anchor="middle" x="478.5" y="-227.8" font-family="Times,serif" font-size="14.00" fill="green">metadata</text>
</g>
<!-- 13 -->
<g id="node14" class="node"><title>13</title>
<polygon fill="none" stroke="black" points="185,-786 185,-1035 504,-1035 504,-786 185,-786"/>
<text text-anchor="middle" x="344.5" y="-1019.8" font-family="Times,serif" font-size="14.00">MyCapytain.resources.texts.api.cts.__SharedMethod__</text>
<polyline fill="none" stroke="black" points="185,-1012 504,-1012 "/>
<text text-anchor="start" x="193" y="-996.8" font-family="Times,serif" font-size="14.00">citation : NoneType</text>
<text text-anchor="start" x="193" y="-981.8" font-family="Times,serif" font-size="14.00">firstId</text>
<text text-anchor="start" x="193" y="-966.8" font-family="Times,serif" font-size="14.00">lastId</text>
<text text-anchor="start" x="193" y="-951.8" font-family="Times,serif" font-size="14.00">metadata</text>
<text text-anchor="start" x="193" y="-936.8" font-family="Times,serif" font-size="14.00">retriever</text>
<polyline fill="none" stroke="black" points="185,-929 504,-929 "/>
<text text-anchor="start" x="193" y="-913.8" font-family="Times,serif" font-size="14.00">firstUrn()</text>
<text text-anchor="start" x="193" y="-898.8" font-family="Times,serif" font-size="14.00">getFirstUrn()</text>
<text text-anchor="start" x="193" y="-883.8" font-family="Times,serif" font-size="14.00">getLabel()</text>
<text text-anchor="start" x="193" y="-868.8" font-family="Times,serif" font-size="14.00">getPassage()</text>
<text text-anchor="start" x="193" y="-853.8" font-family="Times,serif" font-size="14.00">getPassagePlus()</text>
<text text-anchor="start" x="193" y="-838.8" font-family="Times,serif" font-size="14.00">getPrevNextUrn()</text>
<text text-anchor="start" x="193" y="-823.8" font-family="Times,serif" font-size="14.00">getReffs()</text>
<text text-anchor="start" x="193" y="-808.8" font-family="Times,serif" font-size="14.00">getValidReff()</text>
<text text-anchor="start" x="193" y="-793.8" font-family="Times,serif" font-size="14.00">prevnext()</text>
</g>
<!-- 0&#45;&gt;13 -->
<g id="edge15" class="edge"><title>0&#45;&gt;13</title>
<path fill="none" stroke="black" d="M336.942,-205.616C338.085,-312.112 341.183,-600.649 343.039,-773.452"/>
<polygon fill="black" stroke="black" points="343.042,-773.69 347.106,-779.647 343.17,-785.69 339.106,-779.733 343.042,-773.69"/>
<text text-anchor="middle" x="365.5" y="-370.8" font-family="Times,serif" font-size="14.00" fill="green">metadata</text>
</g>
<!-- 1 -->
<g id="node2" class="node"><title>1</title>
<polygon fill="none" stroke="black" points="766,-257.5 766,-491.5 1005,-491.5 1005,-257.5 766,-257.5"/>
<text text-anchor="middle" x="885.5" y="-476.3" font-family="Times,serif" font-size="14.00">MyCapytain.common.reference.Citation</text>
<polyline fill="none" stroke="black" points="766,-468.5 1005,-468.5 "/>
<text text-anchor="start" x="774" y="-453.3" font-family="Times,serif" font-size="14.00">child</text>
<text text-anchor="start" x="774" y="-438.3" font-family="Times,serif" font-size="14.00">child : NoneType</text>
<text text-anchor="start" x="774" y="-423.3" font-family="Times,serif" font-size="14.00">name</text>
<text text-anchor="start" x="774" y="-408.3" font-family="Times,serif" font-size="14.00">name : NoneType</text>
<text text-anchor="start" x="774" y="-393.3" font-family="Times,serif" font-size="14.00">refsDecl</text>
<text text-anchor="start" x="774" y="-378.3" font-family="Times,serif" font-size="14.00">refsDecl : NoneType</text>
<text text-anchor="start" x="774" y="-363.3" font-family="Times,serif" font-size="14.00">scope</text>
<text text-anchor="start" x="774" y="-348.3" font-family="Times,serif" font-size="14.00">scope : NoneType</text>
<text text-anchor="start" x="774" y="-333.3" font-family="Times,serif" font-size="14.00">xpath</text>
<text text-anchor="start" x="774" y="-318.3" font-family="Times,serif" font-size="14.00">xpath : NoneType</text>
<polyline fill="none" stroke="black" points="766,-310.5 1005,-310.5 "/>
<text text-anchor="start" x="774" y="-295.3" font-family="Times,serif" font-size="14.00">fill()</text>
<text text-anchor="start" x="774" y="-280.3" font-family="Times,serif" font-size="14.00">ingest()</text>
<text text-anchor="start" x="774" y="-265.3" font-family="Times,serif" font-size="14.00">isEmpty()</text>
</g>
<!-- 2 -->
<g id="node3" class="node"><title>2</title>
<polygon fill="none" stroke="black" points="334.5,-1773.5 334.5,-1932.5 570.5,-1932.5 570.5,-1773.5 334.5,-1773.5"/>
<text text-anchor="middle" x="452.5" y="-1917.3" font-family="Times,serif" font-size="14.00">MyCapytain.common.reference.NodeId</text>
<polyline fill="none" stroke="black" points="334.5,-1909.5 570.5,-1909.5 "/>
<text text-anchor="start" x="342.5" y="-1894.3" font-family="Times,serif" font-size="14.00">childIds</text>
<text text-anchor="start" x="342.5" y="-1879.3" font-family="Times,serif" font-size="14.00">depth</text>
<text text-anchor="start" x="342.5" y="-1864.3" font-family="Times,serif" font-size="14.00">id</text>
<text text-anchor="start" x="342.5" y="-1849.3" font-family="Times,serif" font-size="14.00">nextId</text>
<text text-anchor="start" x="342.5" y="-1834.3" font-family="Times,serif" font-size="14.00">parentId</text>
<text text-anchor="start" x="342.5" y="-1819.3" font-family="Times,serif" font-size="14.00">prevId</text>
<text text-anchor="start" x="342.5" y="-1804.3" font-family="Times,serif" font-size="14.00">siblingsId</text>
<polyline fill="none" stroke="black" points="334.5,-1796.5 570.5,-1796.5 "/>
<text text-anchor="middle" x="452.5" y="-1781.3" font-family="Times,serif" font-size="14.00"> </text>
</g>
<!-- 3 -->
<g id="node4" class="node"><title>3</title>
<polygon fill="none" stroke="black" points="522.5,-763.5 522.5,-1057.5 746.5,-1057.5 746.5,-763.5 522.5,-763.5"/>
<text text-anchor="middle" x="634.5" y="-1042.3" font-family="Times,serif" font-size="14.00">MyCapytain.common.reference.URN</text>
<polyline fill="none" stroke="black" points="522.5,-1034.5 746.5,-1034.5 "/>
<text text-anchor="start" x="530.5" y="-1019.3" font-family="Times,serif" font-size="14.00">COMPLETE : int</text>
<text text-anchor="start" x="530.5" y="-1004.3" font-family="Times,serif" font-size="14.00">NAMESPACE : int</text>
<text text-anchor="start" x="530.5" y="-989.3" font-family="Times,serif" font-size="14.00">NO_PASSAGE : int</text>
<text text-anchor="start" x="530.5" y="-974.3" font-family="Times,serif" font-size="14.00">PASSAGE : int</text>
<text text-anchor="start" x="530.5" y="-959.3" font-family="Times,serif" font-size="14.00">PASSAGE_END : int</text>
<text text-anchor="start" x="530.5" y="-944.3" font-family="Times,serif" font-size="14.00">PASSAGE_START : int</text>
<text text-anchor="start" x="530.5" y="-929.3" font-family="Times,serif" font-size="14.00">TEXTGROUP : int</text>
<text text-anchor="start" x="530.5" y="-914.3" font-family="Times,serif" font-size="14.00">VERSION : int</text>
<text text-anchor="start" x="530.5" y="-899.3" font-family="Times,serif" font-size="14.00">WORK : int</text>
<text text-anchor="start" x="530.5" y="-884.3" font-family="Times,serif" font-size="14.00">namespace</text>
<text text-anchor="start" x="530.5" y="-869.3" font-family="Times,serif" font-size="14.00">reference</text>
<text text-anchor="start" x="530.5" y="-854.3" font-family="Times,serif" font-size="14.00">textgroup</text>
<text text-anchor="start" x="530.5" y="-839.3" font-family="Times,serif" font-size="14.00">urn_namespace</text>
<text text-anchor="start" x="530.5" y="-824.3" font-family="Times,serif" font-size="14.00">version</text>
<text text-anchor="start" x="530.5" y="-809.3" font-family="Times,serif" font-size="14.00">work</text>
<polyline fill="none" stroke="black" points="522.5,-801.5 746.5,-801.5 "/>
<text text-anchor="start" x="530.5" y="-786.3" font-family="Times,serif" font-size="14.00">model()</text>
<text text-anchor="start" x="530.5" y="-771.3" font-family="Times,serif" font-size="14.00">upTo()</text>
</g>
<!-- 6 -->
<g id="node7" class="node"><title>6</title>
<polygon fill="none" stroke="black" points="493.5,-1179.5 493.5,-1278.5 775.5,-1278.5 775.5,-1179.5 493.5,-1179.5"/>
<text text-anchor="middle" x="634.5" y="-1263.3" font-family="Times,serif" font-size="14.00">MyCapytain.resources.prototypes.text.CTSNode</text>
<polyline fill="none" stroke="black" points="493.5,-1255.5 775.5,-1255.5 "/>
<text text-anchor="start" x="501.5" y="-1240.3" font-family="Times,serif" font-size="14.00">urn</text>
<text text-anchor="start" x="501.5" y="-1225.3" font-family="Times,serif" font-size="14.00">urn : NoneType</text>
<polyline fill="none" stroke="black" points="493.5,-1217.5 775.5,-1217.5 "/>
<text text-anchor="start" x="501.5" y="-1202.3" font-family="Times,serif" font-size="14.00">getLabel()</text>
<text text-anchor="start" x="501.5" y="-1187.3" font-family="Times,serif" font-size="14.00">getValidReff()</text>
</g>
<!-- 3&#45;&gt;6 -->
<g id="edge16" class="edge"><title>3&#45;&gt;6</title>
<path fill="none" stroke="black" d="M634.5,-1057.71C634.5,-1096.14 634.5,-1135.53 634.5,-1166.73"/>
<polygon fill="black" stroke="black" points="634.5,-1167.14 638.5,-1173.14 634.5,-1179.14 630.5,-1173.14 634.5,-1167.14"/>
<text text-anchor="middle" x="657.5" y="-1114.8" font-family="Times,serif" font-size="14.00" fill="green">__urn__</text>
</g>
<!-- 4 -->
<g id="node5" class="node"><title>4</title>
<polygon fill="none" stroke="black" points="514.5,-129 514.5,-198 782.5,-198 782.5,-129 514.5,-129"/>
<text text-anchor="middle" x="648.5" y="-182.8" font-family="Times,serif" font-size="14.00">MyCapytain.resources.collections.cts.Citation</text>
<polyline fill="none" stroke="black" points="514.5,-175 782.5,-175 "/>
<text text-anchor="start" x="522.5" y="-159.8" font-family="Times,serif" font-size="14.00">escape</text>
<polyline fill="none" stroke="black" points="514.5,-152 782.5,-152 "/>
<text text-anchor="start" x="522.5" y="-136.8" font-family="Times,serif" font-size="14.00">ingest()</text>
</g>
<!-- 4&#45;&gt;1 -->
<g id="edge1" class="edge"><title>4&#45;&gt;1</title>
<path fill="none" stroke="black" d="M688.212,-198.082C708.716,-215.528 734.07,-237.272 756.5,-257 757.074,-257.504 757.648,-258.01 758.224,-258.518"/>
<polygon fill="none" stroke="black" points="755.96,-261.187 765.773,-265.18 760.592,-255.939 755.96,-261.187"/>
</g>
<!-- 4&#45;&gt;12 -->
<g id="edge17" class="edge"><title>4&#45;&gt;12</title>
<path fill="none" stroke="black" d="M644.001,-198.079C640.917,-221.101 636.668,-252.819 632.63,-282.958"/>
<polygon fill="black" stroke="black" points="632.63,-282.96 635.798,-289.438 631.036,-294.854 627.869,-288.376 632.63,-282.96"/>
<text text-anchor="middle" x="661" y="-227.8" font-family="Times,serif" font-size="14.00" fill="green">citation</text>
</g>
<!-- 4&#45;&gt;12 -->
<g id="edge18" class="edge"><title>4&#45;&gt;12</title>
<path fill="none" stroke="black" d="M610.519,-198.007C603.972,-205.825 598.118,-214.63 594.5,-224 587.355,-242.505 586.662,-263.059 589.244,-282.854"/>
<polygon fill="black" stroke="black" points="589.249,-282.884 594.164,-288.161 591.183,-294.727 586.268,-289.45 589.249,-282.884"/>
<text text-anchor="middle" x="615" y="-227.8" font-family="Times,serif" font-size="14.00" fill="green">citation</text>
</g>
<!-- 4&#45;&gt;13 -->
<g id="edge19" class="edge"><title>4&#45;&gt;13</title>
<path fill="none" stroke="black" d="M522.6,-198.022C492.544,-211.697 463.434,-230.709 443.5,-257 428.005,-277.436 385.748,-588.538 361.75,-773.674"/>
<polygon fill="black" stroke="black" points="361.736,-773.781 364.933,-780.245 360.196,-785.682 356.999,-779.218 361.736,-773.781"/>
<text text-anchor="middle" x="464" y="-370.8" font-family="Times,serif" font-size="14.00" fill="green">citation</text>
</g>
<!-- 9 -->
<g id="node10" class="node"><title>9</title>
<polygon fill="none" stroke="black" points="0,-1773.5 0,-1932.5 315,-1932.5 315,-1773.5 0,-1773.5"/>
<text text-anchor="middle" x="157.5" y="-1917.3" font-family="Times,serif" font-size="14.00">MyCapytain.resources.prototypes.text.TextualElement</text>
<polyline fill="none" stroke="black" points="0,-1909.5 315,-1909.5 "/>
<text text-anchor="start" x="8" y="-1894.3" font-family="Times,serif" font-size="14.00">about</text>
<text text-anchor="start" x="8" y="-1879.3" font-family="Times,serif" font-size="14.00">default_exclude : list</text>
<text text-anchor="start" x="8" y="-1864.3" font-family="Times,serif" font-size="14.00">id</text>
<text text-anchor="start" x="8" y="-1849.3" font-family="Times,serif" font-size="14.00">metadata</text>
<text text-anchor="start" x="8" y="-1834.3" font-family="Times,serif" font-size="14.00">metadata : NoneType</text>
<text text-anchor="start" x="8" y="-1819.3" font-family="Times,serif" font-size="14.00">text</text>
<polyline fill="none" stroke="black" points="0,-1811.5 315,-1811.5 "/>
<text text-anchor="start" x="8" y="-1796.3" font-family="Times,serif" font-size="14.00">default_export()</text>
<text text-anchor="start" x="8" y="-1781.3" font-family="Times,serif" font-size="14.00">export()</text>
</g>
<!-- 5&#45;&gt;9 -->
<g id="edge20" class="edge"><title>5&#45;&gt;9</title>
<path fill="none" stroke="black" d="M159.016,-744.59C157.878,-843.668 156.5,-989.94 156.5,-1117.5 156.5,-1117.5 156.5,-1117.5 156.5,-1702 156.5,-1721.19 156.583,-1741.77 156.701,-1761.34"/>
<polygon fill="black" stroke="black" points="156.701,-1761.37 160.74,-1767.35 156.779,-1773.37 152.74,-1767.4 156.701,-1761.37"/>
<text text-anchor="middle" x="185.5" y="-1407.3" font-family="Times,serif" font-size="14.00" fill="green">__about__</text>
</g>
<!-- 7 -->
<g id="node8" class="node"><title>7</title>
<polygon fill="none" stroke="black" points="319.5,-1316.5 319.5,-1505.5 675.5,-1505.5 675.5,-1316.5 319.5,-1316.5"/>
<text text-anchor="middle" x="497.5" y="-1490.3" font-family="Times,serif" font-size="14.00">MyCapytain.resources.prototypes.text.InteractiveTextualNode</text>
<polyline fill="none" stroke="black" points="319.5,-1482.5 675.5,-1482.5 "/>
<text text-anchor="start" x="327.5" y="-1467.3" font-family="Times,serif" font-size="14.00">childIds</text>
<text text-anchor="start" x="327.5" y="-1452.3" font-family="Times,serif" font-size="14.00">children</text>
<text text-anchor="start" x="327.5" y="-1437.3" font-family="Times,serif" font-size="14.00">first</text>
<text text-anchor="start" x="327.5" y="-1422.3" font-family="Times,serif" font-size="14.00">firstId</text>
<text text-anchor="start" x="327.5" y="-1407.3" font-family="Times,serif" font-size="14.00">last</text>
<text text-anchor="start" x="327.5" y="-1392.3" font-family="Times,serif" font-size="14.00">lastId</text>
<text text-anchor="start" x="327.5" y="-1377.3" font-family="Times,serif" font-size="14.00">next</text>
<text text-anchor="start" x="327.5" y="-1362.3" font-family="Times,serif" font-size="14.00">parent</text>
<text text-anchor="start" x="327.5" y="-1347.3" font-family="Times,serif" font-size="14.00">prev</text>
<polyline fill="none" stroke="black" points="319.5,-1339.5 675.5,-1339.5 "/>
<text text-anchor="middle" x="497.5" y="-1324.3" font-family="Times,serif" font-size="14.00"> </text>
</g>
<!-- 6&#45;&gt;7 -->
<g id="edge2" class="edge"><title>6&#45;&gt;7</title>
<path fill="none" stroke="black" d="M597.426,-1278.71C590.423,-1287.91 582.86,-1297.85 575.139,-1307.99"/>
<polygon fill="none" stroke="black" points="572.193,-1306.08 568.922,-1316.16 577.763,-1310.32 572.193,-1306.08"/>
</g>
<!-- 10 -->
<g id="node11" class="node"><title>10</title>
<polygon fill="none" stroke="black" points="310,-1543.5 310,-1628.5 613,-1628.5 613,-1543.5 310,-1543.5"/>
<text text-anchor="middle" x="461.5" y="-1613.3" font-family="Times,serif" font-size="14.00">MyCapytain.resources.prototypes.text.TextualGraph</text>
<polyline fill="none" stroke="black" points="310,-1605.5 613,-1605.5 "/>
<polyline fill="none" stroke="black" points="310,-1581.5 613,-1581.5 "/>
<text text-anchor="start" x="318" y="-1566.3" font-family="Times,serif" font-size="14.00">getPassage()</text>
<text text-anchor="start" x="318" y="-1551.3" font-family="Times,serif" font-size="14.00">getReffs()</text>
</g>
<!-- 7&#45;&gt;10 -->
<g id="edge3" class="edge"><title>7&#45;&gt;10</title>
<path fill="none" stroke="black" d="M478.025,-1505.59C476.048,-1515.09 474.095,-1524.47 472.263,-1533.28"/>
<polygon fill="none" stroke="black" points="468.783,-1532.82 470.172,-1543.32 475.636,-1534.25 468.783,-1532.82"/>
</g>
<!-- 8 -->
<g id="node9" class="node"><title>8</title>
<polygon fill="none" stroke="black" points="765,-876 765,-945 1036,-945 1036,-876 765,-876"/>
<text text-anchor="middle" x="900.5" y="-929.8" font-family="Times,serif" font-size="14.00">MyCapytain.resources.prototypes.text.Passage</text>
<polyline fill="none" stroke="black" points="765,-922 1036,-922 "/>
<text text-anchor="start" x="773" y="-906.8" font-family="Times,serif" font-size="14.00">reference</text>
<polyline fill="none" stroke="black" points="765,-899 1036,-899 "/>
<text text-anchor="middle" x="900.5" y="-883.8" font-family="Times,serif" font-size="14.00"> </text>
</g>
<!-- 8&#45;&gt;6 -->
<g id="edge4" class="edge"><title>8&#45;&gt;6</title>
<path fill="none" stroke="black" d="M872.285,-945.071C826.93,-999.037 737.3,-1105.68 681.97,-1171.52"/>
<polygon fill="none" stroke="black" points="679.152,-1169.43 675.397,-1179.34 684.511,-1173.93 679.152,-1169.43"/>
</g>
<!-- 11 -->
<g id="node12" class="node"><title>11</title>
<polygon fill="none" stroke="black" points="303,-1666.5 303,-1735.5 602,-1735.5 602,-1666.5 303,-1666.5"/>
<text text-anchor="middle" x="452.5" y="-1720.3" font-family="Times,serif" font-size="14.00">MyCapytain.resources.prototypes.text.TextualNode</text>
<polyline fill="none" stroke="black" points="303,-1712.5 602,-1712.5 "/>
<text text-anchor="start" x="311" y="-1697.3" font-family="Times,serif" font-size="14.00">citation</text>
<polyline fill="none" stroke="black" points="303,-1689.5 602,-1689.5 "/>
<text text-anchor="middle" x="452.5" y="-1674.3" font-family="Times,serif" font-size="14.00"> </text>
</g>
<!-- 10&#45;&gt;11 -->
<g id="edge5" class="edge"><title>10&#45;&gt;11</title>
<path fill="none" stroke="black" d="M458.174,-1628.76C457.469,-1637.61 456.722,-1646.99 456.01,-1655.93"/>
<polygon fill="none" stroke="black" points="452.5,-1655.92 455.195,-1666.17 459.478,-1656.48 452.5,-1655.92"/>
</g>
<!-- 11&#45;&gt;2 -->
<g id="edge6" class="edge"><title>11&#45;&gt;2</title>
<path fill="none" stroke="black" d="M452.5,-1735.66C452.5,-1744.06 452.5,-1753.46 452.5,-1763.19"/>
<polygon fill="none" stroke="black" points="449,-1763.41 452.5,-1773.41 456,-1763.41 449,-1763.41"/>
</g>
<!-- 11&#45;&gt;9 -->
<g id="edge7" class="edge"><title>11&#45;&gt;9</title>
<path fill="none" stroke="black" d="M386.296,-1735.66C366.651,-1745.65 344.207,-1757.06 321.231,-1768.75"/>
<polygon fill="none" stroke="black" points="319.386,-1765.76 312.059,-1773.41 322.559,-1772 319.386,-1765.76"/>
</g>
<!-- 12&#45;&gt;8 -->
<g id="edge8" class="edge"><title>12&#45;&gt;8</title>
<path fill="none" stroke="black" d="M661.665,-454.007C721.639,-568.386 831.002,-776.958 878.026,-866.639"/>
<polygon fill="none" stroke="black" points="875.036,-868.473 882.779,-875.704 881.235,-865.222 875.036,-868.473"/>
</g>
<!-- 12&#45;&gt;13 -->
<g id="edge9" class="edge"><title>12&#45;&gt;13</title>
<path fill="none" stroke="black" d="M587.422,-454.068C554.699,-529.866 501.902,-647.183 448.5,-745 442.751,-755.53 436.596,-766.304 430.259,-777.051"/>
<polygon fill="none" stroke="black" points="427.243,-775.275 425.141,-785.66 433.26,-778.852 427.243,-775.275"/>
</g>
<!-- 14 -->
<g id="node15" class="node"><title>14</title>
<polygon fill="none" stroke="black" points="862.5,-1076.5 862.5,-1160.5 1164.5,-1160.5 1164.5,-1076.5 862.5,-1076.5"/>
<text text-anchor="middle" x="1013.5" y="-1145.3" font-family="Times,serif" font-size="14.00">MyCapytain.resources.texts.encodings.TEIResource</text>
<polyline fill="none" stroke="black" points="862.5,-1137.5 1164.5,-1137.5 "/>
<text text-anchor="start" x="870.5" y="-1122.3" font-family="Times,serif" font-size="14.00">resource</text>
<text text-anchor="start" x="870.5" y="-1107.3" font-family="Times,serif" font-size="14.00">xml</text>
<polyline fill="none" stroke="black" points="862.5,-1099.5 1164.5,-1099.5 "/>
<text text-anchor="start" x="870.5" y="-1084.3" font-family="Times,serif" font-size="14.00">export()</text>
</g>
<!-- 12&#45;&gt;14 -->
<g id="edge10" class="edge"><title>12&#45;&gt;14</title>
<path fill="none" stroke="black" d="M710.27,-454.035C832.286,-561.254 1036.48,-742.562 1045.5,-763 1098.45,-882.942 1077.52,-930.859 1045.5,-1058 1044.75,-1060.97 1043.82,-1063.96 1042.75,-1066.93"/>
<polygon fill="none" stroke="black" points="1039.47,-1065.72 1038.94,-1076.3 1045.95,-1068.36 1039.47,-1065.72"/>
</g>
<!-- 13&#45;&gt;7 -->
<g id="edge11" class="edge"><title>13&#45;&gt;7</title>
<path fill="none" stroke="black" d="M382.418,-1035.04C408.048,-1118.55 441.505,-1227.56 465.733,-1306.5"/>
<polygon fill="none" stroke="black" points="462.509,-1307.92 468.79,-1316.46 469.201,-1305.87 462.509,-1307.92"/>
</g>
<!-- 14&#45;&gt;7 -->
<g id="edge12" class="edge"><title>14&#45;&gt;7</title>
<path fill="none" stroke="black" d="M960.246,-1160.72C914.949,-1194.75 847.42,-1243.12 784.5,-1279 753.079,-1296.92 718.769,-1314.31 685.153,-1330.26"/>
<polygon fill="none" stroke="black" points="683.247,-1327.28 675.693,-1334.71 686.231,-1333.62 683.247,-1327.28"/>
</g>
<!-- 15 -->
<g id="node16" class="node"><title>15</title>
<polygon fill="none" stroke="black" points="253,-0.5 253,-69.5 420,-69.5 420,-0.5 253,-0.5"/>
<text text-anchor="middle" x="336.5" y="-54.3" font-family="Times,serif" font-size="14.00">collections.defaultdict</text>
<polyline fill="none" stroke="black" points="253,-46.5 420,-46.5 "/>
<text text-anchor="start" x="261" y="-31.3" font-family="Times,serif" font-size="14.00">default_factory : NoneType</text>
<polyline fill="none" stroke="black" points="253,-23.5 420,-23.5 "/>
<text text-anchor="middle" x="336.5" y="-8.3" font-family="Times,serif" font-size="14.00"> </text>
</g>
<!-- 15&#45;&gt;0 -->
<g id="edge21" class="edge"><title>15&#45;&gt;0</title>
<path fill="none" stroke="black" d="M309.718,-69.7875C306.341,-75.5809 303.406,-81.755 301.5,-88 299.309,-95.1789 299.49,-102.548 301.163,-109.727"/>
<polygon fill="black" stroke="black" points="301.193,-109.815 306.912,-114.207 305.058,-121.176 299.338,-116.784 301.193,-109.815"/>
<text text-anchor="middle" x="326.5" y="-91.8" font-family="Times,serif" font-size="14.00" fill="green">metadata</text>
</g>
<!-- 15&#45;&gt;0 -->
<g id="edge22" class="edge"><title>15&#45;&gt;0</title>
<path fill="none" stroke="black" d="M347.663,-69.5467C349.258,-75.6241 350.645,-81.9528 351.5,-88 352.482,-94.9462 352.409,-102.221 351.677,-109.388"/>
<polygon fill="black" stroke="black" points="351.674,-109.404 354.739,-115.932 349.892,-121.271 346.827,-114.743 351.674,-109.404"/>
<text text-anchor="middle" x="377.5" y="-91.8" font-family="Times,serif" font-size="14.00" fill="green">metadata</text>
</g>
</g>
</svg>
