<?xml version="1.0" encoding="UTF-8" standalone="no"?>
<!DOCTYPE svg PUBLIC "-//W3C//DTD SVG 1.1//EN"
 "http://www.w3.org/Graphics/SVG/1.1/DTD/svg11.dtd">
<!-- Generated by graphviz version 2.38.0 (20140413.2041)
 -->
<!-- Title: packages_MyCapytain Pages: 1 -->
<svg width="2730pt" height="476pt"
 viewBox="0.00 0.00 2730.00 476.00" xmlns="http://www.w3.org/2000/svg" xmlns:xlink="http://www.w3.org/1999/xlink">
<g id="graph0" class="graph" transform="scale(1 1) rotate(0) translate(4 472)">
<title>packages_MyCapytain</title>
<polygon fill="white" stroke="none" points="-4,4 -4,-472 2726,-472 2726,4 -4,4"/>
<!-- 0 -->
<g id="node1" class="node"><title>0</title>
<polygon fill="none" stroke="black" points="601.5,-36 516.5,-36 516.5,-0 601.5,-0 601.5,-36"/>
<text text-anchor="middle" x="559" y="-14.3" font-family="Times,serif" font-size="14.00">MyCapytain</text>
</g>
<!-- 1 -->
<g id="node2" class="node"><title>1</title>
<polygon fill="none" stroke="black" points="756.5,-36 619.5,-36 619.5,-0 756.5,-0 756.5,-36"/>
<text text-anchor="middle" x="688" y="-14.3" font-family="Times,serif" font-size="14.00">MyCapytain.common</text>
</g>
<!-- 2 -->
<g id="node3" class="node"><title>2</title>
<polygon fill="none" stroke="black" points="829.5,-468 638.5,-468 638.5,-432 829.5,-432 829.5,-468"/>
<text text-anchor="middle" x="734" y="-446.3" font-family="Times,serif" font-size="14.00">MyCapytain.common.constants</text>
</g>
<!-- 3 -->
<g id="node4" class="node"><title>3</title>
<polygon fill="none" stroke="black" points="618.5,-396 427.5,-396 427.5,-360 618.5,-360 618.5,-396"/>
<text text-anchor="middle" x="523" y="-374.3" font-family="Times,serif" font-size="14.00">MyCapytain.common.metadata</text>
</g>
<!-- 3&#45;&gt;2 -->
<g id="edge1" class="edge"><title>3&#45;&gt;2</title>
<path fill="none" stroke="black" d="M574.347,-396.034C603.956,-405.858 641.374,-418.271 672.541,-428.611"/>
<polygon fill="black" stroke="black" points="682.423,-431.889 671.515,-433.011 677.677,-430.315 672.932,-428.74 672.932,-428.74 672.932,-428.74 677.677,-430.315 674.349,-424.469 682.423,-431.889 682.423,-431.889"/>
</g>
<!-- 6 -->
<g id="node7" class="node"><title>6</title>
<polygon fill="none" stroke="black" points="212,-468 92,-468 92,-432 212,-432 212,-468"/>
<text text-anchor="middle" x="152" y="-446.3" font-family="Times,serif" font-size="14.00">MyCapytain.errors</text>
</g>
<!-- 3&#45;&gt;6 -->
<g id="edge2" class="edge"><title>3&#45;&gt;6</title>
<path fill="none" stroke="black" d="M432.718,-396.034C367.937,-408.257 281.9,-424.491 222.228,-435.749"/>
<polygon fill="black" stroke="black" points="212.145,-437.652 221.138,-431.376 217.059,-436.725 221.972,-435.798 221.972,-435.798 221.972,-435.798 217.059,-436.725 222.806,-440.22 212.145,-437.652 212.145,-437.652"/>
</g>
<!-- 4 -->
<g id="node5" class="node"><title>4</title>
<polygon fill="none" stroke="black" points="1430.5,-324 1239.5,-324 1239.5,-288 1430.5,-288 1430.5,-324"/>
<text text-anchor="middle" x="1335" y="-302.3" font-family="Times,serif" font-size="14.00">MyCapytain.common.reference</text>
</g>
<!-- 4&#45;&gt;2 -->
<g id="edge3" class="edge"><title>4&#45;&gt;2</title>
<path fill="none" stroke="black" d="M1276.41,-324.064C1210.5,-342.955 1100.07,-373.682 1004,-396 949.908,-408.565 889.266,-420.648 839.178,-430.095"/>
<polygon fill="black" stroke="black" points="829.306,-431.949 838.304,-425.68 834.22,-431.026 839.134,-430.103 839.134,-430.103 839.134,-430.103 834.22,-431.026 839.964,-434.526 829.306,-431.949 829.306,-431.949"/>
</g>
<!-- 5 -->
<g id="node6" class="node"><title>5</title>
<polygon fill="none" stroke="black" points="344,-252 180,-252 180,-216 344,-216 344,-252"/>
<text text-anchor="middle" x="262" y="-230.3" font-family="Times,serif" font-size="14.00">MyCapytain.common.utils</text>
</g>
<!-- 5&#45;&gt;2 -->
<g id="edge4" class="edge"><title>5&#45;&gt;2</title>
<path fill="none" stroke="black" d="M266.752,-252.084C277.112,-285.846 305.149,-360.874 358,-396 401.151,-424.678 533.067,-438.121 628.475,-444.225"/>
<polygon fill="black" stroke="black" points="638.462,-444.846 628.202,-448.717 633.471,-444.536 628.481,-444.225 628.481,-444.225 628.481,-444.225 633.471,-444.536 628.76,-439.734 638.462,-444.846 638.462,-444.846"/>
</g>
<!-- 7 -->
<g id="node8" class="node"><title>7</title>
<polygon fill="none" stroke="black" points="1801.5,-36 1664.5,-36 1664.5,-0 1801.5,-0 1801.5,-36"/>
<text text-anchor="middle" x="1733" y="-14.3" font-family="Times,serif" font-size="14.00">MyCapytain.resolvers</text>
</g>
<!-- 8 -->
<g id="node9" class="node"><title>8</title>
<polygon fill="none" stroke="black" points="1976,-36 1820,-36 1820,-0 1976,-0 1976,-36"/>
<text text-anchor="middle" x="1898" y="-14.3" font-family="Times,serif" font-size="14.00">MyCapytain.resolvers.cts</text>
</g>
<!-- 9 -->
<g id="node10" class="node"><title>9</title>
<polygon fill="none" stroke="black" points="1646,-36 1470,-36 1470,-0 1646,-0 1646,-36"/>
<text text-anchor="middle" x="1558" y="-14.3" font-family="Times,serif" font-size="14.00">MyCapytain.resolvers.cts.api</text>
</g>
<!-- 11 -->
<g id="node12" class="node"><title>11</title>
<polygon fill="none" stroke="black" points="1593,-108 1395,-108 1395,-72 1593,-72 1593,-108"/>
<text text-anchor="middle" x="1494" y="-86.3" font-family="Times,serif" font-size="14.00">MyCapytain.resolvers.prototypes</text>
</g>
<!-- 9&#45;&gt;11 -->
<g id="edge5" class="edge"><title>9&#45;&gt;11</title>
<path fill="none" stroke="black" d="M1542.18,-36.3034C1534.43,-44.7802 1524.96,-55.1364 1516.48,-64.4174"/>
<polygon fill="black" stroke="black" points="1509.64,-71.8957 1513.06,-61.4789 1513.01,-68.2055 1516.39,-64.5154 1516.39,-64.5154 1516.39,-64.5154 1513.01,-68.2055 1519.71,-67.5518 1509.64,-71.8957 1509.64,-71.8957"/>
</g>
<!-- 14 -->
<g id="node15" class="node"><title>14</title>
<polygon fill="none" stroke="black" points="1357.5,-180 1136.5,-180 1136.5,-144 1357.5,-144 1357.5,-180"/>
<text text-anchor="middle" x="1247" y="-158.3" font-family="Times,serif" font-size="14.00">MyCapytain.resources.collections.cts</text>
</g>
<!-- 9&#45;&gt;14 -->
<g id="edge6" class="edge"><title>9&#45;&gt;14</title>
<path fill="none" stroke="black" d="M1577.42,-36.2291C1596.63,-55.3382 1620.68,-86.3255 1602,-108 1571.96,-142.864 1458.39,-155.14 1367.69,-159.287"/>
<polygon fill="black" stroke="black" points="1357.59,-159.72 1367.39,-154.796 1362.59,-159.506 1367.59,-159.292 1367.59,-159.292 1367.59,-159.292 1362.59,-159.506 1367.78,-163.788 1357.59,-159.72 1357.59,-159.72"/>
</g>
<!-- 22 -->
<g id="node23" class="node"><title>22</title>
<polygon fill="none" stroke="black" points="1083,-108 875,-108 875,-72 1083,-72 1083,-108"/>
<text text-anchor="middle" x="979" y="-86.3" font-family="Times,serif" font-size="14.00">MyCapytain.resources.texts.api.cts</text>
</g>
<!-- 9&#45;&gt;22 -->
<g id="edge7" class="edge"><title>9&#45;&gt;22</title>
<path fill="none" stroke="black" d="M1469.75,-29.6696C1368.98,-41.8523 1203.82,-61.8191 1093.29,-75.1824"/>
<polygon fill="black" stroke="black" points="1083.1,-76.4142 1092.49,-70.7464 1088.07,-75.814 1093.03,-75.2139 1093.03,-75.2139 1093.03,-75.2139 1088.07,-75.814 1093.57,-79.6813 1083.1,-76.4142 1083.1,-76.4142"/>
</g>
<!-- 27 -->
<g id="node28" class="node"><title>27</title>
<polygon fill="none" stroke="black" points="1814.5,-108 1649.5,-108 1649.5,-72 1814.5,-72 1814.5,-108"/>
<text text-anchor="middle" x="1732" y="-86.3" font-family="Times,serif" font-size="14.00">MyCapytain.retrievers.cts5</text>
</g>
<!-- 9&#45;&gt;27 -->
<g id="edge8" class="edge"><title>9&#45;&gt;27</title>
<path fill="none" stroke="black" d="M1600.57,-36.1239C1624.56,-45.7784 1654.73,-57.9135 1680.1,-68.1225"/>
<polygon fill="black" stroke="black" points="1689.57,-71.9317 1678.62,-72.3742 1684.93,-70.0655 1680.3,-68.1993 1680.3,-68.1993 1680.3,-68.1993 1684.93,-70.0655 1681.98,-64.0245 1689.57,-71.9317 1689.57,-71.9317"/>
</g>
<!-- 10 -->
<g id="node11" class="node"><title>10</title>
<polygon fill="none" stroke="black" points="961,-36 775,-36 775,-0 961,-0 961,-36"/>
<text text-anchor="middle" x="868" y="-14.3" font-family="Times,serif" font-size="14.00">MyCapytain.resolvers.cts.local</text>
</g>
<!-- 10&#45;&gt;4 -->
<g id="edge9" class="edge"><title>10&#45;&gt;4</title>
<path fill="none" stroke="black" d="M961.054,-23.5206C1076.03,-32.67 1274.39,-60.3371 1421,-144 1471.11,-172.592 1526.69,-205.168 1493,-252 1480.11,-269.924 1460.86,-281.871 1440.19,-289.813"/>
<polygon fill="black" stroke="black" points="1430.62,-293.187 1438.55,-285.62 1435.33,-291.525 1440.05,-289.864 1440.05,-289.864 1440.05,-289.864 1435.33,-291.525 1441.54,-294.108 1430.62,-293.187 1430.62,-293.187"/>
</g>
<!-- 10&#45;&gt;5 -->
<g id="edge10" class="edge"><title>10&#45;&gt;5</title>
<path fill="none" stroke="black" d="M774.837,-34.6104C771.519,-35.0919 768.232,-35.5568 765,-36 629.696,-54.5544 243.496,-35.9276 160,-144 150.218,-156.661 151.694,-166.325 160,-180 168.158,-193.432 180.949,-203.616 194.75,-211.278"/>
<polygon fill="black" stroke="black" points="203.928,-215.959 192.975,-215.424 199.473,-213.687 195.019,-211.415 195.019,-211.415 195.019,-211.415 199.473,-213.687 197.064,-207.407 203.928,-215.959 203.928,-215.959"/>
</g>
<!-- 10&#45;&gt;6 -->
<g id="edge11" class="edge"><title>10&#45;&gt;6</title>
<path fill="none" stroke="black" d="M774.86,-34.7965C771.536,-35.2252 768.241,-35.6285 765,-36 518.982,-64.1971 449.902,-14.6741 209,-72 110.782,-95.3723 0,-60.0397 0,-161 0,-161 0,-161 0,-307 0,-352.59 18.1708,-364.367 51,-396 64.2314,-408.749 81.1401,-419.219 97.3221,-427.388"/>
<polygon fill="black" stroke="black" points="106.732,-431.931 95.7706,-431.635 102.23,-429.757 97.727,-427.583 97.727,-427.583 97.727,-427.583 102.23,-429.757 99.6834,-423.531 106.732,-431.931 106.732,-431.931"/>
</g>
<!-- 10&#45;&gt;11 -->
<g id="edge12" class="edge"><title>10&#45;&gt;11</title>
<path fill="none" stroke="black" d="M961.291,-27.3277C1064.21,-36.8202 1234.66,-53.4428 1381,-72 1382.27,-72.1614 1383.55,-72.3256 1384.84,-72.4922"/>
<polygon fill="black" stroke="black" points="1394.82,-73.8135 1384.32,-76.962 1389.87,-73.1572 1384.91,-72.5009 1384.91,-72.5009 1384.91,-72.5009 1389.87,-73.1572 1385.5,-68.0399 1394.82,-73.8135 1394.82,-73.8135"/>
</g>
<!-- 10&#45;&gt;14 -->
<g id="edge13" class="edge"><title>10&#45;&gt;14</title>
<path fill="none" stroke="black" d="M961.112,-34.7543C1002.09,-43.2747 1050.29,-55.4954 1092,-72 1136.38,-89.5611 1183.39,-118.15 1213.84,-138.174"/>
<polygon fill="black" stroke="black" points="1222.36,-143.835 1211.54,-142.047 1218.19,-141.067 1214.03,-138.299 1214.03,-138.299 1214.03,-138.299 1218.19,-141.067 1216.52,-134.552 1222.36,-143.835 1222.36,-143.835"/>
</g>
<!-- 25 -->
<g id="node26" class="node"><title>25</title>
<polygon fill="none" stroke="black" points="666.5,-108 445.5,-108 445.5,-72 666.5,-72 666.5,-108"/>
<text text-anchor="middle" x="556" y="-86.3" font-family="Times,serif" font-size="14.00">MyCapytain.resources.texts.locals.tei</text>
</g>
<!-- 10&#45;&gt;25 -->
<g id="edge14" class="edge"><title>10&#45;&gt;25</title>
<path fill="none" stroke="black" d="M792.075,-36.0344C746.692,-46.2166 688.903,-59.1819 641.861,-69.7362"/>
<polygon fill="black" stroke="black" points="631.995,-71.9499 640.767,-65.3699 636.873,-70.8553 641.752,-69.7607 641.752,-69.7607 641.752,-69.7607 636.873,-70.8553 642.737,-74.1515 631.995,-71.9499 631.995,-71.9499"/>
</g>
<!-- 12 -->
<g id="node13" class="node"><title>12</title>
<polygon fill="none" stroke="black" points="2134,-36 1994,-36 1994,-0 2134,-0 2134,-36"/>
<text text-anchor="middle" x="2064" y="-14.3" font-family="Times,serif" font-size="14.00">MyCapytain.resources</text>
</g>
<!-- 13 -->
<g id="node14" class="node"><title>13</title>
<polygon fill="none" stroke="black" points="1080,-180 878,-180 878,-144 1080,-144 1080,-180"/>
<text text-anchor="middle" x="979" y="-158.3" font-family="Times,serif" font-size="14.00">MyCapytain.resources.collections</text>
</g>
<!-- 14&#45;&gt;2 -->
<g id="edge15" class="edge"><title>14&#45;&gt;2</title>
<path fill="none" stroke="black" d="M1357.75,-175.498C1408.42,-183.724 1460.6,-196.634 1476,-216 1502.35,-249.15 1443.77,-321.106 1440,-324 1347.57,-394.877 1012.98,-428.929 839.682,-442.118"/>
<polygon fill="black" stroke="black" points="829.521,-442.882 839.155,-437.645 834.506,-442.507 839.492,-442.133 839.492,-442.133 839.492,-442.133 834.506,-442.507 839.83,-446.62 829.521,-442.882 829.521,-442.882"/>
</g>
<!-- 14&#45;&gt;4 -->
<g id="edge16" class="edge"><title>14&#45;&gt;4</title>
<path fill="none" stroke="black" d="M1357.75,-178.042C1402.01,-186.527 1445.66,-198.918 1459,-216 1468.85,-228.611 1467.81,-238.647 1459,-252 1449.92,-265.754 1436.46,-275.951 1421.71,-283.507"/>
<polygon fill="black" stroke="black" points="1412.39,-287.879 1419.54,-279.559 1416.92,-285.756 1421.45,-283.633 1421.45,-283.633 1421.45,-283.633 1416.92,-285.756 1423.36,-287.707 1412.39,-287.879 1412.39,-287.879"/>
</g>
<!-- 14&#45;&gt;5 -->
<g id="edge17" class="edge"><title>14&#45;&gt;5</title>
<path fill="none" stroke="black" d="M1136.14,-175.674C1120.33,-177.264 1104.26,-178.764 1089,-180 796.19,-203.722 721.877,-193.118 429,-216 404.849,-217.887 378.774,-220.341 354.571,-222.795"/>
<polygon fill="black" stroke="black" points="344.324,-223.844 353.814,-218.349 349.298,-223.335 354.272,-222.825 354.272,-222.825 354.272,-222.825 349.298,-223.335 354.731,-227.302 344.324,-223.844 344.324,-223.844"/>
</g>
<!-- 15 -->
<g id="node16" class="node"><title>15</title>
<polygon fill="none" stroke="black" points="880,-252 680,-252 680,-216 880,-216 880,-252"/>
<text text-anchor="middle" x="780" y="-230.3" font-family="Times,serif" font-size="14.00">MyCapytain.resources.prototypes</text>
</g>
<!-- 14&#45;&gt;15 -->
<g id="edge18" class="edge"><title>14&#45;&gt;15</title>
<path fill="none" stroke="black" d="M1136.49,-179.134C1068.28,-189.148 978.674,-202.397 890.041,-215.847"/>
<polygon fill="black" stroke="black" points="880.079,-217.361 889.29,-211.41 885.022,-216.61 889.965,-215.859 889.965,-215.859 889.965,-215.859 885.022,-216.61 890.641,-220.308 880.079,-217.361 880.079,-217.361"/>
</g>
<!-- 16 -->
<g id="node17" class="node"><title>16</title>
<polygon fill="none" stroke="black" points="1449.5,-252 1230.5,-252 1230.5,-216 1449.5,-216 1449.5,-252"/>
<text text-anchor="middle" x="1340" y="-230.3" font-family="Times,serif" font-size="14.00">MyCapytain.resources.prototypes.cts</text>
</g>
<!-- 14&#45;&gt;16 -->
<g id="edge19" class="edge"><title>14&#45;&gt;16</title>
<path fill="none" stroke="black" d="M1269.99,-180.303C1281.81,-189.204 1296.39,-200.177 1309.18,-209.801"/>
<polygon fill="black" stroke="black" points="1317.28,-215.896 1306.58,-213.477 1313.28,-212.889 1309.29,-209.882 1309.29,-209.882 1309.29,-209.882 1313.28,-212.889 1311.99,-206.287 1317.28,-215.896 1317.28,-215.896"/>
</g>
<!-- 17 -->
<g id="node18" class="node"><title>17</title>
<polygon fill="none" stroke="black" points="1173.5,-252 898.5,-252 898.5,-216 1173.5,-216 1173.5,-252"/>
<text text-anchor="middle" x="1036" y="-230.3" font-family="Times,serif" font-size="14.00">MyCapytain.resources.prototypes.cts.inventory</text>
</g>
<!-- 14&#45;&gt;17 -->
<g id="edge20" class="edge"><title>14&#45;&gt;17</title>
<path fill="none" stroke="black" d="M1195.65,-180.034C1166.04,-189.858 1128.63,-202.271 1097.46,-212.611"/>
<polygon fill="black" stroke="black" points="1087.58,-215.889 1095.65,-208.469 1092.32,-214.315 1097.07,-212.74 1097.07,-212.74 1097.07,-212.74 1092.32,-214.315 1098.49,-217.011 1087.58,-215.889 1087.58,-215.889"/>
</g>
<!-- 19 -->
<g id="node20" class="node"><title>19</title>
<polygon fill="none" stroke="black" points="662,-252 438,-252 438,-216 662,-216 662,-252"/>
<text text-anchor="middle" x="550" y="-230.3" font-family="Times,serif" font-size="14.00">MyCapytain.resources.prototypes.text</text>
</g>
<!-- 14&#45;&gt;19 -->
<g id="edge21" class="edge"><title>14&#45;&gt;19</title>
<path fill="none" stroke="black" d="M1136.1,-175.233C1120.3,-176.889 1104.24,-178.524 1089,-180 906.665,-197.659 857.981,-195.118 672.151,-215.904"/>
<polygon fill="black" stroke="black" points="662.043,-217.043 671.476,-211.452 667.011,-216.483 671.98,-215.924 671.98,-215.924 671.98,-215.924 667.011,-216.483 672.484,-220.395 662.043,-217.043 662.043,-217.043"/>
</g>
<!-- 17&#45;&gt;2 -->
<g id="edge22" class="edge"><title>17&#45;&gt;2</title>
<path fill="none" stroke="black" d="M1011.8,-252.151C957.9,-290.342 827.946,-382.429 766.82,-425.743"/>
<polygon fill="black" stroke="black" points="758.319,-431.768 763.876,-422.314 762.398,-428.877 766.478,-425.986 766.478,-425.986 766.478,-425.986 762.398,-428.877 769.08,-429.657 758.319,-431.768 758.319,-431.768"/>
</g>
<!-- 17&#45;&gt;3 -->
<g id="edge23" class="edge"><title>17&#45;&gt;3</title>
<path fill="none" stroke="black" d="M994.659,-252.046C946.095,-271.565 862.776,-303.482 789,-324 736.796,-338.519 677.778,-350.694 628.619,-359.699"/>
<polygon fill="black" stroke="black" points="618.605,-361.514 627.642,-355.302 623.525,-360.622 628.445,-359.73 628.445,-359.73 628.445,-359.73 623.525,-360.622 629.247,-364.158 618.605,-361.514 618.605,-361.514"/>
</g>
<!-- 17&#45;&gt;4 -->
<g id="edge24" class="edge"><title>17&#45;&gt;4</title>
<path fill="none" stroke="black" d="M1108.76,-252.034C1152.16,-262.195 1207.4,-275.128 1252.43,-285.67"/>
<polygon fill="black" stroke="black" points="1262.17,-287.95 1251.41,-290.052 1257.3,-286.81 1252.44,-285.67 1252.44,-285.67 1252.44,-285.67 1257.3,-286.81 1253.46,-281.289 1262.17,-287.95 1262.17,-287.95"/>
</g>
<!-- 17&#45;&gt;6 -->
<g id="edge25" class="edge"><title>17&#45;&gt;6</title>
<path fill="none" stroke="black" d="M898.294,-251.004C895.167,-251.342 892.066,-251.674 889,-252 723.823,-269.542 677.695,-245.948 517,-288 392.469,-320.588 256.371,-390.72 191.141,-426.704"/>
<polygon fill="black" stroke="black" points="182.041,-431.757 188.599,-422.968 186.412,-429.329 190.783,-426.902 190.783,-426.902 190.783,-426.902 186.412,-429.329 192.968,-430.836 182.041,-431.757 182.041,-431.757"/>
</g>
<!-- 18 -->
<g id="node19" class="node"><title>18</title>
<polygon fill="none" stroke="black" points="780,-324 526,-324 526,-288 780,-288 780,-324"/>
<text text-anchor="middle" x="653" y="-302.3" font-family="Times,serif" font-size="14.00">MyCapytain.resources.prototypes.metadata</text>
</g>
<!-- 17&#45;&gt;18 -->
<g id="edge26" class="edge"><title>17&#45;&gt;18</title>
<path fill="none" stroke="black" d="M942.797,-252.034C886.387,-262.344 814.364,-275.508 756.232,-286.133"/>
<polygon fill="black" stroke="black" points="746.288,-287.95 755.316,-281.725 751.207,-287.051 756.125,-286.152 756.125,-286.152 756.125,-286.152 751.207,-287.051 756.934,-290.579 746.288,-287.95 746.288,-287.95"/>
</g>
<!-- 18&#45;&gt;2 -->
<g id="edge27" class="edge"><title>18&#45;&gt;2</title>
<path fill="none" stroke="black" d="M662.77,-324.129C676.819,-348.756 702.833,-394.362 719.235,-423.115"/>
<polygon fill="black" stroke="black" points="724.195,-431.811 715.331,-425.354 721.717,-427.468 719.24,-423.125 719.24,-423.125 719.24,-423.125 721.717,-427.468 723.149,-420.895 724.195,-431.811 724.195,-431.811"/>
</g>
<!-- 18&#45;&gt;3 -->
<g id="edge28" class="edge"><title>18&#45;&gt;3</title>
<path fill="none" stroke="black" d="M621.198,-324.124C603.886,-333.446 582.279,-345.081 563.744,-355.061"/>
<polygon fill="black" stroke="black" points="554.924,-359.81 561.595,-351.107 559.326,-357.44 563.729,-355.069 563.729,-355.069 563.729,-355.069 559.326,-357.44 565.862,-359.031 554.924,-359.81 554.924,-359.81"/>
</g>
<!-- 19&#45;&gt;2 -->
<g id="edge29" class="edge"><title>19&#45;&gt;2</title>
<path fill="none" stroke="black" d="M654.696,-252.012C714.78,-262.843 780.072,-276.875 789,-288 821.638,-328.668 783.105,-389.811 756.041,-423.849"/>
<polygon fill="black" stroke="black" points="749.457,-431.89 752.31,-421.302 752.625,-428.022 755.792,-424.153 755.792,-424.153 755.792,-424.153 752.625,-428.022 759.274,-427.004 749.457,-431.89 749.457,-431.89"/>
</g>
<!-- 19&#45;&gt;3 -->
<g id="edge30" class="edge"><title>19&#45;&gt;3</title>
<path fill="none" stroke="black" d="M535.673,-252.434C528.552,-262.238 520.694,-275.077 517,-288 511.227,-308.194 513.255,-331.97 516.438,-349.865"/>
<polygon fill="black" stroke="black" points="518.453,-359.906 512.073,-350.987 517.469,-355.004 516.485,-350.102 516.485,-350.102 516.485,-350.102 517.469,-355.004 520.898,-349.216 518.453,-359.906 518.453,-359.906"/>
</g>
<!-- 19&#45;&gt;4 -->
<g id="edge31" class="edge"><title>19&#45;&gt;4</title>
<path fill="none" stroke="black" d="M662.04,-250.982C665.057,-251.335 668.048,-251.675 671,-252 867.756,-273.654 1098.24,-290.045 1229.4,-298.531"/>
<polygon fill="black" stroke="black" points="1239.44,-299.178 1229.17,-303.026 1234.45,-298.856 1229.46,-298.535 1229.46,-298.535 1229.46,-298.535 1234.45,-298.856 1229.75,-294.044 1239.44,-299.178 1239.44,-299.178"/>
</g>
<!-- 19&#45;&gt;18 -->
<g id="edge32" class="edge"><title>19&#45;&gt;18</title>
<path fill="none" stroke="black" d="M575.197,-252.124C588.414,-261.107 604.792,-272.237 619.107,-281.966"/>
<polygon fill="black" stroke="black" points="627.707,-287.81 616.906,-285.911 623.571,-285 619.436,-282.189 619.436,-282.189 619.436,-282.189 623.571,-285 621.965,-278.467 627.707,-287.81 627.707,-287.81"/>
</g>
<!-- 20 -->
<g id="node21" class="node"><title>20</title>
<polygon fill="none" stroke="black" points="348.5,-180 179.5,-180 179.5,-144 348.5,-144 348.5,-180"/>
<text text-anchor="middle" x="264" y="-158.3" font-family="Times,serif" font-size="14.00">MyCapytain.resources.texts</text>
</g>
<!-- 21 -->
<g id="node22" class="node"><title>21</title>
<polygon fill="none" stroke="black" points="2341.5,-36 2152.5,-36 2152.5,-0 2341.5,-0 2341.5,-36"/>
<text text-anchor="middle" x="2247" y="-14.3" font-family="Times,serif" font-size="14.00">MyCapytain.resources.texts.api</text>
</g>
<!-- 22&#45;&gt;2 -->
<g id="edge33" class="edge"><title>22&#45;&gt;2</title>
<path fill="none" stroke="black" d="M1083.08,-95.6495C1194.58,-102 1363.31,-115.961 1421,-144 1472.89,-169.216 1503.29,-195.237 1493,-252 1486.9,-285.628 1489.44,-299.126 1466,-324 1411.97,-381.345 1380.23,-376.09 1304,-396 1145.9,-437.292 955.769,-447.406 839.96,-449.358"/>
<polygon fill="black" stroke="black" points="829.681,-449.513 839.612,-444.863 834.68,-449.438 839.68,-449.362 839.68,-449.362 839.68,-449.362 834.68,-449.438 839.747,-453.862 829.681,-449.513 829.681,-449.513"/>
</g>
<!-- 22&#45;&gt;3 -->
<g id="edge34" class="edge"><title>22&#45;&gt;3</title>
<path fill="none" stroke="black" d="M882.562,-108.041C841.113,-116.71 792.523,-128.692 750,-144 716.338,-156.118 712.141,-169.304 678,-180 624.649,-196.715 465.596,-173.733 429,-216 391.242,-259.61 451.615,-320.53 491.786,-353.523"/>
<polygon fill="black" stroke="black" points="499.762,-359.929 489.147,-357.175 495.864,-356.798 491.965,-353.667 491.965,-353.667 491.965,-353.667 495.864,-356.798 494.783,-350.158 499.762,-359.929 499.762,-359.929"/>
</g>
<!-- 22&#45;&gt;4 -->
<g id="edge35" class="edge"><title>22&#45;&gt;4</title>
<path fill="none" stroke="black" d="M1083.37,-92.7217C1163.28,-96.9867 1275.05,-109.415 1367,-144 1421.34,-164.44 1448.5,-164.869 1476,-216 1483.58,-230.091 1485.11,-238.846 1476,-252 1466.36,-265.929 1452.56,-276.202 1437.34,-283.778"/>
<polygon fill="black" stroke="black" points="1428.23,-287.934 1435.46,-279.689 1432.78,-285.859 1437.33,-283.783 1437.33,-283.783 1437.33,-283.783 1432.78,-285.859 1439.19,-287.877 1428.23,-287.934 1428.23,-287.934"/>
</g>
<!-- 22&#45;&gt;5 -->
<g id="edge36" class="edge"><title>22&#45;&gt;5</title>
<path fill="none" stroke="black" d="M874.883,-97.7757C727.814,-107.853 472.635,-127.387 433,-144 410.013,-153.635 411.316,-167.083 390,-180 369.036,-192.704 344.476,-203.693 322.507,-212.319"/>
<polygon fill="black" stroke="black" points="312.944,-215.991 320.666,-208.205 317.612,-214.198 322.279,-212.406 322.279,-212.406 322.279,-212.406 317.612,-214.198 323.892,-216.607 312.944,-215.991 312.944,-215.991"/>
</g>
<!-- 22&#45;&gt;6 -->
<g id="edge37" class="edge"><title>22&#45;&gt;6</title>
<path fill="none" stroke="black" d="M874.839,-96.2855C717.315,-104.893 432.276,-123.091 390,-144 370.544,-153.622 375.943,-169.404 357,-180 283.515,-221.106 227.182,-153.283 171,-216 119.641,-273.333 133.952,-373.599 144.819,-421.717"/>
<polygon fill="black" stroke="black" points="147.195,-431.698 140.501,-423.013 146.037,-426.834 144.879,-421.97 144.879,-421.97 144.879,-421.97 146.037,-426.834 149.257,-420.928 147.195,-431.698 147.195,-431.698"/>
</g>
<!-- 22&#45;&gt;13 -->
<g id="edge38" class="edge"><title>22&#45;&gt;13</title>
<path fill="none" stroke="black" d="M979,-108.303C979,-116.017 979,-125.288 979,-133.888"/>
<polygon fill="black" stroke="black" points="979,-143.896 974.5,-133.896 979,-138.896 979,-133.896 979,-133.896 979,-133.896 979,-138.896 983.5,-133.896 979,-143.896 979,-143.896"/>
</g>
<!-- 22&#45;&gt;14 -->
<g id="edge39" class="edge"><title>22&#45;&gt;14</title>
<path fill="none" stroke="black" d="M1044.22,-108.034C1082.72,-118.091 1131.62,-130.864 1171.75,-141.346"/>
<polygon fill="black" stroke="black" points="1181.49,-143.889 1170.68,-145.716 1176.65,-142.626 1171.81,-141.362 1171.81,-141.362 1171.81,-141.362 1176.65,-142.626 1172.95,-137.008 1181.49,-143.889 1181.49,-143.889"/>
</g>
<!-- 22&#45;&gt;15 -->
<g id="edge40" class="edge"><title>22&#45;&gt;15</title>
<path fill="none" stroke="black" d="M1043.82,-108.053C1061.5,-115.996 1078.63,-127.486 1089,-144 1097.51,-157.548 1099.31,-167.767 1089,-180 1085.67,-183.951 977.506,-201.872 890.085,-215.795"/>
<polygon fill="black" stroke="black" points="880.078,-217.385 889.247,-211.371 885.016,-216.6 889.954,-215.815 889.954,-215.815 889.954,-215.815 885.016,-216.6 890.66,-220.26 880.078,-217.385 880.078,-217.385"/>
</g>
<!-- 22&#45;&gt;19 -->
<g id="edge41" class="edge"><title>22&#45;&gt;19</title>
<path fill="none" stroke="black" d="M938.954,-108.135C893.626,-127.16 817.325,-158.072 750,-180 711.756,-192.456 668.705,-204.155 632.368,-213.377"/>
<polygon fill="black" stroke="black" points="622.307,-215.911 630.905,-209.105 627.156,-214.689 632.004,-213.468 632.004,-213.468 632.004,-213.468 627.156,-214.689 633.103,-217.832 622.307,-215.911 622.307,-215.911"/>
</g>
<!-- 23 -->
<g id="node24" class="node"><title>23</title>
<polygon fill="none" stroke="black" points="669.5,-180 442.5,-180 442.5,-144 669.5,-144 669.5,-180"/>
<text text-anchor="middle" x="556" y="-158.3" font-family="Times,serif" font-size="14.00">MyCapytain.resources.texts.encodings</text>
</g>
<!-- 22&#45;&gt;23 -->
<g id="edge42" class="edge"><title>22&#45;&gt;23</title>
<path fill="none" stroke="black" d="M876.063,-108.034C813.504,-118.387 733.559,-131.617 669.218,-142.264"/>
<polygon fill="black" stroke="black" points="659.031,-143.95 668.162,-137.878 663.964,-143.134 668.897,-142.317 668.897,-142.317 668.897,-142.317 663.964,-143.134 669.632,-146.757 659.031,-143.95 659.031,-143.95"/>
</g>
<!-- 23&#45;&gt;2 -->
<g id="edge43" class="edge"><title>23&#45;&gt;2</title>
<path fill="none" stroke="black" d="M443.933,-180.151C425.141,-188.071 407.907,-199.513 396,-216 348.814,-281.338 357.419,-342.844 418,-396 448.825,-423.048 548.967,-436.52 628.353,-443.083"/>
<polygon fill="black" stroke="black" points="638.418,-443.887 628.092,-447.576 633.434,-443.489 628.45,-443.09 628.45,-443.09 628.45,-443.09 633.434,-443.489 628.809,-438.605 638.418,-443.887 638.418,-443.887"/>
</g>
<!-- 23&#45;&gt;5 -->
<g id="edge44" class="edge"><title>23&#45;&gt;5</title>
<path fill="none" stroke="black" d="M484.455,-180.034C441.869,-190.174 387.691,-203.073 343.465,-213.604"/>
<polygon fill="black" stroke="black" points="333.61,-215.95 342.296,-209.256 338.474,-214.792 343.338,-213.634 343.338,-213.634 343.338,-213.634 338.474,-214.792 344.381,-218.011 333.61,-215.95 333.61,-215.95"/>
</g>
<!-- 23&#45;&gt;19 -->
<g id="edge45" class="edge"><title>23&#45;&gt;19</title>
<path fill="none" stroke="black" d="M554.517,-180.303C553.856,-188.017 553.061,-197.288 552.324,-205.888"/>
<polygon fill="black" stroke="black" points="551.466,-215.896 547.837,-205.548 551.893,-210.914 552.32,-205.932 552.32,-205.932 552.32,-205.932 551.893,-210.914 556.804,-206.317 551.466,-215.896 551.466,-215.896"/>
</g>
<!-- 24 -->
<g id="node25" class="node"><title>24</title>
<polygon fill="none" stroke="black" points="2564,-36 2360,-36 2360,-0 2564,-0 2564,-36"/>
<text text-anchor="middle" x="2462" y="-14.3" font-family="Times,serif" font-size="14.00">MyCapytain.resources.texts.locals</text>
</g>
<!-- 25&#45;&gt;2 -->
<g id="edge46" class="edge"><title>25&#45;&gt;2</title>
<path fill="none" stroke="black" d="M445.318,-98.421C334.783,-106.986 178.657,-122.68 160,-144 146.561,-159.358 160.893,-232.281 171,-252 212.718,-333.388 235.684,-356.145 318,-396 371.086,-421.703 523.612,-436.101 628.441,-443.208"/>
<polygon fill="black" stroke="black" points="638.432,-443.873 628.155,-447.699 633.443,-443.541 628.454,-443.209 628.454,-443.209 628.454,-443.209 633.443,-443.541 628.753,-438.719 638.432,-443.873 638.432,-443.873"/>
</g>
<!-- 25&#45;&gt;4 -->
<g id="edge47" class="edge"><title>25&#45;&gt;4</title>
<path fill="none" stroke="black" d="M611.729,-108.031C687.622,-131.017 819.679,-170.228 869,-180 1006.79,-207.3 1055.31,-157.47 1183,-216 1204.44,-225.829 1202.43,-238.837 1222,-252 1240.31,-264.313 1261.94,-275.217 1281.34,-283.884"/>
<polygon fill="black" stroke="black" points="1290.66,-287.956 1279.7,-288.078 1286.08,-285.955 1281.5,-283.954 1281.5,-283.954 1281.5,-283.954 1286.08,-285.955 1283.3,-279.83 1290.66,-287.956 1290.66,-287.956"/>
</g>
<!-- 25&#45;&gt;5 -->
<g id="edge48" class="edge"><title>25&#45;&gt;5</title>
<path fill="none" stroke="black" d="M445.05,-90.6482C343.926,-92.9762 205.122,-103.726 170,-144 159.484,-156.059 161.993,-166.147 170,-180 177.57,-193.096 189.74,-203.243 202.783,-210.984"/>
<polygon fill="black" stroke="black" points="211.907,-215.967 200.974,-215.123 207.519,-213.57 203.13,-211.174 203.13,-211.174 203.13,-211.174 207.519,-213.57 205.287,-207.224 211.907,-215.967 211.907,-215.967"/>
</g>
<!-- 25&#45;&gt;6 -->
<g id="edge49" class="edge"><title>25&#45;&gt;6</title>
<path fill="none" stroke="black" d="M445.123,-98.874C343.902,-107.258 202.465,-122.324 151,-144 92.0835,-168.815 38,-169.071 38,-233 38,-233 38,-233 38,-307 38,-358.003 83.2736,-401.116 116.759,-426.029"/>
<polygon fill="black" stroke="black" points="124.984,-431.964 114.241,-429.761 120.929,-429.038 116.875,-426.112 116.875,-426.112 116.875,-426.112 120.929,-429.038 119.508,-422.463 124.984,-431.964 124.984,-431.964"/>
</g>
<!-- 25&#45;&gt;15 -->
<g id="edge50" class="edge"><title>25&#45;&gt;15</title>
<path fill="none" stroke="black" d="M618.857,-108.047C644.082,-116.563 672.647,-128.428 696,-144 721.985,-161.327 745.825,-188.101 761.416,-207.759"/>
<polygon fill="black" stroke="black" points="767.574,-215.7 757.89,-210.556 764.51,-211.749 761.446,-207.798 761.446,-207.798 761.446,-207.798 764.51,-211.749 765.002,-205.04 767.574,-215.7 767.574,-215.7"/>
</g>
<!-- 25&#45;&gt;19 -->
<g id="edge51" class="edge"><title>25&#45;&gt;19</title>
<path fill="none" stroke="black" d="M631.537,-108.105C649.766,-115.963 667.108,-127.393 678,-144 686.775,-157.379 686.89,-166.697 678,-180 668.759,-193.828 655.172,-204.053 640.26,-211.612"/>
<polygon fill="black" stroke="black" points="630.831,-215.982 638.011,-207.694 635.367,-213.88 639.903,-211.777 639.903,-211.777 639.903,-211.777 635.367,-213.88 641.796,-215.86 630.831,-215.982 630.831,-215.982"/>
</g>
<!-- 25&#45;&gt;20 -->
<g id="edge52" class="edge"><title>25&#45;&gt;20</title>
<path fill="none" stroke="black" d="M484.942,-108.034C442.646,-118.174 388.836,-131.073 344.911,-141.604"/>
<polygon fill="black" stroke="black" points="335.123,-143.95 343.798,-137.243 339.985,-142.784 344.848,-141.619 344.848,-141.619 344.848,-141.619 339.985,-142.784 345.897,-145.995 335.123,-143.95 335.123,-143.95"/>
</g>
<!-- 25&#45;&gt;23 -->
<g id="edge53" class="edge"><title>25&#45;&gt;23</title>
<path fill="none" stroke="black" d="M556,-108.303C556,-116.017 556,-125.288 556,-133.888"/>
<polygon fill="black" stroke="black" points="556,-143.896 551.5,-133.896 556,-138.896 556,-133.896 556,-133.896 556,-133.896 556,-138.896 560.5,-133.896 556,-143.896 556,-143.896"/>
</g>
<!-- 26 -->
<g id="node27" class="node"><title>26</title>
<polygon fill="none" stroke="black" points="2722,-36 2582,-36 2582,-0 2722,-0 2722,-36"/>
<text text-anchor="middle" x="2652" y="-14.3" font-family="Times,serif" font-size="14.00">MyCapytain.retrievers</text>
</g>
<!-- 27&#45;&gt;4 -->
<g id="edge54" class="edge"><title>27&#45;&gt;4</title>
<path fill="none" stroke="black" d="M1716.67,-108.277C1683.02,-145.803 1602.93,-232.922 1568,-252 1529.07,-273.263 1482.01,-286.01 1440.41,-293.646"/>
<polygon fill="black" stroke="black" points="1430.51,-295.385 1439.58,-289.222 1435.44,-294.519 1440.36,-293.654 1440.36,-293.654 1440.36,-293.654 1435.44,-294.519 1441.14,-298.086 1430.51,-295.385 1430.51,-295.385"/>
</g>
<!-- 28 -->
<g id="node29" class="node"><title>28</title>
<polygon fill="none" stroke="black" points="1896,-180 1696,-180 1696,-144 1896,-144 1896,-180"/>
<text text-anchor="middle" x="1796" y="-158.3" font-family="Times,serif" font-size="14.00">MyCapytain.retrievers.prototypes</text>
</g>
<!-- 27&#45;&gt;28 -->
<g id="edge55" class="edge"><title>27&#45;&gt;28</title>
<path fill="none" stroke="black" d="M1747.82,-108.303C1755.57,-116.78 1765.04,-127.136 1773.52,-136.417"/>
<polygon fill="black" stroke="black" points="1780.36,-143.896 1770.29,-139.552 1776.99,-140.206 1773.61,-136.515 1773.61,-136.515 1773.61,-136.515 1776.99,-140.206 1776.94,-133.479 1780.36,-143.896 1780.36,-143.896"/>
</g>
</g>
</svg>
