<?xml version="1.0" encoding="UTF-8" standalone="no"?>
<!DOCTYPE svg PUBLIC "-//W3C//DTD SVG 1.1//EN"
 "http://www.w3.org/Graphics/SVG/1.1/DTD/svg11.dtd">
<!-- Generated by graphviz version 2.38.0 (20140413.2041)
 -->
<!-- Title: packages_MyCapytain Pages: 1 -->
<svg width="2205pt" height="476pt"
 viewBox="0.00 0.00 2205.02 476.00" xmlns="http://www.w3.org/2000/svg" xmlns:xlink="http://www.w3.org/1999/xlink">
<g id="graph0" class="graph" transform="scale(1 1) rotate(0) translate(4 472)">
<title>packages_MyCapytain</title>
<polygon fill="white" stroke="none" points="-4,4 -4,-472 2201.02,-472 2201.02,4 -4,4"/>
<!-- 0 -->
<g id="node1" class="node"><title>0</title>
<polygon fill="none" stroke="black" points="771.516,-36 686.516,-36 686.516,-0 771.516,-0 771.516,-36"/>
<text text-anchor="middle" x="729.016" y="-14.3" font-family="Times,serif" font-size="14.00">MyCapytain</text>
</g>
<!-- 1 -->
<g id="node2" class="node"><title>1</title>
<polygon fill="none" stroke="black" points="926.516,-36 789.516,-36 789.516,-0 926.516,-0 926.516,-36"/>
<text text-anchor="middle" x="858.016" y="-14.3" font-family="Times,serif" font-size="14.00">MyCapytain.common</text>
</g>
<!-- 2 -->
<g id="node3" class="node"><title>2</title>
<polygon fill="none" stroke="black" points="483.516,-396 292.516,-396 292.516,-360 483.516,-360 483.516,-396"/>
<text text-anchor="middle" x="388.016" y="-374.3" font-family="Times,serif" font-size="14.00">MyCapytain.common.metadata</text>
</g>
<!-- 4 -->
<g id="node5" class="node"><title>4</title>
<polygon fill="none" stroke="black" points="470.016,-468 306.016,-468 306.016,-432 470.016,-432 470.016,-468"/>
<text text-anchor="middle" x="388.016" y="-446.3" font-family="Times,serif" font-size="14.00">MyCapytain.common.utils</text>
</g>
<!-- 2&#45;&gt;4 -->
<g id="edge1" class="edge"><title>2&#45;&gt;4</title>
<path fill="none" stroke="black" d="M388.016,-396.303C388.016,-404.017 388.016,-413.288 388.016,-421.888"/>
<polygon fill="black" stroke="black" points="388.016,-431.896 383.516,-421.896 388.016,-426.896 388.016,-421.896 388.016,-421.896 388.016,-421.896 388.016,-426.896 392.516,-421.896 388.016,-431.896 388.016,-431.896"/>
</g>
<!-- 3 -->
<g id="node4" class="node"><title>3</title>
<polygon fill="none" stroke="black" points="869.516,-324 678.516,-324 678.516,-288 869.516,-288 869.516,-324"/>
<text text-anchor="middle" x="774.016" y="-302.3" font-family="Times,serif" font-size="14.00">MyCapytain.common.reference</text>
</g>
<!-- 3&#45;&gt;4 -->
<g id="edge2" class="edge"><title>3&#45;&gt;4</title>
<path fill="none" stroke="black" d="M727.455,-324.129C656.211,-350.337 520.383,-400.305 443.917,-428.435"/>
<polygon fill="black" stroke="black" points="434.441,-431.921 442.272,-424.245 439.134,-430.195 443.826,-428.469 443.826,-428.469 443.826,-428.469 439.134,-430.195 445.38,-432.692 434.441,-431.921 434.441,-431.921"/>
</g>
<!-- 5 -->
<g id="node6" class="node"><title>5</title>
<polygon fill="none" stroke="black" points="660.016,-324 540.016,-324 540.016,-288 660.016,-288 660.016,-324"/>
<text text-anchor="middle" x="600.016" y="-302.3" font-family="Times,serif" font-size="14.00">MyCapytain.errors</text>
</g>
<!-- 6 -->
<g id="node7" class="node"><title>6</title>
<polygon fill="none" stroke="black" points="1276.52,-36 1139.52,-36 1139.52,-0 1276.52,-0 1276.52,-36"/>
<text text-anchor="middle" x="1208.02" y="-14.3" font-family="Times,serif" font-size="14.00">MyCapytain.resolvers</text>
</g>
<!-- 7 -->
<g id="node8" class="node"><title>7</title>
<polygon fill="none" stroke="black" points="1451.02,-36 1295.02,-36 1295.02,-0 1451.02,-0 1451.02,-36"/>
<text text-anchor="middle" x="1373.02" y="-14.3" font-family="Times,serif" font-size="14.00">MyCapytain.resolvers.cts</text>
</g>
<!-- 8 -->
<g id="node9" class="node"><title>8</title>
<polygon fill="none" stroke="black" points="1121.02,-36 945.016,-36 945.016,-0 1121.02,-0 1121.02,-36"/>
<text text-anchor="middle" x="1033.02" y="-14.3" font-family="Times,serif" font-size="14.00">MyCapytain.resolvers.cts.api</text>
</g>
<!-- 9 -->
<g id="node10" class="node"><title>9</title>
<polygon fill="none" stroke="black" points="1021.02,-108 823.016,-108 823.016,-72 1021.02,-72 1021.02,-108"/>
<text text-anchor="middle" x="922.016" y="-86.3" font-family="Times,serif" font-size="14.00">MyCapytain.resolvers.prototypes</text>
</g>
<!-- 8&#45;&gt;9 -->
<g id="edge3" class="edge"><title>8&#45;&gt;9</title>
<path fill="none" stroke="black" d="M1005.86,-36.1239C991.484,-45.1917 973.635,-56.4477 958.106,-66.2408"/>
<polygon fill="black" stroke="black" points="949.274,-71.8102 955.332,-62.6697 953.503,-69.1431 957.733,-66.476 957.733,-66.476 957.733,-66.476 953.503,-69.1431 960.133,-70.2823 949.274,-71.8102 949.274,-71.8102"/>
</g>
<!-- 12 -->
<g id="node13" class="node"><title>12</title>
<polygon fill="none" stroke="black" points="907.516,-180 686.516,-180 686.516,-144 907.516,-144 907.516,-180"/>
<text text-anchor="middle" x="797.016" y="-158.3" font-family="Times,serif" font-size="14.00">MyCapytain.resources.collections.cts</text>
</g>
<!-- 8&#45;&gt;12 -->
<g id="edge4" class="edge"><title>8&#45;&gt;12</title>
<path fill="none" stroke="black" d="M944.989,-35.616C888.301,-47.1111 823.476,-62.0681 814.016,-72 798.546,-88.2427 795.035,-114.004 794.961,-133.64"/>
<polygon fill="black" stroke="black" points="795.219,-143.82 790.467,-133.937 795.092,-138.821 794.965,-133.823 794.965,-133.823 794.965,-133.823 795.092,-138.821 799.464,-133.709 795.219,-143.82 795.219,-143.82"/>
</g>
<!-- 20 -->
<g id="node21" class="node"><title>20</title>
<polygon fill="none" stroke="black" points="1247.02,-108 1039.02,-108 1039.02,-72 1247.02,-72 1247.02,-108"/>
<text text-anchor="middle" x="1143.02" y="-86.3" font-family="Times,serif" font-size="14.00">MyCapytain.resources.texts.api.cts</text>
</g>
<!-- 8&#45;&gt;20 -->
<g id="edge5" class="edge"><title>8&#45;&gt;20</title>
<path fill="none" stroke="black" d="M1059.93,-36.1239C1074.17,-45.1917 1091.86,-56.4477 1107.25,-66.2408"/>
<polygon fill="black" stroke="black" points="1116,-71.8102 1105.15,-70.2379 1111.79,-69.1258 1107.57,-66.4414 1107.57,-66.4414 1107.57,-66.4414 1111.79,-69.1258 1109.98,-62.645 1116,-71.8102 1116,-71.8102"/>
</g>
<!-- 25 -->
<g id="node26" class="node"><title>25</title>
<polygon fill="none" stroke="black" points="1556.52,-108 1391.52,-108 1391.52,-72 1556.52,-72 1556.52,-108"/>
<text text-anchor="middle" x="1474.02" y="-86.3" font-family="Times,serif" font-size="14.00">MyCapytain.retrievers.cts5</text>
</g>
<!-- 8&#45;&gt;25 -->
<g id="edge6" class="edge"><title>8&#45;&gt;25</title>
<path fill="none" stroke="black" d="M1121.15,-34.3679C1124.48,-34.9233 1127.78,-35.4691 1131.02,-36 1215.74,-49.8936 1312.42,-64.7408 1381.49,-75.1755"/>
<polygon fill="black" stroke="black" points="1391.47,-76.6824 1380.91,-79.6398 1386.53,-75.9363 1381.59,-75.1902 1381.59,-75.1902 1381.59,-75.1902 1386.53,-75.9363 1382.26,-70.7405 1391.47,-76.6824 1391.47,-76.6824"/>
</g>
<!-- 10 -->
<g id="node11" class="node"><title>10</title>
<polygon fill="none" stroke="black" points="1609.02,-36 1469.02,-36 1469.02,-0 1609.02,-0 1609.02,-36"/>
<text text-anchor="middle" x="1539.02" y="-14.3" font-family="Times,serif" font-size="14.00">MyCapytain.resources</text>
</g>
<!-- 11 -->
<g id="node12" class="node"><title>11</title>
<polygon fill="none" stroke="black" points="1242.02,-180 1040.02,-180 1040.02,-144 1242.02,-144 1242.02,-180"/>
<text text-anchor="middle" x="1141.02" y="-158.3" font-family="Times,serif" font-size="14.00">MyCapytain.resources.collections</text>
</g>
<!-- 12&#45;&gt;3 -->
<g id="edge7" class="edge"><title>12&#45;&gt;3</title>
<path fill="none" stroke="black" d="M754.398,-180.011C739.142,-188.42 723.607,-200.219 715.016,-216 707.366,-230.053 708.5,-237.387 715.016,-252 720.098,-263.396 728.976,-273.366 738.325,-281.491"/>
<polygon fill="black" stroke="black" points="746.216,-287.872 735.611,-285.083 742.328,-284.728 738.44,-281.584 738.44,-281.584 738.44,-281.584 742.328,-284.728 741.27,-278.085 746.216,-287.872 746.216,-287.872"/>
</g>
<!-- 12&#45;&gt;4 -->
<g id="edge8" class="edge"><title>12&#45;&gt;4</title>
<path fill="none" stroke="black" d="M904.069,-180.13C922.879,-188.022 940.19,-199.458 952.016,-216 961.321,-229.016 958.24,-237.26 952.016,-252 885.623,-409.233 761.397,-353.817 596.016,-396 552.575,-407.08 504.028,-419.451 464.768,-429.452"/>
<polygon fill="black" stroke="black" points="454.995,-431.942 463.575,-425.113 459.84,-430.708 464.686,-429.473 464.686,-429.473 464.686,-429.473 459.84,-430.708 465.796,-433.834 454.995,-431.942 454.995,-431.942"/>
</g>
<!-- 13 -->
<g id="node14" class="node"><title>13</title>
<polygon fill="none" stroke="black" points="1200.02,-252 1000.02,-252 1000.02,-216 1200.02,-216 1200.02,-252"/>
<text text-anchor="middle" x="1100.02" y="-230.3" font-family="Times,serif" font-size="14.00">MyCapytain.resources.prototypes</text>
</g>
<!-- 12&#45;&gt;13 -->
<g id="edge9" class="edge"><title>12&#45;&gt;13</title>
<path fill="none" stroke="black" d="M870.751,-180.034C914.733,-190.195 970.712,-203.128 1016.34,-213.67"/>
<polygon fill="black" stroke="black" points="1026.21,-215.95 1015.46,-218.083 1021.34,-214.824 1016.47,-213.699 1016.47,-213.699 1016.47,-213.699 1021.34,-214.824 1017.48,-209.314 1026.21,-215.95 1026.21,-215.95"/>
</g>
<!-- 14 -->
<g id="node15" class="node"><title>14</title>
<polygon fill="none" stroke="black" points="943.516,-252 724.516,-252 724.516,-216 943.516,-216 943.516,-252"/>
<text text-anchor="middle" x="834.016" y="-230.3" font-family="Times,serif" font-size="14.00">MyCapytain.resources.prototypes.cts</text>
</g>
<!-- 12&#45;&gt;14 -->
<g id="edge10" class="edge"><title>12&#45;&gt;14</title>
<path fill="none" stroke="black" d="M806.162,-180.303C810.419,-188.356 815.572,-198.106 820.282,-207.018"/>
<polygon fill="black" stroke="black" points="824.975,-215.896 816.324,-209.158 822.639,-211.475 820.302,-207.055 820.302,-207.055 820.302,-207.055 822.639,-211.475 824.28,-204.952 824.975,-215.896 824.975,-215.896"/>
</g>
<!-- 15 -->
<g id="node16" class="node"><title>15</title>
<polygon fill="none" stroke="black" points="591.516,-252 316.516,-252 316.516,-216 591.516,-216 591.516,-252"/>
<text text-anchor="middle" x="454.016" y="-230.3" font-family="Times,serif" font-size="14.00">MyCapytain.resources.prototypes.cts.inventory</text>
</g>
<!-- 12&#45;&gt;15 -->
<g id="edge11" class="edge"><title>12&#45;&gt;15</title>
<path fill="none" stroke="black" d="M713.547,-180.034C663.342,-190.28 599.327,-203.345 547.436,-213.935"/>
<polygon fill="black" stroke="black" points="537.561,-215.95 546.459,-209.541 542.46,-214.95 547.359,-213.95 547.359,-213.95 547.359,-213.95 542.46,-214.95 548.259,-218.359 537.561,-215.95 537.561,-215.95"/>
</g>
<!-- 17 -->
<g id="node18" class="node"><title>17</title>
<polygon fill="none" stroke="black" points="298.016,-252 74.016,-252 74.016,-216 298.016,-216 298.016,-252"/>
<text text-anchor="middle" x="186.016" y="-230.3" font-family="Times,serif" font-size="14.00">MyCapytain.resources.prototypes.text</text>
</g>
<!-- 12&#45;&gt;17 -->
<g id="edge12" class="edge"><title>12&#45;&gt;17</title>
<path fill="none" stroke="black" d="M686.46,-173.943C589.498,-183.777 444.435,-199.057 308.274,-215.864"/>
<polygon fill="black" stroke="black" points="298.069,-217.129 307.44,-211.433 303.031,-216.514 307.993,-215.899 307.993,-215.899 307.993,-215.899 303.031,-216.514 308.547,-220.365 298.069,-217.129 298.069,-217.129"/>
</g>
<!-- 15&#45;&gt;2 -->
<g id="edge13" class="edge"><title>15&#45;&gt;2</title>
<path fill="none" stroke="black" d="M458.516,-252.043C462.498,-270.712 466.124,-301.05 455.016,-324 449.255,-335.903 439.379,-345.944 428.954,-353.976"/>
<polygon fill="black" stroke="black" points="420.543,-359.984 426.065,-350.51 424.612,-357.078 428.68,-354.172 428.68,-354.172 428.68,-354.172 424.612,-357.078 431.296,-357.833 420.543,-359.984 420.543,-359.984"/>
</g>
<!-- 15&#45;&gt;3 -->
<g id="edge14" class="edge"><title>15&#45;&gt;3</title>
<path fill="none" stroke="black" d="M531.888,-252.034C578.532,-262.238 637.953,-275.236 686.256,-285.802"/>
<polygon fill="black" stroke="black" points="696.073,-287.95 685.342,-290.209 691.188,-286.881 686.304,-285.813 686.304,-285.813 686.304,-285.813 691.188,-286.881 687.266,-281.417 696.073,-287.95 696.073,-287.95"/>
</g>
<!-- 15&#45;&gt;4 -->
<g id="edge15" class="edge"><title>15&#45;&gt;4</title>
<path fill="none" stroke="black" d="M465.976,-252.308C485.784,-283.324 520.525,-349.473 492.016,-396 483.765,-409.466 470.9,-419.644 456.995,-427.289"/>
<polygon fill="black" stroke="black" points="447.745,-431.957 454.646,-423.434 452.209,-429.704 456.673,-427.452 456.673,-427.452 456.673,-427.452 452.209,-429.704 458.7,-431.469 447.745,-431.957 447.745,-431.957"/>
</g>
<!-- 15&#45;&gt;5 -->
<g id="edge16" class="edge"><title>15&#45;&gt;5</title>
<path fill="none" stroke="black" d="M489.732,-252.124C509.513,-261.608 534.288,-273.487 555.342,-283.581"/>
<polygon fill="black" stroke="black" points="564.416,-287.932 553.454,-287.666 559.908,-285.77 555.399,-283.608 555.399,-283.608 555.399,-283.608 559.908,-285.77 557.345,-279.551 564.416,-287.932 564.416,-287.932"/>
</g>
<!-- 16 -->
<g id="node17" class="node"><title>16</title>
<polygon fill="none" stroke="black" points="446.016,-324 192.016,-324 192.016,-288 446.016,-288 446.016,-324"/>
<text text-anchor="middle" x="319.016" y="-302.3" font-family="Times,serif" font-size="14.00">MyCapytain.resources.prototypes.metadata</text>
</g>
<!-- 15&#45;&gt;16 -->
<g id="edge17" class="edge"><title>15&#45;&gt;16</title>
<path fill="none" stroke="black" d="M420.991,-252.124C402.931,-261.488 380.371,-273.186 361.065,-283.197"/>
<polygon fill="black" stroke="black" points="352.168,-287.81 358.974,-279.212 356.606,-285.509 361.045,-283.207 361.045,-283.207 361.045,-283.207 356.606,-285.509 363.117,-287.202 352.168,-287.81 352.168,-287.81"/>
</g>
<!-- 16&#45;&gt;2 -->
<g id="edge18" class="edge"><title>16&#45;&gt;2</title>
<path fill="none" stroke="black" d="M336.072,-324.303C344.511,-332.865 354.841,-343.344 364.059,-352.696"/>
<polygon fill="black" stroke="black" points="371.156,-359.896 360.931,-355.933 367.646,-356.335 364.136,-352.774 364.136,-352.774 364.136,-352.774 367.646,-356.335 367.341,-349.615 371.156,-359.896 371.156,-359.896"/>
</g>
<!-- 16&#45;&gt;4 -->
<g id="edge19" class="edge"><title>16&#45;&gt;4</title>
<path fill="none" stroke="black" d="M302.859,-324.202C287.493,-342.742 268.689,-372.72 283.016,-396 291.312,-409.481 304.212,-419.657 318.167,-427.294"/>
<polygon fill="black" stroke="black" points="327.451,-431.956 316.495,-431.491 322.983,-429.712 318.514,-427.469 318.514,-427.469 318.514,-427.469 322.983,-429.712 320.533,-423.447 327.451,-431.956 327.451,-431.956"/>
</g>
<!-- 17&#45;&gt;2 -->
<g id="edge20" class="edge"><title>17&#45;&gt;2</title>
<path fill="none" stroke="black" d="M179.559,-252.04C173.375,-271.552 167.114,-303.464 183.016,-324 196.041,-340.821 239.195,-353.266 282.571,-361.853"/>
<polygon fill="black" stroke="black" points="292.403,-363.735 281.735,-366.275 287.492,-362.795 282.582,-361.855 282.582,-361.855 282.582,-361.855 287.492,-362.795 283.428,-357.435 292.403,-363.735 292.403,-363.735"/>
</g>
<!-- 17&#45;&gt;3 -->
<g id="edge21" class="edge"><title>17&#45;&gt;3</title>
<path fill="none" stroke="black" d="M298.065,-250.905C301.079,-251.281 304.067,-251.646 307.016,-252 464.256,-270.857 506.956,-267.231 668.197,-287.944"/>
<polygon fill="black" stroke="black" points="678.483,-289.278 667.988,-292.455 673.525,-288.635 668.566,-287.992 668.566,-287.992 668.566,-287.992 673.525,-288.635 669.145,-283.529 678.483,-289.278 678.483,-289.278"/>
</g>
<!-- 17&#45;&gt;4 -->
<g id="edge22" class="edge"><title>17&#45;&gt;4</title>
<path fill="none" stroke="black" d="M176.513,-252.037C167.478,-270.702 156.918,-301.036 169.016,-324 197.578,-378.217 260.382,-410.516 311.442,-428.656"/>
<polygon fill="black" stroke="black" points="321.155,-431.989 310.236,-433 316.426,-430.366 311.697,-428.743 311.697,-428.743 311.697,-428.743 316.426,-430.366 313.157,-424.487 321.155,-431.989 321.155,-431.989"/>
</g>
<!-- 17&#45;&gt;16 -->
<g id="edge23" class="edge"><title>17&#45;&gt;16</title>
<path fill="none" stroke="black" d="M218.551,-252.124C236.263,-261.446 258.369,-273.081 277.332,-283.061"/>
<polygon fill="black" stroke="black" points="286.355,-287.81 275.41,-287.135 281.931,-285.481 277.506,-283.153 277.506,-283.153 277.506,-283.153 281.931,-285.481 279.602,-279.171 286.355,-287.81 286.355,-287.81"/>
</g>
<!-- 18 -->
<g id="node19" class="node"><title>18</title>
<polygon fill="none" stroke="black" points="308.516,-180 139.516,-180 139.516,-144 308.516,-144 308.516,-180"/>
<text text-anchor="middle" x="224.016" y="-158.3" font-family="Times,serif" font-size="14.00">MyCapytain.resources.texts</text>
</g>
<!-- 19 -->
<g id="node20" class="node"><title>19</title>
<polygon fill="none" stroke="black" points="1816.52,-36 1627.52,-36 1627.52,-0 1816.52,-0 1816.52,-36"/>
<text text-anchor="middle" x="1722.02" y="-14.3" font-family="Times,serif" font-size="14.00">MyCapytain.resources.texts.api</text>
</g>
<!-- 20&#45;&gt;2 -->
<g id="edge24" class="edge"><title>20&#45;&gt;2</title>
<path fill="none" stroke="black" d="M1220.41,-108.121C1238.7,-115.97 1256.05,-127.392 1267.02,-144 1278.26,-161.027 1274.24,-237.339 1261.02,-252 1160.67,-363.216 703.704,-377.445 493.897,-377.975"/>
<polygon fill="black" stroke="black" points="483.79,-377.991 493.783,-373.476 488.79,-377.983 493.79,-377.976 493.79,-377.976 493.79,-377.976 488.79,-377.983 493.797,-382.476 483.79,-377.991 483.79,-377.991"/>
</g>
<!-- 20&#45;&gt;3 -->
<g id="edge25" class="edge"><title>20&#45;&gt;3</title>
<path fill="none" stroke="black" d="M1206.12,-108.049C1223.68,-116.013 1240.74,-127.515 1251.02,-144 1263.2,-163.555 1252.59,-241.544 1242.02,-252 1216.72,-277.001 1009.68,-292.498 879.592,-299.863"/>
<polygon fill="black" stroke="black" points="869.586,-300.422 879.319,-295.371 874.578,-300.143 879.57,-299.864 879.57,-299.864 879.57,-299.864 874.578,-300.143 879.821,-304.357 869.586,-300.422 869.586,-300.422"/>
</g>
<!-- 20&#45;&gt;4 -->
<g id="edge26" class="edge"><title>20&#45;&gt;4</title>
<path fill="none" stroke="black" d="M1236.24,-108.066C1255,-115.906 1272.48,-127.337 1284.02,-144 1293.31,-157.423 1292.41,-230.517 1280.02,-252 1250.81,-302.609 1224.47,-302.803 1170.02,-324 932.836,-416.333 629.758,-440.493 480.114,-446.794"/>
<polygon fill="black" stroke="black" points="470.045,-447.2 479.855,-442.3 475.041,-446.998 480.036,-446.797 480.036,-446.797 480.036,-446.797 475.041,-446.998 480.218,-451.293 470.045,-447.2 470.045,-447.2"/>
</g>
<!-- 20&#45;&gt;5 -->
<g id="edge27" class="edge"><title>20&#45;&gt;5</title>
<path fill="none" stroke="black" d="M1076.46,-108.058C1058.67,-115.982 1041.49,-127.46 1031.02,-144 1022.46,-157.519 1020.89,-167.616 1031.02,-180 1082.12,-242.474 1157.91,-153.526 1209.02,-216 1219.15,-228.384 1219.95,-240.316 1209.02,-252 1169.58,-294.154 762.992,-280.047 670.045,-288.375"/>
<polygon fill="black" stroke="black" points="660.101,-289.54 669.51,-283.907 665.067,-288.958 670.033,-288.376 670.033,-288.376 670.033,-288.376 665.067,-288.958 670.557,-292.846 660.101,-289.54 660.101,-289.54"/>
</g>
<!-- 20&#45;&gt;11 -->
<g id="edge28" class="edge"><title>20&#45;&gt;11</title>
<path fill="none" stroke="black" d="M1142.52,-108.303C1142.3,-116.017 1142.04,-125.288 1141.79,-133.888"/>
<polygon fill="black" stroke="black" points="1141.5,-143.896 1137.29,-133.771 1141.65,-138.898 1141.79,-133.9 1141.79,-133.9 1141.79,-133.9 1141.65,-138.898 1146.29,-134.028 1141.5,-143.896 1141.5,-143.896"/>
</g>
<!-- 20&#45;&gt;12 -->
<g id="edge29" class="edge"><title>20&#45;&gt;12</title>
<path fill="none" stroke="black" d="M1058.82,-108.034C1008.17,-118.28 943.597,-131.345 891.253,-141.935"/>
<polygon fill="black" stroke="black" points="881.292,-143.95 890.201,-137.556 886.193,-142.958 891.093,-141.967 891.093,-141.967 891.093,-141.967 886.193,-142.958 891.986,-146.378 881.292,-143.95 881.292,-143.95"/>
</g>
<!-- 20&#45;&gt;13 -->
<g id="edge30" class="edge"><title>20&#45;&gt;13</title>
<path fill="none" stroke="black" d="M1046.08,-108C1027.21,-115.853 1009.69,-127.306 998.016,-144 988.848,-157.113 989.71,-166.325 998.016,-180 1006.17,-193.432 1018.96,-203.616 1032.77,-211.278"/>
<polygon fill="black" stroke="black" points="1041.94,-215.959 1030.99,-215.424 1037.49,-213.687 1033.04,-211.415 1033.04,-211.415 1033.04,-211.415 1037.49,-213.687 1035.08,-207.407 1041.94,-215.959 1041.94,-215.959"/>
</g>
<!-- 20&#45;&gt;17 -->
<g id="edge31" class="edge"><title>20&#45;&gt;17</title>
<path fill="none" stroke="black" d="M1038.98,-106.842C1035.96,-107.24 1032.97,-107.628 1030.02,-108 873.553,-127.736 831.496,-112.282 677.016,-144 624.553,-154.772 614.262,-168.223 562.016,-180 560.428,-180.358 417.456,-200.479 308.299,-215.822"/>
<polygon fill="black" stroke="black" points="298.18,-217.244 307.456,-211.396 303.131,-216.548 308.083,-215.853 308.083,-215.853 308.083,-215.853 303.131,-216.548 308.709,-220.309 298.18,-217.244 298.18,-217.244"/>
</g>
<!-- 21 -->
<g id="node22" class="node"><title>21</title>
<polygon fill="none" stroke="black" points="553.516,-180 326.516,-180 326.516,-144 553.516,-144 553.516,-180"/>
<text text-anchor="middle" x="440.016" y="-158.3" font-family="Times,serif" font-size="14.00">MyCapytain.resources.texts.encodings</text>
</g>
<!-- 20&#45;&gt;21 -->
<g id="edge32" class="edge"><title>20&#45;&gt;21</title>
<path fill="none" stroke="black" d="M1039,-106.935C1035.97,-107.307 1032.97,-107.663 1030.02,-108 825.386,-131.335 772.84,-122.434 568.016,-144 566.699,-144.139 565.375,-144.28 564.045,-144.424"/>
<polygon fill="black" stroke="black" points="553.738,-145.571 563.179,-139.992 558.707,-145.018 563.677,-144.465 563.677,-144.465 563.677,-144.465 558.707,-145.018 564.174,-148.937 553.738,-145.571 553.738,-145.571"/>
</g>
<!-- 26 -->
<g id="node27" class="node"><title>26</title>
<polygon fill="none" stroke="black" points="1574.02,-180 1374.02,-180 1374.02,-144 1574.02,-144 1574.02,-180"/>
<text text-anchor="middle" x="1474.02" y="-158.3" font-family="Times,serif" font-size="14.00">MyCapytain.retrievers.prototypes</text>
</g>
<!-- 20&#45;&gt;26 -->
<g id="edge33" class="edge"><title>20&#45;&gt;26</title>
<path fill="none" stroke="black" d="M1223.56,-108.034C1271.91,-118.259 1333.53,-131.29 1383.55,-141.869"/>
<polygon fill="black" stroke="black" points="1393.39,-143.95 1382.68,-146.283 1388.5,-142.915 1383.61,-141.881 1383.61,-141.881 1383.61,-141.881 1388.5,-142.915 1384.54,-137.478 1393.39,-143.95 1393.39,-143.95"/>
</g>
<!-- 21&#45;&gt;4 -->
<g id="edge34" class="edge"><title>21&#45;&gt;4</title>
<path fill="none" stroke="black" d="M326.451,-178.829C216.282,-194.217 65.563,-215.37 65.016,-216 -1.10066,-292.118 21.6246,-289.477 194.016,-396 224.699,-414.959 262.209,-427.248 296.04,-435.162"/>
<polygon fill="black" stroke="black" points="305.941,-437.38 295.199,-439.585 301.062,-436.287 296.183,-435.194 296.183,-435.194 296.183,-435.194 301.062,-436.287 297.166,-430.802 305.941,-437.38 305.941,-437.38"/>
</g>
<!-- 21&#45;&gt;17 -->
<g id="edge35" class="edge"><title>21&#45;&gt;17</title>
<path fill="none" stroke="black" d="M378.205,-180.034C341.944,-190.028 295.956,-202.702 258.057,-213.146"/>
<polygon fill="black" stroke="black" points="248.104,-215.889 256.549,-208.894 252.924,-214.561 257.744,-213.232 257.744,-213.232 257.744,-213.232 252.924,-214.561 258.94,-217.571 248.104,-215.889 248.104,-215.889"/>
</g>
<!-- 22 -->
<g id="node23" class="node"><title>22</title>
<polygon fill="none" stroke="black" points="2039.02,-36 1835.02,-36 1835.02,-0 2039.02,-0 2039.02,-36"/>
<text text-anchor="middle" x="1937.02" y="-14.3" font-family="Times,serif" font-size="14.00">MyCapytain.resources.texts.locals</text>
</g>
<!-- 23 -->
<g id="node24" class="node"><title>23</title>
<polygon fill="none" stroke="black" points="550.516,-108 329.516,-108 329.516,-72 550.516,-72 550.516,-108"/>
<text text-anchor="middle" x="440.016" y="-86.3" font-family="Times,serif" font-size="14.00">MyCapytain.resources.texts.locals.tei</text>
</g>
<!-- 23&#45;&gt;3 -->
<g id="edge36" class="edge"><title>23&#45;&gt;3</title>
<path fill="none" stroke="black" d="M506.496,-108.045C533.536,-116.587 564.385,-128.473 590.016,-144 650.264,-180.498 652.407,-206.304 706.016,-252 717.749,-262.001 731.048,-272.534 742.754,-281.552"/>
<polygon fill="black" stroke="black" points="750.952,-287.821 740.275,-285.321 746.98,-284.784 743.008,-281.746 743.008,-281.746 743.008,-281.746 746.98,-284.784 745.742,-278.172 750.952,-287.821 750.952,-287.821"/>
</g>
<!-- 23&#45;&gt;4 -->
<g id="edge37" class="edge"><title>23&#45;&gt;4</title>
<path fill="none" stroke="black" d="M329.426,-95.5651C265.896,-101.504 185.896,-114.754 120.016,-144 61.9046,-169.798 8.01602,-169.42 8.01602,-233 8.01602,-233 8.01602,-233 8.01602,-307 8.01602,-318.77 -47.3699,-317.124 134.016,-396 185.224,-418.268 246.395,-431.398 295.874,-439.018"/>
<polygon fill="black" stroke="black" points="305.927,-440.515 295.373,-443.493 300.981,-439.779 296.036,-439.042 296.036,-439.042 296.036,-439.042 300.981,-439.779 296.699,-434.591 305.927,-440.515 305.927,-440.515"/>
</g>
<!-- 23&#45;&gt;5 -->
<g id="edge38" class="edge"><title>23&#45;&gt;5</title>
<path fill="none" stroke="black" d="M500.592,-108.079C521.864,-116.321 544.741,-127.987 562.016,-144 588.553,-168.598 591.316,-180.878 600.016,-216 605.054,-236.341 604.754,-260.108 603.358,-277.963"/>
<polygon fill="black" stroke="black" points="602.414,-287.976 598.873,-277.598 602.883,-282.998 603.353,-278.02 603.353,-278.02 603.353,-278.02 602.883,-282.998 607.833,-278.443 602.414,-287.976 602.414,-287.976"/>
</g>
<!-- 23&#45;&gt;13 -->
<g id="edge39" class="edge"><title>23&#45;&gt;13</title>
<path fill="none" stroke="black" d="M550.886,-92.3668C648.771,-96.1416 794.409,-108.073 916.016,-144 950.327,-154.137 955.845,-164.347 988.016,-180 1009.74,-190.569 1033.96,-202.064 1054.3,-211.64"/>
<polygon fill="black" stroke="black" points="1063.35,-215.894 1052.39,-215.713 1058.83,-213.767 1054.3,-211.64 1054.3,-211.64 1054.3,-211.64 1058.83,-213.767 1056.21,-207.567 1063.35,-215.894 1063.35,-215.894"/>
</g>
<!-- 23&#45;&gt;17 -->
<g id="edge40" class="edge"><title>23&#45;&gt;17</title>
<path fill="none" stroke="black" d="M329.296,-95.2439C250.941,-100.847 155.452,-113.847 130.016,-144 112.718,-164.506 133.733,-190.797 154.774,-209.474"/>
<polygon fill="black" stroke="black" points="162.456,-215.985 151.918,-212.952 158.642,-212.752 154.828,-209.519 154.828,-209.519 154.828,-209.519 158.642,-212.752 157.738,-206.087 162.456,-215.985 162.456,-215.985"/>
</g>
<!-- 23&#45;&gt;18 -->
<g id="edge41" class="edge"><title>23&#45;&gt;18</title>
<path fill="none" stroke="black" d="M387.453,-108.034C357.01,-117.9 318.505,-130.378 286.517,-140.745"/>
<polygon fill="black" stroke="black" points="276.815,-143.889 284.941,-136.525 281.572,-142.348 286.328,-140.806 286.328,-140.806 286.328,-140.806 281.572,-142.348 287.715,-145.087 276.815,-143.889 276.815,-143.889"/>
</g>
<!-- 23&#45;&gt;21 -->
<g id="edge42" class="edge"><title>23&#45;&gt;21</title>
<path fill="none" stroke="black" d="M440.016,-108.303C440.016,-116.017 440.016,-125.288 440.016,-133.888"/>
<polygon fill="black" stroke="black" points="440.016,-143.896 435.516,-133.896 440.016,-138.896 440.016,-133.896 440.016,-133.896 440.016,-133.896 440.016,-138.896 444.516,-133.896 440.016,-143.896 440.016,-143.896"/>
</g>
<!-- 24 -->
<g id="node25" class="node"><title>24</title>
<polygon fill="none" stroke="black" points="2197.02,-36 2057.02,-36 2057.02,-0 2197.02,-0 2197.02,-36"/>
<text text-anchor="middle" x="2127.02" y="-14.3" font-family="Times,serif" font-size="14.00">MyCapytain.retrievers</text>
</g>
<!-- 25&#45;&gt;3 -->
<g id="edge43" class="edge"><title>25&#45;&gt;3</title>
<path fill="none" stroke="black" d="M1537.97,-108.05C1555.6,-116.004 1572.69,-127.5 1583.02,-144 1591.5,-157.564 1593.02,-167.513 1583.02,-180 1497.04,-287.317 1078.79,-303.815 879.727,-305.475"/>
<polygon fill="black" stroke="black" points="869.545,-305.549 879.513,-300.977 874.545,-305.513 879.545,-305.477 879.545,-305.477 879.545,-305.477 874.545,-305.513 879.578,-309.976 869.545,-305.549 869.545,-305.549"/>
</g>
<!-- 25&#45;&gt;26 -->
<g id="edge44" class="edge"><title>25&#45;&gt;26</title>
<path fill="none" stroke="black" d="M1474.02,-108.303C1474.02,-116.017 1474.02,-125.288 1474.02,-133.888"/>
<polygon fill="black" stroke="black" points="1474.02,-143.896 1469.52,-133.896 1474.02,-138.896 1474.02,-133.896 1474.02,-133.896 1474.02,-133.896 1474.02,-138.896 1478.52,-133.896 1474.02,-143.896 1474.02,-143.896"/>
</g>
</g>
</svg>
