<?xml version="1.0" encoding="UTF-8" standalone="no"?>
<!-- Created by diasvg.py -->
<svg width="33.128cm" height="19.400cm" viewBox="12.076 9.255 45.204 28.655"
 xmlns="http://www.w3.org/2000/svg"
 xmlns:xlink="http://www.w3.org/1999/xlink">
<text x="12.674" y="9.991"  fill="#000000" text-anchor="start" font-size="0.80" font-family="sans" font-style="normal" font-weight="400">
With Resolvers</text>
<rect x="18.461" y="10.881" width="3.935" height="2.600" fill="#FFFFFF" stroke="none" stroke-width="0"/>
<rect x="18.461" y="10.881" width="3.935" height="2.600" fill="none" stroke="#000000" stroke-width="0.001" />
<text x="20.429" y="11.976"  fill="#000000" text-anchor="middle" font-size="0.80" font-family="sans" font-style="normal" font-weight="400">
HTTP</text>
<text x="20.429" y="12.776"  fill="#000000" text-anchor="middle" font-size="0.80" font-family="sans" font-style="normal" font-weight="400">
Requests</text>
<rect x="18.450" y="16.000" width="4.012" height="2.600" fill="#FFFFFF" stroke="none" stroke-width="0"/>
<rect x="18.450" y="16.000" width="4.012" height="2.600" fill="none" stroke="#000000" stroke-width="0.001" />
<text x="20.456" y="17.495"  fill="#000000" text-anchor="middle" font-size="0.80" font-family="sans" font-style="normal" font-weight="400">
Parse File</text>
<ellipse cx="26.060" cy="12.180" rx="2.588" ry="2.623" fill="#FFFFFF" stroke="none"  /><ellipse cx="26.060" cy="12.180" rx="2.588" ry="2.623" fill="none" stroke="#000000"  stroke-width="0.001" /><text x="26.060" y="11.575"  fill="#000000" text-anchor="middle" font-size="0.80" font-family="sans" font-style="normal" font-weight="400">
CTS</text>
<text x="26.060" y="12.375"  fill="#000000" text-anchor="middle" font-size="0.80" font-family="sans" font-style="normal" font-weight="400">
API</text>
<text x="26.060" y="13.175"  fill="#000000" text-anchor="middle" font-size="0.80" font-family="sans" font-style="normal" font-weight="400">
Retriever</text>
<ellipse cx="34.406" cy="17.313" rx="3.601" ry="1.801" fill="#FFFFFF" stroke="none"  /><ellipse cx="34.406" cy="17.313" rx="3.601" ry="1.801" fill="none" stroke="#000000"  stroke-width="0.001" /><text x="34.406" y="16.708"  fill="#000000" text-anchor="middle" font-size="0.80" font-family="sans" font-style="normal" font-weight="400">
Nautilus</text>
<text x="34.406" y="17.508"  fill="#000000" text-anchor="middle" font-size="0.80" font-family="sans" font-style="normal" font-weight="400">
Python</text>
<text x="34.406" y="18.308"  fill="#000000" text-anchor="middle" font-size="0.80" font-family="sans" font-style="normal" font-weight="400">
Resolver</text>
<rect x="19.366" y="22.254" width="4.852" height="1.800" fill="#FFFFFF" stroke="none" stroke-width="0"/>
<rect x="19.366" y="22.254" width="4.852" height="1.800" fill="none" stroke="#000000" stroke-width="0.001" />
<text x="21.792" y="23.349"  fill="#000000" text-anchor="middle" font-size="0.80" font-family="sans" font-style="normal" font-weight="400">
Process</text>
<line x1="15.349" y1="16.307" x2="15.349" y2="18.307" stroke="#000000" stroke-width="0.001" />
<line x1="15.349" y1="16.307" x2="17.349" y2="16.307" stroke="#000000" stroke-width="0.001" />
<line x1="15.349" y1="18.307" x2="17.349" y2="18.307" stroke="#000000" stroke-width="0.001" />
<text x="16.399" y="17.157"  fill="#000000" text-anchor="middle" font-size="0.80" font-family="sans" font-style="normal" font-weight="400">
Local</text>
<text x="16.399" y="17.957"  fill="#000000" text-anchor="middle" font-size="0.80" font-family="sans" font-style="normal" font-weight="400">
File</text>
<line x1="15.381" y1="11.188" x2="15.381" y2="13.188" stroke="#000000" stroke-width="0.001" />
<line x1="15.381" y1="11.188" x2="17.381" y2="11.188" stroke="#000000" stroke-width="0.001" />
<line x1="15.381" y1="13.188" x2="17.381" y2="13.188" stroke="#000000" stroke-width="0.001" />
<text x="16.431" y="12.038"  fill="#000000" text-anchor="middle" font-size="0.80" font-family="sans" font-style="normal" font-weight="400">
HTTP</text>
<text x="16.431" y="12.838"  fill="#000000" text-anchor="middle" font-size="0.80" font-family="sans" font-style="normal" font-weight="400">
API</text>
<line x1="17.381" y1="12.188" x2="18.086" y2="12.183" stroke="#000000" stroke-width="0.001" />
<polygon fill="#000000" stroke="none" stroke-width="0.001" points="18.461,12.181 17.963,12.434 18.086,12.183 17.960,11.934 "/>
<polygon fill="none" stroke="#000000" stroke-width="0.001"  points="18.461,12.181 17.963,12.434 18.086,12.183 17.960,11.934 "/>
<line x1="17.349" y1="17.307" x2="18.075" y2="17.302" stroke="#000000" stroke-width="0.001" />
<polygon fill="#000000" stroke="none" stroke-width="0.001" points="18.450,17.300 17.951,17.553 18.075,17.302 17.948,17.053 "/>
<polygon fill="none" stroke="#000000" stroke-width="0.001"  points="18.450,17.300 17.951,17.553 18.075,17.302 17.948,17.053 "/>
<line x1="22.396" y1="12.181" x2="23.098" y2="12.180" stroke="#000000" stroke-width="0.001" />
<polygon fill="#000000" stroke="none" stroke-width="0.001" points="23.473,12.180 22.973,12.430 23.098,12.180 22.972,11.930 "/>
<polygon fill="none" stroke="#000000" stroke-width="0.001"  points="23.473,12.180 22.973,12.430 23.098,12.180 22.972,11.930 "/>
<polyline fill="none" stroke="#000000" stroke-width="0.001"  points="44.985,12.184 45.204,12.184 45.204,23.147 29.336,23.147 "/>
<polygon fill="#000000" stroke="none" stroke-width="0.001" points="28.961,23.147 29.461,22.897 29.336,23.147 29.461,23.397 "/>
<polygon fill="none" stroke="#000000" stroke-width="0.001"  points="28.961,23.147 29.461,22.897 29.336,23.147 29.461,23.397 "/>
<polyline fill="none" stroke="#000000" stroke-width="0.001"  points="38.007,17.313 44.728,17.313 44.728,23.147 29.336,23.147 "/>
<polygon fill="#000000" stroke="none" stroke-width="0.001" points="28.961,23.147 29.461,22.897 29.336,23.147 29.461,23.397 "/>
<polygon fill="none" stroke="#000000" stroke-width="0.001"  points="28.961,23.147 29.461,22.897 29.336,23.147 29.461,23.397 "/>
<line x1="22.462" y1="17.300" x2="30.429" y2="17.312" stroke="#000000" stroke-width="0.001" />
<polygon fill="#000000" stroke="none" stroke-width="0.001" points="30.804,17.313 30.304,17.562 30.429,17.312 30.305,17.062 "/>
<polygon fill="none" stroke="#000000" stroke-width="0.001"  points="30.804,17.313 30.304,17.562 30.429,17.312 30.305,17.062 "/>
<path stroke="none" fill="#FFFFFF" stroke-width="0.001" d="M 26.151,22.147 L 29.663,22.147 C 29.136,22.547 28.961,22.747 28.961,23.147 C 28.961,23.547 29.136,23.747 29.663,24.147 L 26.151,24.147 C 25.624,23.747 25.448,23.547 25.448,23.147 C 25.448,22.747 25.624,22.547 26.151,22.147 "/>
<path stroke="#000000" fill="none" stroke-width="0.001"  d="M 26.151,22.147 L 29.663,22.147 C 29.136,22.547 28.961,22.747 28.961,23.147 C 28.961,23.547 29.136,23.747 29.663,24.147 L 26.151,24.147 C 25.624,23.747 25.448,23.547 25.448,23.147 C 25.448,22.747 25.624,22.547 26.151,22.147 "/>
<text x="27.556" y="23.347"  fill="#000000" text-anchor="middle" font-size="0.80" font-family="sans" font-style="normal" font-weight="400">
Passage</text>
<polygon fill="#FFFFFF" stroke="none" stroke-width="0.001" points="14.107,20.115 18.049,20.115 17.103,22.715 13.161,22.715 "/>
<polygon fill="none" stroke="#000000" stroke-width="0.001"  points="14.107,20.115 18.049,20.115 17.103,22.715 13.161,22.715 "/>
<text x="15.605" y="21.210"  fill="#000000" text-anchor="middle" font-size="0.80" font-family="sans" font-style="normal" font-weight="400">
Nemo</text>
<text x="15.605" y="22.010"  fill="#000000" text-anchor="middle" font-size="0.80" font-family="sans" font-style="normal" font-weight="400">
Display</text>
<polygon fill="#FFFFFF" stroke="none" stroke-width="0.001" points="13.023,23.485 18.022,23.485 17.076,26.085 12.076,26.085 "/>
<polygon fill="none" stroke="#000000" stroke-width="0.001"  points="13.023,23.485 18.022,23.485 17.076,26.085 12.076,26.085 "/>
<text x="15.049" y="24.580"  fill="#000000" text-anchor="middle" font-size="0.80" font-family="sans" font-style="normal" font-weight="400">
Text</text>
<text x="15.049" y="25.380"  fill="#000000" text-anchor="middle" font-size="0.80" font-family="sans" font-style="normal" font-weight="400">
Processing</text>
<line x1="19.366" y1="22.254" x2="17.916" y2="21.574" stroke="#000000" stroke-width="0.001" />
<polygon fill="#000000" stroke="none" stroke-width="0.001" points="17.576,21.415 18.135,21.401 17.916,21.574 17.923,21.854 "/>
<polygon fill="none" stroke="#000000" stroke-width="0.001"  points="17.576,21.415 18.135,21.401 17.916,21.574 17.923,21.854 "/>
<line x1="19.366" y1="24.054" x2="17.897" y2="24.645" stroke="#000000" stroke-width="0.001" />
<polygon fill="#000000" stroke="none" stroke-width="0.001" points="17.549,24.785 17.920,24.366 17.897,24.645 18.107,24.830 "/>
<polygon fill="none" stroke="#000000" stroke-width="0.001"  points="17.549,24.785 17.920,24.366 17.897,24.645 18.107,24.830 "/>
<line x1="25.448" y1="23.147" x2="24.594" y2="23.152" stroke="#000000" stroke-width="0.001" />
<polygon fill="#000000" stroke="none" stroke-width="0.001" points="24.219,23.154 24.717,22.901 24.594,23.152 24.720,23.401 "/>
<polygon fill="none" stroke="#000000" stroke-width="0.001"  points="24.219,23.154 24.717,22.901 24.594,23.152 24.720,23.401 "/>
<polygon fill="#FFFFFF" stroke="none" stroke-width="0.001" points="25.334,25.355 41.419,25.355 42.019,25.955 42.019,28.655 25.334,28.655 "/>
<polygon fill="none" stroke="#000000" stroke-width="0.001"  points="25.334,25.355 41.419,25.355 42.019,25.955 42.019,28.655 25.334,28.655 "/>
<polyline fill="none" stroke="#000000" stroke-width="0.001"  points="41.419,25.355 41.419,25.955 42.019,25.955 "/>
<text x="25.634" y="26.550"  fill="#000000" text-anchor="start" font-size="0.80" font-family="monospace" font-style="normal" font-weight="400">
The same process is done for CTS HTTP API</text>
<text x="25.634" y="27.350"  fill="#000000" text-anchor="start" font-size="0.80" font-family="monospace" font-style="normal" font-weight="400">
But there is no duplication of processing</text>
<text x="25.634" y="28.150"  fill="#000000" text-anchor="start" font-size="0.80" font-family="monospace" font-style="normal" font-weight="400">
In MyCapytain &quot;Native&quot; System</text>
<rect x="33.872" y="11.296" width="4.852" height="1.800" fill="#FFFFFF" stroke="none" stroke-width="0"/>
<rect x="33.872" y="11.296" width="4.852" height="1.800" fill="none" stroke="#000000" stroke-width="0.001" />
<text x="36.298" y="12.391"  fill="#000000" text-anchor="middle" font-size="0.80" font-family="sans" font-style="normal" font-weight="400">
Process</text>
<ellipse cx="42.397" cy="12.184" rx="2.588" ry="2.623" fill="#FFFFFF" stroke="none"  /><ellipse cx="42.397" cy="12.184" rx="2.588" ry="2.623" fill="none" stroke="#000000"  stroke-width="0.001" /><text x="42.397" y="11.579"  fill="#000000" text-anchor="middle" font-size="0.80" font-family="sans" font-style="normal" font-weight="400">
HTTP</text>
<text x="42.397" y="12.379"  fill="#000000" text-anchor="middle" font-size="0.80" font-family="sans" font-style="normal" font-weight="400">
CTS</text>
<text x="42.397" y="13.179"  fill="#000000" text-anchor="middle" font-size="0.80" font-family="sans" font-style="normal" font-weight="400">
Resolver</text>
<path stroke="none" fill="#FFFFFF" stroke-width="0.001" d="M 29.981,11.184 L 32.618,11.184 C 32.223,11.584 32.091,11.784 32.091,12.184 C 32.091,12.584 32.223,12.784 32.618,13.184 L 29.981,13.184 C 29.585,12.784 29.453,12.584 29.453,12.184 C 29.453,11.784 29.585,11.584 29.981,11.184 "/>
<path stroke="#000000" fill="none" stroke-width="0.001"  d="M 29.981,11.184 L 32.618,11.184 C 32.223,11.584 32.091,11.784 32.091,12.184 C 32.091,12.584 32.223,12.784 32.618,13.184 L 29.981,13.184 C 29.585,12.784 29.453,12.584 29.453,12.184 C 29.453,11.784 29.585,11.584 29.981,11.184 "/>
<text x="31.036" y="12.384"  fill="#000000" text-anchor="middle" font-size="0.80" font-family="sans" font-style="normal" font-weight="400">
String</text>
<line x1="28.648" y1="12.180" x2="29.078" y2="12.182" stroke="#000000" stroke-width="0.001" />
<polygon fill="#000000" stroke="none" stroke-width="0.001" points="29.453,12.184 28.952,12.431 29.078,12.182 28.955,11.931 "/>
<polygon fill="none" stroke="#000000" stroke-width="0.001"  points="29.453,12.184 28.952,12.431 29.078,12.182 28.955,11.931 "/>
<line x1="32.091" y1="12.184" x2="33.497" y2="12.193" stroke="#000000" stroke-width="0.001" />
<polygon fill="#000000" stroke="none" stroke-width="0.001" points="33.872,12.196 33.370,12.443 33.497,12.193 33.374,11.943 "/>
<polygon fill="none" stroke="#000000" stroke-width="0.001"  points="33.872,12.196 33.370,12.443 33.497,12.193 33.374,11.943 "/>
<line x1="38.725" y1="12.196" x2="39.435" y2="12.188" stroke="#000000" stroke-width="0.001" />
<polygon fill="#000000" stroke="none" stroke-width="0.001" points="39.810,12.184 39.312,12.439 39.435,12.188 39.307,11.939 "/>
<polygon fill="none" stroke="#000000" stroke-width="0.001"  points="39.810,12.184 39.312,12.439 39.435,12.188 39.307,11.939 "/>
</svg>