<?xml version="1.0" encoding="UTF-8" standalone="no"?>
<!DOCTYPE svg PUBLIC "-//W3C//DTD SVG 1.1//EN"
 "http://www.w3.org/Graphics/SVG/1.1/DTD/svg11.dtd">
<!-- Generated by graphviz version 2.38.0 (20140413.2041)
 -->
<!-- Title: classes_MyCapytain_texts Pages: 1 -->
<svg width="194pt" height="483pt"
 viewBox="0.00 0.00 194.00 483.00" xmlns="http://www.w3.org/2000/svg" xmlns:xlink="http://www.w3.org/1999/xlink">
<g id="graph0" class="graph" transform="scale(1 1) rotate(0) translate(4 479)">
<title>classes_MyCapytain_texts</title>
<polygon fill="white" stroke="none" points="-4,4 -4,-479 190,-479 190,4 -4,4"/>
<!-- 0 -->
<g id="node1" class="node"><title>0</title>
<polygon fill="none" stroke="black" points="48.5,-73.5 48.5,-109.5 119.5,-109.5 119.5,-73.5 48.5,-73.5"/>
<text text-anchor="middle" x="84" y="-87.8" font-family="Times,serif" font-size="14.00">CtsNode</text>
</g>
<!-- 3 -->
<g id="node4" class="node"><title>3</title>
<polygon fill="none" stroke="black" points="11.5,-146.5 11.5,-182.5 156.5,-182.5 156.5,-146.5 11.5,-146.5"/>
<text text-anchor="middle" x="84" y="-160.8" font-family="Times,serif" font-size="14.00">InteractiveTextualNode</text>
</g>
<!-- 0&#45;&gt;3 -->
<g id="edge1" class="edge"><title>0&#45;&gt;3</title>
<path fill="none" stroke="black" d="M84,-109.687C84,-117.711 84,-127.453 84,-136.431"/>
<polygon fill="none" stroke="black" points="80.5001,-136.471 84,-146.471 87.5001,-136.471 80.5001,-136.471"/>
</g>
<!-- 1 -->
<g id="node2" class="node"><title>1</title>
<polygon fill="none" stroke="black" points="0,-0.5 0,-36.5 80,-36.5 80,-0.5 0,-0.5"/>
<text text-anchor="middle" x="40" y="-14.8" font-family="Times,serif" font-size="14.00">CitableText</text>
</g>
<!-- 1&#45;&gt;0 -->
<g id="edge2" class="edge"><title>1&#45;&gt;0</title>
<path fill="none" stroke="black" d="M50.6512,-36.6871C55.8936,-45.1466 62.3201,-55.5165 68.1275,-64.8876"/>
<polygon fill="none" stroke="black" points="65.2042,-66.8147 73.4469,-73.4712 71.1542,-63.1273 65.2042,-66.8147"/>
</g>
<!-- 2 -->
<g id="node3" class="node"><title>2</title>
<polygon fill="none" stroke="black" points="96,-438.5 96,-474.5 172,-474.5 172,-438.5 96,-438.5"/>
<text text-anchor="middle" x="134" y="-452.8" font-family="Times,serif" font-size="14.00">Exportable</text>
</g>
<!-- 7 -->
<g id="node8" class="node"><title>7</title>
<polygon fill="none" stroke="black" points="38,-219.5 38,-255.5 130,-255.5 130,-219.5 38,-219.5"/>
<text text-anchor="middle" x="84" y="-233.8" font-family="Times,serif" font-size="14.00">TextualGraph</text>
</g>
<!-- 3&#45;&gt;7 -->
<g id="edge3" class="edge"><title>3&#45;&gt;7</title>
<path fill="none" stroke="black" d="M84,-182.687C84,-190.711 84,-200.453 84,-209.431"/>
<polygon fill="none" stroke="black" points="80.5001,-209.471 84,-219.471 87.5001,-209.471 80.5001,-209.471"/>
</g>
<!-- 4 -->
<g id="node5" class="node"><title>4</title>
<polygon fill="none" stroke="black" points="6.5,-365.5 6.5,-401.5 63.5,-401.5 63.5,-365.5 6.5,-365.5"/>
<text text-anchor="middle" x="35" y="-379.8" font-family="Times,serif" font-size="14.00">NodeId</text>
</g>
<!-- 5 -->
<g id="node6" class="node"><title>5</title>
<polygon fill="none" stroke="black" points="98.5,-0.5 98.5,-36.5 157.5,-36.5 157.5,-0.5 98.5,-0.5"/>
<text text-anchor="middle" x="128" y="-14.8" font-family="Times,serif" font-size="14.00">Passage</text>
</g>
<!-- 5&#45;&gt;0 -->
<g id="edge4" class="edge"><title>5&#45;&gt;0</title>
<path fill="none" stroke="black" d="M117.349,-36.6871C112.106,-45.1466 105.68,-55.5165 99.8725,-64.8876"/>
<polygon fill="none" stroke="black" points="96.8458,-63.1273 94.5531,-73.4712 102.796,-66.8147 96.8458,-63.1273"/>
</g>
<!-- 6 -->
<g id="node7" class="node"><title>6</title>
<polygon fill="none" stroke="black" points="82,-365.5 82,-401.5 186,-401.5 186,-365.5 82,-365.5"/>
<text text-anchor="middle" x="134" y="-379.8" font-family="Times,serif" font-size="14.00">TextualElement</text>
</g>
<!-- 6&#45;&gt;2 -->
<g id="edge5" class="edge"><title>6&#45;&gt;2</title>
<path fill="none" stroke="black" d="M134,-401.687C134,-409.711 134,-419.453 134,-428.431"/>
<polygon fill="none" stroke="black" points="130.5,-428.471 134,-438.471 137.5,-428.471 130.5,-428.471"/>
</g>
<!-- 8 -->
<g id="node9" class="node"><title>8</title>
<polygon fill="none" stroke="black" points="40.5,-292.5 40.5,-328.5 127.5,-328.5 127.5,-292.5 40.5,-292.5"/>
<text text-anchor="middle" x="84" y="-306.8" font-family="Times,serif" font-size="14.00">TextualNode</text>
</g>
<!-- 7&#45;&gt;8 -->
<g id="edge6" class="edge"><title>7&#45;&gt;8</title>
<path fill="none" stroke="black" d="M84,-255.687C84,-263.711 84,-273.453 84,-282.431"/>
<polygon fill="none" stroke="black" points="80.5001,-282.471 84,-292.471 87.5001,-282.471 80.5001,-282.471"/>
</g>
<!-- 8&#45;&gt;4 -->
<g id="edge7" class="edge"><title>8&#45;&gt;4</title>
<path fill="none" stroke="black" d="M72.1385,-328.687C66.2401,-337.234 58.9958,-347.731 52.4764,-357.177"/>
<polygon fill="none" stroke="black" points="49.5518,-355.253 46.7523,-365.471 55.313,-359.229 49.5518,-355.253"/>
</g>
<!-- 8&#45;&gt;6 -->
<g id="edge8" class="edge"><title>8&#45;&gt;6</title>
<path fill="none" stroke="black" d="M96.1036,-328.687C102.122,-337.234 109.514,-347.731 116.167,-357.177"/>
<polygon fill="none" stroke="black" points="113.388,-359.31 122.008,-365.471 119.112,-355.28 113.388,-359.31"/>
</g>
</g>
</svg>
