<?xml version="1.0" encoding="UTF-8" standalone="no"?>
<!DOCTYPE svg PUBLIC "-//W3C//DTD SVG 1.1//EN"
 "http://www.w3.org/Graphics/SVG/1.1/DTD/svg11.dtd">
<!-- Generated by graphviz version 2.38.0 (20140413.2041)
 -->
<!-- Title: packages_MyCapytain_texts Pages: 1 -->
<svg width="1800pt" height="260pt"
 viewBox="0.00 0.00 1799.50 260.00" xmlns="http://www.w3.org/2000/svg" xmlns:xlink="http://www.w3.org/1999/xlink">
<g id="graph0" class="graph" transform="scale(1 1) rotate(0) translate(4 256)">
<title>packages_MyCapytain_texts</title>
<polygon fill="white" stroke="none" points="-4,4 -4,-256 1795.5,-256 1795.5,4 -4,4"/>
<!-- 0 -->
<g id="node1" class="node"><title>0</title>
<polygon fill="none" stroke="black" points="516.5,-36 376.5,-36 376.5,-0 516.5,-0 516.5,-36"/>
<text text-anchor="middle" x="446.5" y="-14.3" font-family="Times,serif" font-size="14.00">MyCapytain.resources</text>
</g>
<!-- 1 -->
<g id="node2" class="node"><title>1</title>
<polygon fill="none" stroke="black" points="739.5,-108 537.5,-108 537.5,-72 739.5,-72 739.5,-108"/>
<text text-anchor="middle" x="638.5" y="-86.3" font-family="Times,serif" font-size="14.00">MyCapytain.resources.collections</text>
</g>
<!-- 2 -->
<g id="node3" class="node"><title>2</title>
<polygon fill="none" stroke="black" points="1076,-36 855,-36 855,-0 1076,-0 1076,-36"/>
<text text-anchor="middle" x="965.5" y="-14.3" font-family="Times,serif" font-size="14.00">MyCapytain.resources.collections.cts</text>
</g>
<!-- 3 -->
<g id="node4" class="node"><title>3</title>
<polygon fill="none" stroke="black" points="1195.5,-108 995.5,-108 995.5,-72 1195.5,-72 1195.5,-108"/>
<text text-anchor="middle" x="1095.5" y="-86.3" font-family="Times,serif" font-size="14.00">MyCapytain.resources.prototypes</text>
</g>
<!-- 2&#45;&gt;3 -->
<g id="edge1" class="edge"><title>2&#45;&gt;3</title>
<path fill="none" stroke="black" d="M997.302,-36.1239C1014.61,-45.4459 1036.22,-57.0806 1054.76,-67.061"/>
<polygon fill="black" stroke="black" points="1063.58,-71.8102 1052.64,-71.0313 1059.17,-69.4397 1054.77,-67.0692 1054.77,-67.0692 1054.77,-67.0692 1059.17,-69.4397 1056.9,-63.1071 1063.58,-71.8102 1063.58,-71.8102"/>
</g>
<!-- 4 -->
<g id="node5" class="node"><title>4</title>
<polygon fill="none" stroke="black" points="977,-108 758,-108 758,-72 977,-72 977,-108"/>
<text text-anchor="middle" x="867.5" y="-86.3" font-family="Times,serif" font-size="14.00">MyCapytain.resources.prototypes.cts</text>
</g>
<!-- 2&#45;&gt;4 -->
<g id="edge2" class="edge"><title>2&#45;&gt;4</title>
<path fill="none" stroke="black" d="M941.527,-36.1239C928.95,-45.1069 913.368,-56.2375 899.748,-65.9659"/>
<polygon fill="black" stroke="black" points="891.566,-71.8102 897.087,-62.336 895.634,-68.904 899.703,-65.9978 899.703,-65.9978 899.703,-65.9978 895.634,-68.904 902.319,-69.6596 891.566,-71.8102 891.566,-71.8102"/>
</g>
<!-- 5 -->
<g id="node6" class="node"><title>5</title>
<polygon fill="none" stroke="black" points="275,-180 0,-180 0,-144 275,-144 275,-180"/>
<text text-anchor="middle" x="137.5" y="-158.3" font-family="Times,serif" font-size="14.00">MyCapytain.resources.prototypes.cts.inventory</text>
</g>
<!-- 6 -->
<g id="node7" class="node"><title>6</title>
<polygon fill="none" stroke="black" points="398.5,-252 144.5,-252 144.5,-216 398.5,-216 398.5,-252"/>
<text text-anchor="middle" x="271.5" y="-230.3" font-family="Times,serif" font-size="14.00">MyCapytain.resources.prototypes.metadata</text>
</g>
<!-- 5&#45;&gt;6 -->
<g id="edge3" class="edge"><title>5&#45;&gt;6</title>
<path fill="none" stroke="black" d="M170.28,-180.124C188.125,-189.446 210.397,-201.081 229.503,-211.061"/>
<polygon fill="black" stroke="black" points="238.594,-215.81 227.647,-215.169 234.162,-213.495 229.73,-211.18 229.73,-211.18 229.73,-211.18 234.162,-213.495 231.814,-207.191 238.594,-215.81 238.594,-215.81"/>
</g>
<!-- 7 -->
<g id="node8" class="node"><title>7</title>
<polygon fill="none" stroke="black" points="517.5,-180 293.5,-180 293.5,-144 517.5,-144 517.5,-180"/>
<text text-anchor="middle" x="405.5" y="-158.3" font-family="Times,serif" font-size="14.00">MyCapytain.resources.prototypes.text</text>
</g>
<!-- 7&#45;&gt;6 -->
<g id="edge4" class="edge"><title>7&#45;&gt;6</title>
<path fill="none" stroke="black" d="M372.72,-180.124C354.875,-189.446 332.603,-201.081 313.497,-211.061"/>
<polygon fill="black" stroke="black" points="304.406,-215.81 311.186,-207.191 308.838,-213.495 313.27,-211.18 313.27,-211.18 313.27,-211.18 308.838,-213.495 315.353,-215.169 304.406,-215.81 304.406,-215.81"/>
</g>
<!-- 8 -->
<g id="node9" class="node"><title>8</title>
<polygon fill="none" stroke="black" points="1383,-108 1214,-108 1214,-72 1383,-72 1383,-108"/>
<text text-anchor="middle" x="1298.5" y="-86.3" font-family="Times,serif" font-size="14.00">MyCapytain.resources.texts</text>
</g>
<!-- 9 -->
<g id="node10" class="node"><title>9</title>
<polygon fill="none" stroke="black" points="1569,-36 1380,-36 1380,-0 1569,-0 1569,-36"/>
<text text-anchor="middle" x="1474.5" y="-14.3" font-family="Times,serif" font-size="14.00">MyCapytain.resources.texts.api</text>
</g>
<!-- 10 -->
<g id="node11" class="node"><title>10</title>
<polygon fill="none" stroke="black" points="742.5,-36 534.5,-36 534.5,-0 742.5,-0 742.5,-36"/>
<text text-anchor="middle" x="638.5" y="-14.3" font-family="Times,serif" font-size="14.00">MyCapytain.resources.texts.api.cts</text>
</g>
<!-- 10&#45;&gt;1 -->
<g id="edge5" class="edge"><title>10&#45;&gt;1</title>
<path fill="none" stroke="black" d="M638.5,-36.3034C638.5,-44.0173 638.5,-53.2875 638.5,-61.8876"/>
<polygon fill="black" stroke="black" points="638.5,-71.8957 634,-61.8956 638.5,-66.8957 638.5,-61.8957 638.5,-61.8957 638.5,-61.8957 638.5,-66.8957 643,-61.8957 638.5,-71.8957 638.5,-71.8957"/>
</g>
<!-- 10&#45;&gt;3 -->
<g id="edge6" class="edge"><title>10&#45;&gt;3</title>
<path fill="none" stroke="black" d="M742.825,-34.789C809.394,-44.8873 897.81,-58.3435 985.308,-71.8189"/>
<polygon fill="black" stroke="black" points="995.419,-73.3768 984.85,-76.3013 990.477,-72.6153 985.535,-71.8538 985.535,-71.8538 985.535,-71.8538 990.477,-72.6153 986.221,-67.4063 995.419,-73.3768 995.419,-73.3768"/>
</g>
<!-- 11 -->
<g id="node12" class="node"><title>11</title>
<polygon fill="none" stroke="black" points="519,-108 292,-108 292,-72 519,-72 519,-108"/>
<text text-anchor="middle" x="405.5" y="-86.3" font-family="Times,serif" font-size="14.00">MyCapytain.resources.texts.encodings</text>
</g>
<!-- 10&#45;&gt;11 -->
<g id="edge7" class="edge"><title>10&#45;&gt;11</title>
<path fill="none" stroke="black" d="M581.8,-36.0344C548.82,-45.9426 507.068,-58.4861 472.474,-68.879"/>
<polygon fill="black" stroke="black" points="462.455,-71.8892 470.737,-64.7022 467.243,-70.4505 472.032,-69.0119 472.032,-69.0119 472.032,-69.0119 467.243,-70.4505 473.326,-73.3216 462.455,-71.8892 462.455,-71.8892"/>
</g>
<!-- 11&#45;&gt;7 -->
<g id="edge8" class="edge"><title>11&#45;&gt;7</title>
<path fill="none" stroke="black" d="M405.5,-108.303C405.5,-116.017 405.5,-125.288 405.5,-133.888"/>
<polygon fill="black" stroke="black" points="405.5,-143.896 401,-133.896 405.5,-138.896 405.5,-133.896 405.5,-133.896 405.5,-133.896 405.5,-138.896 410,-133.896 405.5,-143.896 405.5,-143.896"/>
</g>
<!-- 12 -->
<g id="node13" class="node"><title>12</title>
<polygon fill="none" stroke="black" points="1791.5,-36 1587.5,-36 1587.5,-0 1791.5,-0 1791.5,-36"/>
<text text-anchor="middle" x="1689.5" y="-14.3" font-family="Times,serif" font-size="14.00">MyCapytain.resources.texts.locals</text>
</g>
<!-- 13 -->
<g id="node14" class="node"><title>13</title>
<polygon fill="none" stroke="black" points="1362,-36 1141,-36 1141,-0 1362,-0 1362,-36"/>
<text text-anchor="middle" x="1251.5" y="-14.3" font-family="Times,serif" font-size="14.00">MyCapytain.resources.texts.locals.tei</text>
</g>
<!-- 13&#45;&gt;3 -->
<g id="edge9" class="edge"><title>13&#45;&gt;3</title>
<path fill="none" stroke="black" d="M1213.34,-36.1239C1192.11,-45.6508 1165.49,-57.5932 1142.93,-67.7167"/>
<polygon fill="black" stroke="black" points="1133.54,-71.9317 1140.82,-63.7321 1138.1,-69.8847 1142.66,-67.8377 1142.66,-67.8377 1142.66,-67.8377 1138.1,-69.8847 1144.5,-71.9433 1133.54,-71.9317 1133.54,-71.9317"/>
</g>
<!-- 13&#45;&gt;8 -->
<g id="edge10" class="edge"><title>13&#45;&gt;8</title>
<path fill="none" stroke="black" d="M1263.12,-36.3034C1268.64,-44.5259 1275.35,-54.5168 1281.43,-63.5793"/>
<polygon fill="black" stroke="black" points="1287.02,-71.8957 1277.71,-66.1019 1284.23,-67.7446 1281.44,-63.5934 1281.44,-63.5934 1281.44,-63.5934 1284.23,-67.7446 1285.18,-61.085 1287.02,-71.8957 1287.02,-71.8957"/>
</g>
</g>
</svg>
