<?xml version="1.0" encoding="UTF-8" standalone="no"?>
<!DOCTYPE svg PUBLIC "-//W3C//DTD SVG 1.1//EN"
 "http://www.w3.org/Graphics/SVG/1.1/DTD/svg11.dtd">
<!-- Generated by graphviz version 2.38.0 (20140413.2041)
 -->
<!-- Title: packages_MyCapytain Pages: 1 -->
<svg width="3449pt" height="476pt"
 viewBox="0.00 0.00 3448.52 476.00" xmlns="http://www.w3.org/2000/svg" xmlns:xlink="http://www.w3.org/1999/xlink">
<g id="graph0" class="graph" transform="scale(1 1) rotate(0) translate(4 472)">
<title>packages_MyCapytain</title>
<polygon fill="white" stroke="none" points="-4,4 -4,-472 3444.52,-472 3444.52,4 -4,4"/>
<!-- 0 -->
<g id="node1" class="node"><title>0</title>
<polygon fill="none" stroke="black" points="815.018,-36 730.018,-36 730.018,-0 815.018,-0 815.018,-36"/>
<text text-anchor="middle" x="772.518" y="-14.3" font-family="Times,serif" font-size="14.00">MyCapytain</text>
</g>
<!-- 1 -->
<g id="node2" class="node"><title>1</title>
<polygon fill="none" stroke="black" points="970.018,-36 833.018,-36 833.018,-0 970.018,-0 970.018,-36"/>
<text text-anchor="middle" x="901.518" y="-14.3" font-family="Times,serif" font-size="14.00">MyCapytain.common</text>
</g>
<!-- 2 -->
<g id="node3" class="node"><title>2</title>
<polygon fill="none" stroke="black" points="1806.02,-468 1641.02,-468 1641.02,-432 1806.02,-432 1806.02,-468"/>
<text text-anchor="middle" x="1723.52" y="-446.3" font-family="Times,serif" font-size="14.00">MyCapytain.common.base</text>
</g>
<!-- 3 -->
<g id="node4" class="node"><title>3</title>
<polygon fill="none" stroke="black" points="1225.02,-468 1034.02,-468 1034.02,-432 1225.02,-432 1225.02,-468"/>
<text text-anchor="middle" x="1129.52" y="-446.3" font-family="Times,serif" font-size="14.00">MyCapytain.common.constants</text>
</g>
<!-- 4 -->
<g id="node5" class="node"><title>4</title>
<polygon fill="none" stroke="black" points="1757.02,-396 1566.02,-396 1566.02,-360 1757.02,-360 1757.02,-396"/>
<text text-anchor="middle" x="1661.52" y="-374.3" font-family="Times,serif" font-size="14.00">MyCapytain.common.metadata</text>
</g>
<!-- 4&#45;&gt;2 -->
<g id="edge1" class="edge"><title>4&#45;&gt;2</title>
<path fill="none" stroke="black" d="M1676.84,-396.303C1684.28,-404.695 1693.34,-414.93 1701.5,-424.139"/>
<polygon fill="black" stroke="black" points="1708.37,-431.896 1698.37,-427.393 1705.05,-428.153 1701.74,-424.41 1701.74,-424.41 1701.74,-424.41 1705.05,-428.153 1705.11,-421.426 1708.37,-431.896 1708.37,-431.896"/>
</g>
<!-- 4&#45;&gt;3 -->
<g id="edge2" class="edge"><title>4&#45;&gt;3</title>
<path fill="none" stroke="black" d="M1565.85,-393.952C1561,-394.657 1556.21,-395.343 1551.52,-396 1443.9,-411.071 1320.54,-426.33 1235.12,-436.58"/>
<polygon fill="black" stroke="black" points="1225.15,-437.774 1234.55,-432.117 1230.12,-437.179 1235.08,-436.585 1235.08,-436.585 1235.08,-436.585 1230.12,-437.179 1235.62,-441.053 1225.15,-437.774 1225.15,-437.774"/>
</g>
<!-- 5 -->
<g id="node6" class="node"><title>5</title>
<polygon fill="none" stroke="black" points="1466.02,-324 1275.02,-324 1275.02,-288 1466.02,-288 1466.02,-324"/>
<text text-anchor="middle" x="1370.52" y="-302.3" font-family="Times,serif" font-size="14.00">MyCapytain.common.reference</text>
</g>
<!-- 5&#45;&gt;2 -->
<g id="edge3" class="edge"><title>5&#45;&gt;2</title>
<path fill="none" stroke="black" d="M1466.04,-313.268C1576.86,-321.534 1746.99,-337.685 1766.52,-360 1783.01,-378.841 1766.73,-405.114 1749.69,-424.228"/>
<polygon fill="black" stroke="black" points="1742.68,-431.683 1746.25,-421.314 1746.1,-428.039 1749.53,-424.396 1749.53,-424.396 1749.53,-424.396 1746.1,-428.039 1752.81,-427.478 1742.68,-431.683 1742.68,-431.683"/>
</g>
<!-- 5&#45;&gt;3 -->
<g id="edge4" class="edge"><title>5&#45;&gt;3</title>
<path fill="none" stroke="black" d="M1341.45,-324.129C1297.93,-349.769 1215.82,-398.149 1167.58,-426.575"/>
<polygon fill="black" stroke="black" points="1158.69,-431.811 1165.02,-422.857 1163,-429.272 1167.31,-426.734 1167.31,-426.734 1167.31,-426.734 1163,-429.272 1169.59,-430.611 1158.69,-431.811 1158.69,-431.811"/>
</g>
<!-- 6 -->
<g id="node7" class="node"><title>6</title>
<polygon fill="none" stroke="black" points="864.518,-396 700.518,-396 700.518,-360 864.518,-360 864.518,-396"/>
<text text-anchor="middle" x="782.518" y="-374.3" font-family="Times,serif" font-size="14.00">MyCapytain.common.utils</text>
</g>
<!-- 5&#45;&gt;6 -->
<g id="edge5" class="edge"><title>5&#45;&gt;6</title>
<path fill="none" stroke="black" d="M1274.74,-318.403C1164.29,-331.551 983.973,-353.017 874.956,-365.995"/>
<polygon fill="black" stroke="black" points="864.959,-367.186 874.356,-361.535 869.924,-366.594 874.888,-366.003 874.888,-366.003 874.888,-366.003 869.924,-366.594 875.42,-370.472 864.959,-367.186 864.959,-367.186"/>
</g>
<!-- 6&#45;&gt;3 -->
<g id="edge6" class="edge"><title>6&#45;&gt;3</title>
<path fill="none" stroke="black" d="M864.752,-395.589C915.87,-405.901 981.764,-419.194 1035.03,-429.938"/>
<polygon fill="black" stroke="black" points="1045.16,-431.983 1034.47,-434.416 1040.26,-430.994 1035.36,-430.005 1035.36,-430.005 1035.36,-430.005 1040.26,-430.994 1036.25,-425.594 1045.16,-431.983 1045.16,-431.983"/>
</g>
<!-- 7 -->
<g id="node8" class="node"><title>7</title>
<polygon fill="none" stroke="black" points="377.518,-396 257.518,-396 257.518,-360 377.518,-360 377.518,-396"/>
<text text-anchor="middle" x="317.518" y="-374.3" font-family="Times,serif" font-size="14.00">MyCapytain.errors</text>
</g>
<!-- 8 -->
<g id="node9" class="node"><title>8</title>
<polygon fill="none" stroke="black" points="1832.02,-36 1695.02,-36 1695.02,-0 1832.02,-0 1832.02,-36"/>
<text text-anchor="middle" x="1763.52" y="-14.3" font-family="Times,serif" font-size="14.00">MyCapytain.resolvers</text>
</g>
<!-- 9 -->
<g id="node10" class="node"><title>9</title>
<polygon fill="none" stroke="black" points="2006.52,-36 1850.52,-36 1850.52,-0 2006.52,-0 2006.52,-36"/>
<text text-anchor="middle" x="1928.52" y="-14.3" font-family="Times,serif" font-size="14.00">MyCapytain.resolvers.cts</text>
</g>
<!-- 10 -->
<g id="node11" class="node"><title>10</title>
<polygon fill="none" stroke="black" points="1676.52,-36 1500.52,-36 1500.52,-0 1676.52,-0 1676.52,-36"/>
<text text-anchor="middle" x="1588.52" y="-14.3" font-family="Times,serif" font-size="14.00">MyCapytain.resolvers.cts.api</text>
</g>
<!-- 12 -->
<g id="node13" class="node"><title>12</title>
<polygon fill="none" stroke="black" points="1485.52,-108 1287.52,-108 1287.52,-72 1485.52,-72 1485.52,-108"/>
<text text-anchor="middle" x="1386.52" y="-86.3" font-family="Times,serif" font-size="14.00">MyCapytain.resolvers.prototypes</text>
</g>
<!-- 10&#45;&gt;12 -->
<g id="edge7" class="edge"><title>10&#45;&gt;12</title>
<path fill="none" stroke="black" d="M1539.36,-36.0344C1511.01,-45.8575 1475.19,-58.2709 1445.35,-68.6109"/>
<polygon fill="black" stroke="black" points="1435.89,-71.8892 1443.87,-64.3629 1440.62,-70.252 1445.34,-68.6148 1445.34,-68.6148 1445.34,-68.6148 1440.62,-70.252 1446.82,-72.8667 1435.89,-71.8892 1435.89,-71.8892"/>
</g>
<!-- 16 -->
<g id="node17" class="node"><title>16</title>
<polygon fill="none" stroke="black" points="1627.02,-180 1406.02,-180 1406.02,-144 1627.02,-144 1627.02,-180"/>
<text text-anchor="middle" x="1516.52" y="-158.3" font-family="Times,serif" font-size="14.00">MyCapytain.resources.collections.cts</text>
</g>
<!-- 10&#45;&gt;16 -->
<g id="edge8" class="edge"><title>10&#45;&gt;16</title>
<path fill="none" stroke="black" d="M1566.12,-36.1303C1555.29,-45.569 1543.04,-58.166 1535.52,-72 1525.11,-91.1468 1520.4,-115.498 1518.27,-133.886"/>
<polygon fill="black" stroke="black" points="1517.29,-143.94 1513.78,-133.551 1517.78,-138.964 1518.26,-133.987 1518.26,-133.987 1518.26,-133.987 1517.78,-138.964 1522.74,-134.423 1517.29,-143.94 1517.29,-143.94"/>
</g>
<!-- 30 -->
<g id="node31" class="node"><title>30</title>
<polygon fill="none" stroke="black" points="1774.52,-108 1544.52,-108 1544.52,-72 1774.52,-72 1774.52,-108"/>
<text text-anchor="middle" x="1659.52" y="-86.3" font-family="Times,serif" font-size="14.00">MyCapytain.resources.texts.remote.cts</text>
</g>
<!-- 10&#45;&gt;30 -->
<g id="edge9" class="edge"><title>10&#45;&gt;30</title>
<path fill="none" stroke="black" d="M1606.07,-36.3034C1614.75,-44.865 1625.38,-55.3438 1634.87,-64.6955"/>
<polygon fill="black" stroke="black" points="1642.17,-71.8957 1631.89,-68.0794 1638.61,-68.3853 1635.05,-64.8749 1635.05,-64.8749 1635.05,-64.8749 1638.61,-68.3853 1638.21,-61.6704 1642.17,-71.8957 1642.17,-71.8957"/>
</g>
<!-- 32 -->
<g id="node33" class="node"><title>32</title>
<polygon fill="none" stroke="black" points="2183.02,-108 2018.02,-108 2018.02,-72 2183.02,-72 2183.02,-108"/>
<text text-anchor="middle" x="2100.52" y="-86.3" font-family="Times,serif" font-size="14.00">MyCapytain.retrievers.cts5</text>
</g>
<!-- 10&#45;&gt;32 -->
<g id="edge10" class="edge"><title>10&#45;&gt;32</title>
<path fill="none" stroke="black" d="M1676.64,-34.4761C1679.97,-35.0013 1683.27,-35.5112 1686.52,-36 1796.68,-52.5986 1923.85,-68.3767 2007.86,-78.3327"/>
<polygon fill="black" stroke="black" points="2017.89,-79.5176 2007.43,-82.8129 2012.93,-78.9308 2007.96,-78.344 2007.96,-78.344 2007.96,-78.344 2012.93,-78.9308 2008.49,-73.8751 2017.89,-79.5176 2017.89,-79.5176"/>
</g>
<!-- 11 -->
<g id="node12" class="node"><title>11</title>
<polygon fill="none" stroke="black" points="1174.52,-36 988.518,-36 988.518,-0 1174.52,-0 1174.52,-36"/>
<text text-anchor="middle" x="1081.52" y="-14.3" font-family="Times,serif" font-size="14.00">MyCapytain.resolvers.cts.local</text>
</g>
<!-- 11&#45;&gt;5 -->
<g id="edge11" class="edge"><title>11&#45;&gt;5</title>
<path fill="none" stroke="black" d="M1108.37,-36.242C1175.05,-79.3048 1343.97,-189.976 1359.52,-216 1370.6,-234.545 1372.9,-259.136 1372.68,-277.769"/>
<polygon fill="black" stroke="black" points="1372.31,-287.96 1368.18,-277.803 1372.49,-282.964 1372.68,-277.967 1372.68,-277.967 1372.68,-277.967 1372.49,-282.964 1377.17,-278.131 1372.31,-287.96 1372.31,-287.96"/>
</g>
<!-- 11&#45;&gt;6 -->
<g id="edge12" class="edge"><title>11&#45;&gt;6</title>
<path fill="none" stroke="black" d="M988.324,-34.4084C985.015,-34.947 981.738,-35.4789 978.518,-36 827.261,-60.4761 397.017,-27.4771 297.518,-144 222.814,-231.485 229.312,-215.418 449.518,-324 490.763,-344.338 606.809,-359.675 690.306,-368.489"/>
<polygon fill="black" stroke="black" points="700.32,-369.531 689.907,-372.972 695.347,-369.014 690.373,-368.496 690.373,-368.496 690.373,-368.496 695.347,-369.014 690.839,-364.02 700.32,-369.531 700.32,-369.531"/>
</g>
<!-- 11&#45;&gt;7 -->
<g id="edge13" class="edge"><title>11&#45;&gt;7</title>
<path fill="none" stroke="black" d="M988.387,-34.8811C985.06,-35.2859 981.762,-35.6612 978.518,-36 799.756,-54.6675 343.937,-24.7789 170.518,-72 88.9889,-94.1998 2.51759,-76.5029 2.51759,-161 2.51759,-161 2.51759,-161 2.51759,-235 2.51759,-275.447 -7.55277,-295.878 21.5176,-324 52.9387,-354.396 169.936,-367.705 247.091,-373.275"/>
<polygon fill="black" stroke="black" points="257.23,-373.979 246.943,-377.775 252.242,-373.632 247.254,-373.286 247.254,-373.286 247.254,-373.286 252.242,-373.632 247.566,-368.797 257.23,-373.979 257.23,-373.979"/>
</g>
<!-- 11&#45;&gt;12 -->
<g id="edge14" class="edge"><title>11&#45;&gt;12</title>
<path fill="none" stroke="black" d="M1155.74,-36.0344C1200.01,-46.1953 1256.36,-59.1277 1302.29,-69.67"/>
<polygon fill="black" stroke="black" points="1312.23,-71.9499 1301.47,-74.0989 1307.35,-70.8314 1302.48,-69.7129 1302.48,-69.7129 1302.48,-69.7129 1307.35,-70.8314 1303.49,-65.327 1312.23,-71.9499 1312.23,-71.9499"/>
</g>
<!-- 13 -->
<g id="node14" class="node"><title>13</title>
<polygon fill="none" stroke="black" points="194.518,-324 30.5176,-324 30.5176,-288 194.518,-288 194.518,-324"/>
<text text-anchor="middle" x="112.518" y="-302.3" font-family="Times,serif" font-size="14.00">MyCapytain.resolvers.utils</text>
</g>
<!-- 11&#45;&gt;13 -->
<g id="edge15" class="edge"><title>11&#45;&gt;13</title>
<path fill="none" stroke="black" d="M988.386,-34.8719C985.059,-35.2793 981.762,-35.6576 978.518,-36 893.342,-44.9891 278.555,-22.6998 208.518,-72 139.857,-120.331 120.19,-227.147 114.645,-277.595"/>
<polygon fill="black" stroke="black" points="113.639,-287.744 110.148,-277.349 114.133,-282.768 114.626,-277.793 114.626,-277.793 114.626,-277.793 114.133,-282.768 119.104,-278.237 113.639,-287.744 113.639,-287.744"/>
</g>
<!-- 11&#45;&gt;16 -->
<g id="edge16" class="edge"><title>11&#45;&gt;16</title>
<path fill="none" stroke="black" d="M1139.53,-36.103C1166.94,-45.17 1199.67,-57.453 1227.52,-72 1252.11,-84.8475 1253.15,-96.7656 1278.52,-108 1315.11,-124.207 1357.14,-135.672 1395.6,-143.687"/>
<polygon fill="black" stroke="black" points="1405.82,-145.754 1395.12,-148.182 1400.92,-144.762 1396.02,-143.771 1396.02,-143.771 1396.02,-143.771 1400.92,-144.762 1396.91,-139.36 1405.82,-145.754 1405.82,-145.754"/>
</g>
<!-- 20 -->
<g id="node21" class="node"><title>20</title>
<polygon fill="none" stroke="black" points="754.018,-252 479.018,-252 479.018,-216 754.018,-216 754.018,-252"/>
<text text-anchor="middle" x="616.518" y="-230.3" font-family="Times,serif" font-size="14.00">MyCapytain.resources.prototypes.cts.inventory</text>
</g>
<!-- 11&#45;&gt;20 -->
<g id="edge17" class="edge"><title>11&#45;&gt;20</title>
<path fill="none" stroke="black" d="M1103.67,-36.1251C1113.93,-45.4763 1125.04,-57.997 1130.52,-72 1149.87,-121.431 1125.2,-152.971 1079.52,-180 1077.78,-181.025 899.008,-201.288 764.145,-216.455"/>
<polygon fill="black" stroke="black" points="754.106,-217.584 763.541,-211.995 759.075,-217.025 764.044,-216.466 764.044,-216.466 764.044,-216.466 759.075,-217.025 764.546,-220.938 754.106,-217.584 754.106,-217.584"/>
</g>
<!-- 28 -->
<g id="node29" class="node"><title>28</title>
<polygon fill="none" stroke="black" points="1122.02,-108 853.018,-108 853.018,-72 1122.02,-72 1122.02,-108"/>
<text text-anchor="middle" x="987.518" y="-86.3" font-family="Times,serif" font-size="14.00">MyCapytain.resources.texts.local.capitains.cts</text>
</g>
<!-- 11&#45;&gt;28 -->
<g id="edge18" class="edge"><title>11&#45;&gt;28</title>
<path fill="none" stroke="black" d="M1058.28,-36.3034C1046.33,-45.204 1031.59,-56.1768 1018.67,-65.8011"/>
<polygon fill="black" stroke="black" points="1010.49,-71.8957 1015.82,-62.3138 1014.5,-68.9093 1018.51,-65.923 1018.51,-65.923 1018.51,-65.923 1014.5,-68.9093 1021.19,-69.5322 1010.49,-71.8957 1010.49,-71.8957"/>
</g>
<!-- 13&#45;&gt;7 -->
<g id="edge19" class="edge"><title>13&#45;&gt;7</title>
<path fill="none" stroke="black" d="M162.404,-324.034C191.172,-333.858 227.525,-346.271 257.807,-356.611"/>
<polygon fill="black" stroke="black" points="267.407,-359.889 256.49,-360.916 262.676,-358.273 257.944,-356.658 257.944,-356.658 257.944,-356.658 262.676,-358.273 259.398,-352.399 267.407,-359.889 267.407,-359.889"/>
</g>
<!-- 14 -->
<g id="node15" class="node"><title>14</title>
<polygon fill="none" stroke="black" points="2164.52,-36 2024.52,-36 2024.52,-0 2164.52,-0 2164.52,-36"/>
<text text-anchor="middle" x="2094.52" y="-14.3" font-family="Times,serif" font-size="14.00">MyCapytain.resources</text>
</g>
<!-- 15 -->
<g id="node16" class="node"><title>15</title>
<polygon fill="none" stroke="black" points="1996.52,-180 1794.52,-180 1794.52,-144 1996.52,-144 1996.52,-180"/>
<text text-anchor="middle" x="1895.52" y="-158.3" font-family="Times,serif" font-size="14.00">MyCapytain.resources.collections</text>
</g>
<!-- 16&#45;&gt;3 -->
<g id="edge20" class="edge"><title>16&#45;&gt;3</title>
<path fill="none" stroke="black" d="M1605.1,-180.123C1623.73,-187.955 1641.15,-199.368 1652.52,-216 1661.55,-229.209 1661.45,-238.725 1652.52,-252 1560.39,-388.93 1359.8,-430.868 1235.55,-443.595"/>
<polygon fill="black" stroke="black" points="1225.26,-444.601 1234.77,-439.15 1230.23,-444.115 1235.21,-443.629 1235.21,-443.629 1235.21,-443.629 1230.23,-444.115 1235.65,-448.107 1225.26,-444.601 1225.26,-444.601"/>
</g>
<!-- 16&#45;&gt;5 -->
<g id="edge21" class="edge"><title>16&#45;&gt;5</title>
<path fill="none" stroke="black" d="M1589.31,-180.086C1607.43,-187.96 1624.74,-199.403 1635.52,-216 1644.23,-229.419 1645.66,-239.627 1635.52,-252 1615.22,-276.755 1541.28,-290.178 1476.64,-297.316"/>
<polygon fill="black" stroke="black" points="1466.35,-298.408 1475.82,-292.877 1471.33,-297.88 1476.3,-297.352 1476.3,-297.352 1476.3,-297.352 1471.33,-297.88 1476.77,-301.827 1466.35,-298.408 1466.35,-298.408"/>
</g>
<!-- 16&#45;&gt;6 -->
<g id="edge22" class="edge"><title>16&#45;&gt;6</title>
<path fill="none" stroke="black" d="M1405.83,-170.902C1215.3,-184.609 845.072,-211.74 839.518,-216 828.518,-224.437 803.172,-306.462 790.309,-350.061"/>
<polygon fill="black" stroke="black" points="787.47,-359.748 785.964,-348.886 788.877,-354.95 790.283,-350.151 790.283,-350.151 790.283,-350.151 788.877,-354.95 794.601,-351.417 787.47,-359.748 787.47,-359.748"/>
</g>
<!-- 18 -->
<g id="node19" class="node"><title>18</title>
<polygon fill="none" stroke="black" points="1920.52,-252 1720.52,-252 1720.52,-216 1920.52,-216 1920.52,-252"/>
<text text-anchor="middle" x="1820.52" y="-230.3" font-family="Times,serif" font-size="14.00">MyCapytain.resources.prototypes</text>
</g>
<!-- 16&#45;&gt;18 -->
<g id="edge23" class="edge"><title>16&#45;&gt;18</title>
<path fill="none" stroke="black" d="M1590.5,-180.034C1634.62,-190.195 1690.79,-203.128 1736.57,-213.67"/>
<polygon fill="black" stroke="black" points="1746.47,-215.95 1735.72,-218.091 1741.6,-214.828 1736.73,-213.706 1736.73,-213.706 1736.73,-213.706 1741.6,-214.828 1737.74,-209.321 1746.47,-215.95 1746.47,-215.95"/>
</g>
<!-- 19 -->
<g id="node20" class="node"><title>19</title>
<polygon fill="none" stroke="black" points="1626.02,-252 1407.02,-252 1407.02,-216 1626.02,-216 1626.02,-252"/>
<text text-anchor="middle" x="1516.52" y="-230.3" font-family="Times,serif" font-size="14.00">MyCapytain.resources.prototypes.cts</text>
</g>
<!-- 16&#45;&gt;19 -->
<g id="edge24" class="edge"><title>16&#45;&gt;19</title>
<path fill="none" stroke="black" d="M1516.52,-180.303C1516.52,-188.017 1516.52,-197.288 1516.52,-205.888"/>
<polygon fill="black" stroke="black" points="1516.52,-215.896 1512.02,-205.896 1516.52,-210.896 1516.52,-205.896 1516.52,-205.896 1516.52,-205.896 1516.52,-210.896 1521.02,-205.896 1516.52,-215.896 1516.52,-215.896"/>
</g>
<!-- 16&#45;&gt;20 -->
<g id="edge25" class="edge"><title>16&#45;&gt;20</title>
<path fill="none" stroke="black" d="M1405.8,-170.758C1266.08,-180.665 1018.41,-198.613 806.518,-216 792.905,-217.117 778.748,-218.315 764.575,-219.54"/>
<polygon fill="black" stroke="black" points="754.259,-220.435 763.832,-215.087 759.24,-220.003 764.222,-219.57 764.222,-219.57 764.222,-219.57 759.24,-220.003 764.611,-224.053 754.259,-220.435 754.259,-220.435"/>
</g>
<!-- 22 -->
<g id="node23" class="node"><title>22</title>
<polygon fill="none" stroke="black" points="1350.52,-252 1126.52,-252 1126.52,-216 1350.52,-216 1350.52,-252"/>
<text text-anchor="middle" x="1238.52" y="-230.3" font-family="Times,serif" font-size="14.00">MyCapytain.resources.prototypes.text</text>
</g>
<!-- 16&#45;&gt;22 -->
<g id="edge26" class="edge"><title>16&#45;&gt;22</title>
<path fill="none" stroke="black" d="M1448.87,-180.034C1408.84,-190.113 1357.99,-202.918 1316.31,-213.412"/>
<polygon fill="black" stroke="black" points="1306.47,-215.889 1315.07,-209.084 1311.32,-214.668 1316.17,-213.447 1316.17,-213.447 1316.17,-213.447 1311.32,-214.668 1317.27,-217.811 1306.47,-215.889 1306.47,-215.889"/>
</g>
<!-- 17 -->
<g id="node18" class="node"><title>17</title>
<polygon fill="none" stroke="black" points="1070.02,-252 849.018,-252 849.018,-216 1070.02,-216 1070.02,-252"/>
<text text-anchor="middle" x="959.518" y="-230.3" font-family="Times,serif" font-size="14.00">MyCapytain.resources.collections.dts</text>
</g>
<!-- 21 -->
<g id="node22" class="node"><title>21</title>
<polygon fill="none" stroke="black" points="1137.52,-324 883.518,-324 883.518,-288 1137.52,-288 1137.52,-324"/>
<text text-anchor="middle" x="1010.52" y="-302.3" font-family="Times,serif" font-size="14.00">MyCapytain.resources.prototypes.metadata</text>
</g>
<!-- 17&#45;&gt;21 -->
<g id="edge27" class="edge"><title>17&#45;&gt;21</title>
<path fill="none" stroke="black" d="M972.124,-252.303C978.115,-260.526 985.394,-270.517 991.997,-279.579"/>
<polygon fill="black" stroke="black" points="998.056,-287.896 988.53,-282.463 995.112,-283.854 992.167,-279.813 992.167,-279.813 992.167,-279.813 995.112,-283.854 995.804,-277.163 998.056,-287.896 998.056,-287.896"/>
</g>
<!-- 20&#45;&gt;3 -->
<g id="edge28" class="edge"><title>20&#45;&gt;3</title>
<path fill="none" stroke="black" d="M618.973,-252.053C624.807,-285.758 642.848,-360.69 691.518,-396 742.898,-433.276 911.353,-444.501 1023.74,-447.782"/>
<polygon fill="black" stroke="black" points="1033.76,-448.058 1023.64,-452.281 1028.76,-447.92 1023.77,-447.782 1023.77,-447.782 1023.77,-447.782 1028.76,-447.92 1023.89,-443.284 1033.76,-448.058 1033.76,-448.058"/>
</g>
<!-- 20&#45;&gt;5 -->
<g id="edge29" class="edge"><title>20&#45;&gt;5</title>
<path fill="none" stroke="black" d="M754.374,-247.798C901.403,-261.448 1131.08,-282.771 1264.56,-295.163"/>
<polygon fill="black" stroke="black" points="1274.8,-296.114 1264.42,-299.67 1269.82,-295.651 1264.84,-295.189 1264.84,-295.189 1264.84,-295.189 1269.82,-295.651 1265.26,-290.708 1274.8,-296.114 1274.8,-296.114"/>
</g>
<!-- 20&#45;&gt;6 -->
<g id="edge30" class="edge"><title>20&#45;&gt;6</title>
<path fill="none" stroke="black" d="M636.541,-252.129C665.954,-277.289 720.965,-324.346 754.413,-352.958"/>
<polygon fill="black" stroke="black" points="762.423,-359.811 751.899,-356.73 758.624,-356.561 754.824,-353.31 754.824,-353.31 754.824,-353.31 758.624,-356.561 757.749,-349.891 762.423,-359.811 762.423,-359.811"/>
</g>
<!-- 20&#45;&gt;7 -->
<g id="edge31" class="edge"><title>20&#45;&gt;7</title>
<path fill="none" stroke="black" d="M580.451,-252.129C525.9,-278.036 422.468,-327.157 362.884,-355.455"/>
<polygon fill="black" stroke="black" points="353.712,-359.811 360.814,-351.456 358.228,-357.666 362.745,-355.521 362.745,-355.521 362.745,-355.521 358.228,-357.666 364.675,-359.586 353.712,-359.811 353.712,-359.811"/>
</g>
<!-- 20&#45;&gt;21 -->
<g id="edge32" class="edge"><title>20&#45;&gt;21</title>
<path fill="none" stroke="black" d="M712.397,-252.034C770.547,-262.366 844.825,-275.562 904.691,-286.198"/>
<polygon fill="black" stroke="black" points="914.55,-287.95 903.917,-290.631 909.627,-287.075 904.704,-286.201 904.704,-286.201 904.704,-286.201 909.627,-287.075 905.492,-281.77 914.55,-287.95 914.55,-287.95"/>
</g>
<!-- 21&#45;&gt;2 -->
<g id="edge33" class="edge"><title>21&#45;&gt;2</title>
<path fill="none" stroke="black" d="M1096.17,-324.058C1230.99,-350.909 1491.66,-402.824 1630.76,-430.527"/>
<polygon fill="black" stroke="black" points="1640.97,-432.561 1630.29,-435.021 1636.07,-431.584 1631.17,-430.607 1631.17,-430.607 1631.17,-430.607 1636.07,-431.584 1632.04,-426.194 1640.97,-432.561 1640.97,-432.561"/>
</g>
<!-- 21&#45;&gt;3 -->
<g id="edge34" class="edge"><title>21&#45;&gt;3</title>
<path fill="none" stroke="black" d="M1024.87,-324.129C1045.69,-348.969 1084.39,-395.154 1108.45,-423.858"/>
<polygon fill="black" stroke="black" points="1115.11,-431.811 1105.24,-427.037 1111.9,-427.978 1108.69,-424.146 1108.69,-424.146 1108.69,-424.146 1111.9,-427.978 1112.14,-421.256 1115.11,-431.811 1115.11,-431.811"/>
</g>
<!-- 21&#45;&gt;4 -->
<g id="edge35" class="edge"><title>21&#45;&gt;4</title>
<path fill="none" stroke="black" d="M1137.58,-320.663C1259.53,-333.775 1441.55,-353.348 1555.8,-365.632"/>
<polygon fill="black" stroke="black" points="1565.95,-366.724 1555.53,-370.129 1560.98,-366.19 1556.01,-365.655 1556.01,-365.655 1556.01,-365.655 1560.98,-366.19 1556.49,-361.181 1565.95,-366.724 1565.95,-366.724"/>
</g>
<!-- 21&#45;&gt;6 -->
<g id="edge36" class="edge"><title>21&#45;&gt;6</title>
<path fill="none" stroke="black" d="M955.034,-324.034C922.762,-333.943 881.906,-346.486 848.055,-356.879"/>
<polygon fill="black" stroke="black" points="838.25,-359.889 846.489,-352.652 843.03,-358.422 847.81,-356.954 847.81,-356.954 847.81,-356.954 843.03,-358.422 849.13,-361.256 838.25,-359.889 838.25,-359.889"/>
</g>
<!-- 21&#45;&gt;7 -->
<g id="edge37" class="edge"><title>21&#45;&gt;7</title>
<path fill="none" stroke="black" d="M883.411,-319.839C737.759,-334.551 504.247,-358.138 388.004,-369.88"/>
<polygon fill="black" stroke="black" points="377.804,-370.91 387.302,-365.428 382.779,-370.408 387.754,-369.905 387.754,-369.905 387.754,-369.905 382.779,-370.408 388.206,-374.383 377.804,-370.91 377.804,-370.91"/>
</g>
<!-- 22&#45;&gt;2 -->
<g id="edge38" class="edge"><title>22&#45;&gt;2</title>
<path fill="none" stroke="black" d="M1344.41,-252.039C1495.08,-277.348 1756.22,-325.585 1783.52,-360 1793.46,-372.535 1790.09,-381.414 1783.52,-396 1778.34,-407.482 1769.31,-417.477 1759.8,-425.598"/>
<polygon fill="black" stroke="black" points="1751.78,-431.971 1756.81,-422.228 1755.69,-428.861 1759.61,-425.752 1759.61,-425.752 1759.61,-425.752 1755.69,-428.861 1762.41,-429.275 1751.78,-431.971 1751.78,-431.971"/>
</g>
<!-- 22&#45;&gt;3 -->
<g id="edge39" class="edge"><title>22&#45;&gt;3</title>
<path fill="none" stroke="black" d="M1229.78,-252.151C1210.77,-289.481 1165.53,-378.305 1142.89,-422.741"/>
<polygon fill="black" stroke="black" points="1138.29,-431.768 1138.82,-420.814 1140.56,-427.312 1142.83,-422.857 1142.83,-422.857 1142.83,-422.857 1140.56,-427.312 1146.84,-424.899 1138.29,-431.768 1138.29,-431.768"/>
</g>
<!-- 22&#45;&gt;4 -->
<g id="edge40" class="edge"><title>22&#45;&gt;4</title>
<path fill="none" stroke="black" d="M1238.51,-252.004C1239.5,-272.413 1244.48,-306.115 1265.52,-324 1287.33,-342.545 1445.71,-359.213 1555.43,-368.713"/>
<polygon fill="black" stroke="black" points="1565.56,-369.581 1555.21,-373.21 1560.58,-369.154 1555.6,-368.727 1555.6,-368.727 1555.6,-368.727 1560.58,-369.154 1555.98,-364.243 1565.56,-369.581 1565.56,-369.581"/>
</g>
<!-- 22&#45;&gt;5 -->
<g id="edge41" class="edge"><title>22&#45;&gt;5</title>
<path fill="none" stroke="black" d="M1270.81,-252.124C1288.39,-261.446 1310.33,-273.081 1329.15,-283.061"/>
<polygon fill="black" stroke="black" points="1338.1,-287.81 1327.16,-287.101 1333.69,-285.468 1329.27,-283.125 1329.27,-283.125 1329.27,-283.125 1333.69,-285.468 1331.38,-279.15 1338.1,-287.81 1338.1,-287.81"/>
</g>
<!-- 22&#45;&gt;21 -->
<g id="edge42" class="edge"><title>22&#45;&gt;21</title>
<path fill="none" stroke="black" d="M1183.03,-252.034C1150.76,-261.943 1109.91,-274.486 1076.05,-284.879"/>
<polygon fill="black" stroke="black" points="1066.25,-287.889 1074.49,-280.652 1071.03,-286.422 1075.81,-284.954 1075.81,-284.954 1075.81,-284.954 1071.03,-286.422 1077.13,-289.256 1066.25,-287.889 1066.25,-287.889"/>
</g>
<!-- 23 -->
<g id="node24" class="node"><title>23</title>
<polygon fill="none" stroke="black" points="2352.02,-36 2183.02,-36 2183.02,-0 2352.02,-0 2352.02,-36"/>
<text text-anchor="middle" x="2267.52" y="-14.3" font-family="Times,serif" font-size="14.00">MyCapytain.resources.texts</text>
</g>
<!-- 24 -->
<g id="node25" class="node"><title>24</title>
<polygon fill="none" stroke="black" points="2567.02,-36 2370.02,-36 2370.02,-0 2567.02,-0 2567.02,-36"/>
<text text-anchor="middle" x="2468.52" y="-14.3" font-family="Times,serif" font-size="14.00">MyCapytain.resources.texts.base</text>
</g>
<!-- 25 -->
<g id="node26" class="node"><title>25</title>
<polygon fill="none" stroke="black" points="1070.52,-180 856.518,-180 856.518,-144 1070.52,-144 1070.52,-180"/>
<text text-anchor="middle" x="963.518" y="-158.3" font-family="Times,serif" font-size="14.00">MyCapytain.resources.texts.base.tei</text>
</g>
<!-- 25&#45;&gt;3 -->
<g id="edge43" class="edge"><title>25&#45;&gt;3</title>
<path fill="none" stroke="black" d="M856.291,-166.532C713.643,-172.354 476.221,-186.401 449.518,-216 438.8,-227.88 447.459,-236.133 449.518,-252 453.775,-284.82 446.432,-299.352 468.518,-324 527.95,-390.327 569,-374.879 655.518,-396 779.826,-426.347 926.775,-439.369 1023.74,-444.924"/>
<polygon fill="black" stroke="black" points="1033.84,-445.486 1023.6,-449.423 1028.85,-445.208 1023.85,-444.93 1023.85,-444.93 1023.85,-444.93 1028.85,-445.208 1024.1,-440.437 1033.84,-445.486 1033.84,-445.486"/>
</g>
<!-- 25&#45;&gt;6 -->
<g id="edge44" class="edge"><title>25&#45;&gt;6</title>
<path fill="none" stroke="black" d="M856.373,-167.021C718.863,-173.304 494.882,-187.768 469.518,-216 397.393,-296.276 573.736,-342.415 690.057,-363.312"/>
<polygon fill="black" stroke="black" points="700.068,-365.075 689.439,-367.772 695.143,-364.208 690.219,-363.34 690.219,-363.34 690.219,-363.34 695.143,-364.208 691,-358.908 700.068,-365.075 700.068,-365.075"/>
</g>
<!-- 25&#45;&gt;22 -->
<g id="edge45" class="edge"><title>25&#45;&gt;22</title>
<path fill="none" stroke="black" d="M1030.44,-180.034C1070.03,-190.113 1120.34,-202.918 1161.57,-213.412"/>
<polygon fill="black" stroke="black" points="1171.3,-215.889 1160.5,-217.783 1166.45,-214.656 1161.61,-213.422 1161.61,-213.422 1161.61,-213.422 1166.45,-214.656 1162.72,-209.061 1171.3,-215.889 1171.3,-215.889"/>
</g>
<!-- 26 -->
<g id="node27" class="node"><title>26</title>
<polygon fill="none" stroke="black" points="2784.02,-36 2585.02,-36 2585.02,-0 2784.02,-0 2784.02,-36"/>
<text text-anchor="middle" x="2684.52" y="-14.3" font-family="Times,serif" font-size="14.00">MyCapytain.resources.texts.local</text>
</g>
<!-- 27 -->
<g id="node28" class="node"><title>27</title>
<polygon fill="none" stroke="black" points="3053.02,-36 2802.02,-36 2802.02,-0 3053.02,-0 3053.02,-36"/>
<text text-anchor="middle" x="2927.52" y="-14.3" font-family="Times,serif" font-size="14.00">MyCapytain.resources.texts.local.capitains</text>
</g>
<!-- 28&#45;&gt;3 -->
<g id="edge46" class="edge"><title>28&#45;&gt;3</title>
<path fill="none" stroke="black" d="M852.794,-92.8819C663.843,-96.7869 338.498,-108.62 297.518,-144 211.153,-218.562 170.298,-312.934 248.518,-396 274.705,-423.81 794.775,-440.456 1023.32,-446.454"/>
<polygon fill="black" stroke="black" points="1033.65,-446.723 1023.54,-450.961 1028.65,-446.593 1023.66,-446.463 1023.66,-446.463 1023.66,-446.463 1028.65,-446.593 1023.77,-441.964 1033.65,-446.723 1033.65,-446.723"/>
</g>
<!-- 28&#45;&gt;5 -->
<g id="edge47" class="edge"><title>28&#45;&gt;5</title>
<path fill="none" stroke="black" d="M1030.98,-108.07C1048.09,-116.643 1066.68,-128.546 1079.52,-144 1112.03,-183.14 1079.25,-218.467 1117.52,-252 1139.69,-271.43 1205.76,-284.877 1264.81,-293.364"/>
<polygon fill="black" stroke="black" points="1274.98,-294.787 1264.46,-297.858 1270.03,-294.094 1265.08,-293.401 1265.08,-293.401 1265.08,-293.401 1270.03,-294.094 1265.7,-288.945 1274.98,-294.787 1274.98,-294.787"/>
</g>
<!-- 28&#45;&gt;6 -->
<g id="edge48" class="edge"><title>28&#45;&gt;6</title>
<path fill="none" stroke="black" d="M852.82,-103.414C710.219,-119.672 498.982,-153.725 449.518,-216 431.014,-239.295 459.66,-315.912 468.518,-324 500.279,-353.001 609.428,-366.328 690.159,-372.32"/>
<polygon fill="black" stroke="black" points="700.354,-373.05 690.058,-376.825 695.366,-372.693 690.379,-372.336 690.379,-372.336 690.379,-372.336 695.366,-372.693 690.7,-367.847 700.354,-373.05 700.354,-373.05"/>
</g>
<!-- 28&#45;&gt;7 -->
<g id="edge49" class="edge"><title>28&#45;&gt;7</title>
<path fill="none" stroke="black" d="M852.876,-92.269C669.037,-95.411 358.086,-106.303 322.518,-144 269.615,-200.068 292.686,-301.732 307.948,-350.072"/>
<polygon fill="black" stroke="black" points="311.149,-359.812 303.752,-351.716 309.588,-355.062 308.027,-350.312 308.027,-350.312 308.027,-350.312 309.588,-355.062 312.302,-348.907 311.149,-359.812 311.149,-359.812"/>
</g>
<!-- 28&#45;&gt;18 -->
<g id="edge50" class="edge"><title>28&#45;&gt;18</title>
<path fill="none" stroke="black" d="M1122.14,-99.2504C1297.77,-110.438 1588.44,-130.562 1636.52,-144 1670.97,-153.631 1676.35,-164.347 1708.52,-180 1730.24,-190.569 1754.46,-202.064 1774.8,-211.64"/>
<polygon fill="black" stroke="black" points="1783.85,-215.894 1772.89,-215.713 1779.33,-213.767 1774.8,-211.64 1774.8,-211.64 1774.8,-211.64 1779.33,-213.767 1776.72,-207.567 1783.85,-215.894 1783.85,-215.894"/>
</g>
<!-- 28&#45;&gt;22 -->
<g id="edge51" class="edge"><title>28&#45;&gt;22</title>
<path fill="none" stroke="black" d="M1034.35,-108.097C1058.31,-117.527 1087.6,-130.126 1112.52,-144 1147.42,-163.429 1184.42,-190.427 1209.23,-209.58"/>
<polygon fill="black" stroke="black" points="1217.15,-215.753 1206.5,-213.158 1213.21,-212.68 1209.26,-209.608 1209.26,-209.608 1209.26,-209.608 1213.21,-212.68 1212.03,-206.058 1217.15,-215.753 1217.15,-215.753"/>
</g>
<!-- 28&#45;&gt;25 -->
<g id="edge52" class="edge"><title>28&#45;&gt;25</title>
<path fill="none" stroke="black" d="M981.585,-108.303C978.911,-116.102 975.692,-125.491 972.716,-134.171"/>
<polygon fill="black" stroke="black" points="969.382,-143.896 968.368,-132.977 971.004,-139.166 972.625,-134.436 972.625,-134.436 972.625,-134.436 971.004,-139.166 976.882,-135.896 969.382,-143.896 969.382,-143.896"/>
</g>
<!-- 29 -->
<g id="node30" class="node"><title>29</title>
<polygon fill="none" stroke="black" points="3282.02,-36 3071.02,-36 3071.02,-0 3282.02,-0 3282.02,-36"/>
<text text-anchor="middle" x="3176.52" y="-14.3" font-family="Times,serif" font-size="14.00">MyCapytain.resources.texts.remote</text>
</g>
<!-- 30&#45;&gt;3 -->
<g id="edge53" class="edge"><title>30&#45;&gt;3</title>
<path fill="none" stroke="black" d="M1774.71,-95.1415C1867.74,-100.706 1989.24,-113.703 2027.52,-144 2060.84,-170.38 2062.52,-190.496 2062.52,-233 2062.52,-233 2062.52,-233 2062.52,-307 2062.52,-389.832 1480.35,-430.407 1235.74,-443.799"/>
<polygon fill="black" stroke="black" points="1225.42,-444.36 1235.16,-439.324 1230.41,-444.089 1235.4,-443.818 1235.4,-443.818 1235.4,-443.818 1230.41,-444.089 1235.64,-448.311 1225.42,-444.36 1225.42,-444.36"/>
</g>
<!-- 30&#45;&gt;4 -->
<g id="edge54" class="edge"><title>30&#45;&gt;4</title>
<path fill="none" stroke="black" d="M1774.87,-93.0336C1863.65,-97.3299 1976.03,-109.648 2005.52,-144 2093.1,-246.015 1870.78,-322.996 1743.41,-357.316"/>
<polygon fill="black" stroke="black" points="1733.65,-359.912 1742.16,-352.992 1738.48,-358.626 1743.32,-357.34 1743.32,-357.34 1743.32,-357.34 1738.48,-358.626 1744.47,-361.689 1733.65,-359.912 1733.65,-359.912"/>
</g>
<!-- 30&#45;&gt;5 -->
<g id="edge55" class="edge"><title>30&#45;&gt;5</title>
<path fill="none" stroke="black" d="M1691.09,-108.208C1708.05,-117.945 1729.01,-130.793 1746.52,-144 1765.35,-158.206 1764.76,-168.79 1785.52,-180 1843.56,-211.349 1888.92,-164.002 1929.52,-216 1939.36,-228.611 1940.28,-240.164 1929.52,-252 1899.7,-284.779 1630.25,-297.731 1476.61,-302.485"/>
<polygon fill="black" stroke="black" points="1466.2,-302.8 1476.06,-298 1471.2,-302.649 1476.2,-302.498 1476.2,-302.498 1476.2,-302.498 1471.2,-302.649 1476.34,-306.996 1466.2,-302.8 1466.2,-302.8"/>
</g>
<!-- 30&#45;&gt;6 -->
<g id="edge56" class="edge"><title>30&#45;&gt;6</title>
<path fill="none" stroke="black" d="M1547.54,-108.056C1481.68,-118.213 1396.82,-131.518 1321.52,-144 1229.83,-159.2 1207.46,-166.385 1115.52,-180 1049.97,-189.707 870.567,-173.754 819.518,-216 780.403,-248.369 777.692,-312.958 779.741,-349.729"/>
<polygon fill="black" stroke="black" points="780.457,-359.747 775.256,-350.093 780.101,-354.759 779.744,-349.772 779.744,-349.772 779.744,-349.772 780.101,-354.759 784.233,-349.451 780.457,-359.747 780.457,-359.747"/>
</g>
<!-- 30&#45;&gt;7 -->
<g id="edge57" class="edge"><title>30&#45;&gt;7</title>
<path fill="none" stroke="black" d="M1544.19,-103.581C1527.53,-105.195 1510.59,-106.725 1494.52,-108 1259.81,-126.611 641.642,-93.5867 440.518,-216 386.87,-248.652 348.224,-314.073 329.75,-350.671"/>
<polygon fill="black" stroke="black" points="325.284,-359.748 325.661,-348.788 327.492,-355.261 329.699,-350.775 329.699,-350.775 329.699,-350.775 327.492,-355.261 333.737,-352.761 325.284,-359.748 325.284,-359.748"/>
</g>
<!-- 30&#45;&gt;15 -->
<g id="edge58" class="edge"><title>30&#45;&gt;15</title>
<path fill="none" stroke="black" d="M1716.95,-108.034C1750.5,-117.985 1793.01,-130.594 1828.13,-141.013"/>
<polygon fill="black" stroke="black" points="1837.83,-143.889 1826.96,-145.36 1833.04,-142.467 1828.24,-141.045 1828.24,-141.045 1828.24,-141.045 1833.04,-142.467 1829.52,-136.731 1837.83,-143.889 1837.83,-143.889"/>
</g>
<!-- 30&#45;&gt;16 -->
<g id="edge59" class="edge"><title>30&#45;&gt;16</title>
<path fill="none" stroke="black" d="M1624.54,-108.124C1605.32,-117.531 1581.29,-129.292 1560.78,-139.333"/>
<polygon fill="black" stroke="black" points="1551.63,-143.81 1558.64,-135.372 1556.12,-141.612 1560.62,-139.414 1560.62,-139.414 1560.62,-139.414 1556.12,-141.612 1562.59,-143.455 1551.63,-143.81 1551.63,-143.81"/>
</g>
<!-- 30&#45;&gt;18 -->
<g id="edge60" class="edge"><title>30&#45;&gt;18</title>
<path fill="none" stroke="black" d="M1676.51,-108.272C1694.79,-126.612 1724.96,-156.18 1752.52,-180 1764.18,-190.081 1777.47,-200.63 1789.18,-209.638"/>
<polygon fill="black" stroke="black" points="1797.39,-215.896 1786.71,-213.411 1793.41,-212.864 1789.44,-209.832 1789.44,-209.832 1789.44,-209.832 1793.41,-212.864 1792.17,-206.254 1797.39,-215.896 1797.39,-215.896"/>
</g>
<!-- 30&#45;&gt;22 -->
<g id="edge61" class="edge"><title>30&#45;&gt;22</title>
<path fill="none" stroke="black" d="M1544.21,-106.367C1497.74,-114.596 1444.19,-126.702 1397.52,-144 1351.62,-161.011 1303.12,-189.971 1271.93,-210.222"/>
<polygon fill="black" stroke="black" points="1263.22,-215.944 1269.11,-206.693 1267.4,-213.199 1271.58,-210.454 1271.58,-210.454 1271.58,-210.454 1267.4,-213.199 1274.05,-214.215 1263.22,-215.944 1263.22,-215.944"/>
</g>
<!-- 30&#45;&gt;25 -->
<g id="edge62" class="edge"><title>30&#45;&gt;25</title>
<path fill="none" stroke="black" d="M1544.13,-102.936C1527.48,-104.644 1510.56,-106.373 1494.52,-108 1352.21,-122.433 1188.41,-138.735 1080.81,-149.401"/>
<polygon fill="black" stroke="black" points="1070.57,-150.416 1080.08,-144.951 1075.55,-149.923 1080.52,-149.429 1080.52,-149.429 1080.52,-149.429 1075.55,-149.923 1080.97,-153.907 1070.57,-150.416 1070.57,-150.416"/>
</g>
<!-- 31 -->
<g id="node32" class="node"><title>31</title>
<polygon fill="none" stroke="black" points="3440.52,-36 3300.52,-36 3300.52,-0 3440.52,-0 3440.52,-36"/>
<text text-anchor="middle" x="3370.52" y="-14.3" font-family="Times,serif" font-size="14.00">MyCapytain.retrievers</text>
</g>
<!-- 32&#45;&gt;5 -->
<g id="edge63" class="edge"><title>32&#45;&gt;5</title>
<path fill="none" stroke="black" d="M2090.19,-108.218C2068.52,-142.569 2014.62,-219.13 1946.52,-252 1866.09,-290.819 1619.39,-301.281 1476.28,-304.051"/>
<polygon fill="black" stroke="black" points="1466.16,-304.237 1476.07,-299.554 1471.16,-304.145 1476.16,-304.053 1476.16,-304.053 1476.16,-304.053 1471.16,-304.145 1476.24,-308.552 1466.16,-304.237 1466.16,-304.237"/>
</g>
<!-- 33 -->
<g id="node34" class="node"><title>33</title>
<polygon fill="none" stroke="black" points="2328.52,-180 2128.52,-180 2128.52,-144 2328.52,-144 2328.52,-180"/>
<text text-anchor="middle" x="2228.52" y="-158.3" font-family="Times,serif" font-size="14.00">MyCapytain.retrievers.prototypes</text>
</g>
<!-- 32&#45;&gt;33 -->
<g id="edge64" class="edge"><title>32&#45;&gt;33</title>
<path fill="none" stroke="black" d="M2131.83,-108.124C2148.72,-117.361 2169.76,-128.869 2187.9,-138.788"/>
<polygon fill="black" stroke="black" points="2197.08,-143.81 2186.15,-142.96 2192.7,-141.411 2188.31,-139.012 2188.31,-139.012 2188.31,-139.012 2192.7,-141.411 2190.47,-135.064 2197.08,-143.81 2197.08,-143.81"/>
</g>
</g>
</svg>
