<?xml version="1.0" encoding="UTF-8" standalone="no"?>
<!DOCTYPE svg PUBLIC "-//W3C//DTD SVG 1.1//EN"
 "http://www.w3.org/Graphics/SVG/1.1/DTD/svg11.dtd">
<!-- Generated by graphviz version 2.38.0 (20140413.2041)
 -->
<!-- Title: packages_MyCapytain Pages: 1 -->
<svg width="2278pt" height="476pt"
 viewBox="0.00 0.00 2277.50 476.00" xmlns="http://www.w3.org/2000/svg" xmlns:xlink="http://www.w3.org/1999/xlink">
<g id="graph0" class="graph" transform="scale(1 1) rotate(0) translate(4 472)">
<title>packages_MyCapytain</title>
<polygon fill="white" stroke="none" points="-4,4 -4,-472 2273.5,-472 2273.5,4 -4,4"/>
<!-- 0 -->
<g id="node1" class="node"><title>0</title>
<polygon fill="none" stroke="black" points="85,-36 0,-36 0,-0 85,-0 85,-36"/>
<text text-anchor="middle" x="42.5" y="-14.3" font-family="Times,serif" font-size="14.00">MyCapytain</text>
</g>
<!-- 1 -->
<g id="node2" class="node"><title>1</title>
<polygon fill="none" stroke="black" points="240,-36 103,-36 103,-0 240,-0 240,-36"/>
<text text-anchor="middle" x="171.5" y="-14.3" font-family="Times,serif" font-size="14.00">MyCapytain.common</text>
</g>
<!-- 2 -->
<g id="node3" class="node"><title>2</title>
<polygon fill="none" stroke="black" points="1459,-468 1268,-468 1268,-432 1459,-432 1459,-468"/>
<text text-anchor="middle" x="1363.5" y="-446.3" font-family="Times,serif" font-size="14.00">MyCapytain.common.constants</text>
</g>
<!-- 3 -->
<g id="node4" class="node"><title>3</title>
<polygon fill="none" stroke="black" points="1690,-396 1499,-396 1499,-360 1690,-360 1690,-396"/>
<text text-anchor="middle" x="1594.5" y="-374.3" font-family="Times,serif" font-size="14.00">MyCapytain.common.metadata</text>
</g>
<!-- 3&#45;&gt;2 -->
<g id="edge1" class="edge"><title>3&#45;&gt;2</title>
<path fill="none" stroke="black" d="M1538.29,-396.034C1505.59,-405.943 1464.2,-418.486 1429.9,-428.879"/>
<polygon fill="black" stroke="black" points="1419.97,-431.889 1428.23,-424.682 1424.75,-430.439 1429.54,-428.989 1429.54,-428.989 1429.54,-428.989 1424.75,-430.439 1430.84,-433.296 1419.97,-431.889 1419.97,-431.889"/>
</g>
<!-- 4 -->
<g id="node5" class="node"><title>4</title>
<polygon fill="none" stroke="black" points="673,-324 482,-324 482,-288 673,-288 673,-324"/>
<text text-anchor="middle" x="577.5" y="-302.3" font-family="Times,serif" font-size="14.00">MyCapytain.common.reference</text>
</g>
<!-- 4&#45;&gt;2 -->
<g id="edge2" class="edge"><title>4&#45;&gt;2</title>
<path fill="none" stroke="black" d="M671.919,-324.058C819.897,-350.792 1105.39,-402.369 1259.22,-430.161"/>
<polygon fill="black" stroke="black" points="1269.16,-431.957 1258.52,-434.608 1264.24,-431.068 1259.32,-430.179 1259.32,-430.179 1259.32,-430.179 1264.24,-431.068 1260.12,-425.751 1269.16,-431.957 1269.16,-431.957"/>
</g>
<!-- 5 -->
<g id="node6" class="node"><title>5</title>
<polygon fill="none" stroke="black" points="1364.5,-396 1200.5,-396 1200.5,-360 1364.5,-360 1364.5,-396"/>
<text text-anchor="middle" x="1282.5" y="-374.3" font-family="Times,serif" font-size="14.00">MyCapytain.common.utils</text>
</g>
<!-- 4&#45;&gt;5 -->
<g id="edge3" class="edge"><title>4&#45;&gt;5</title>
<path fill="none" stroke="black" d="M673.141,-322.16C677.993,-322.81 682.8,-323.428 687.5,-324 864.808,-345.575 1072.85,-362.109 1190.02,-370.619"/>
<polygon fill="black" stroke="black" points="1200.03,-371.343 1189.73,-375.11 1195.04,-370.983 1190.06,-370.622 1190.06,-370.622 1190.06,-370.622 1195.04,-370.983 1190.38,-366.134 1200.03,-371.343 1200.03,-371.343"/>
</g>
<!-- 5&#45;&gt;2 -->
<g id="edge4" class="edge"><title>5&#45;&gt;2</title>
<path fill="none" stroke="black" d="M1302.52,-396.303C1312.63,-405.035 1325.04,-415.76 1336.02,-425.25"/>
<polygon fill="black" stroke="black" points="1343.71,-431.896 1333.2,-428.762 1339.92,-428.626 1336.14,-425.357 1336.14,-425.357 1336.14,-425.357 1339.92,-428.626 1339.08,-421.952 1343.71,-431.896 1343.71,-431.896"/>
</g>
<!-- 6 -->
<g id="node7" class="node"><title>6</title>
<polygon fill="none" stroke="black" points="1964.5,-324 1844.5,-324 1844.5,-288 1964.5,-288 1964.5,-324"/>
<text text-anchor="middle" x="1904.5" y="-302.3" font-family="Times,serif" font-size="14.00">MyCapytain.errors</text>
</g>
<!-- 7 -->
<g id="node8" class="node"><title>7</title>
<polygon fill="none" stroke="black" points="1349,-36 1212,-36 1212,-0 1349,-0 1349,-36"/>
<text text-anchor="middle" x="1280.5" y="-14.3" font-family="Times,serif" font-size="14.00">MyCapytain.resolvers</text>
</g>
<!-- 8 -->
<g id="node9" class="node"><title>8</title>
<polygon fill="none" stroke="black" points="1523.5,-36 1367.5,-36 1367.5,-0 1523.5,-0 1523.5,-36"/>
<text text-anchor="middle" x="1445.5" y="-14.3" font-family="Times,serif" font-size="14.00">MyCapytain.resolvers.cts</text>
</g>
<!-- 9 -->
<g id="node10" class="node"><title>9</title>
<polygon fill="none" stroke="black" points="434.5,-36 258.5,-36 258.5,-0 434.5,-0 434.5,-36"/>
<text text-anchor="middle" x="346.5" y="-14.3" font-family="Times,serif" font-size="14.00">MyCapytain.resolvers.cts.api</text>
</g>
<!-- 11 -->
<g id="node12" class="node"><title>11</title>
<polygon fill="none" stroke="black" points="508.5,-108 310.5,-108 310.5,-72 508.5,-72 508.5,-108"/>
<text text-anchor="middle" x="409.5" y="-86.3" font-family="Times,serif" font-size="14.00">MyCapytain.resolvers.prototypes</text>
</g>
<!-- 9&#45;&gt;11 -->
<g id="edge5" class="edge"><title>9&#45;&gt;11</title>
<path fill="none" stroke="black" d="M362.073,-36.3034C369.702,-44.7802 379.023,-55.1364 387.376,-64.4174"/>
<polygon fill="black" stroke="black" points="394.106,-71.8957 384.072,-67.4731 390.761,-68.1792 387.416,-64.4627 387.416,-64.4627 387.416,-64.4627 390.761,-68.1792 390.761,-61.4523 394.106,-71.8957 394.106,-71.8957"/>
</g>
<!-- 14 -->
<g id="node15" class="node"><title>14</title>
<polygon fill="none" stroke="black" points="831,-180 610,-180 610,-144 831,-144 831,-180"/>
<text text-anchor="middle" x="720.5" y="-158.3" font-family="Times,serif" font-size="14.00">MyCapytain.resources.collections.cts</text>
</g>
<!-- 9&#45;&gt;14 -->
<g id="edge6" class="edge"><title>9&#45;&gt;14</title>
<path fill="none" stroke="black" d="M326.678,-36.2712C307.058,-55.4181 282.495,-86.4391 301.5,-108 321.096,-130.23 483.034,-145.52 599.723,-153.769"/>
<polygon fill="black" stroke="black" points="609.806,-154.473 599.517,-158.266 604.818,-154.125 599.831,-153.777 599.831,-153.777 599.831,-153.777 604.818,-154.125 600.144,-149.288 609.806,-154.473 609.806,-154.473"/>
</g>
<!-- 22 -->
<g id="node23" class="node"><title>22</title>
<polygon fill="none" stroke="black" points="1221.5,-108 1013.5,-108 1013.5,-72 1221.5,-72 1221.5,-108"/>
<text text-anchor="middle" x="1117.5" y="-86.3" font-family="Times,serif" font-size="14.00">MyCapytain.resources.texts.api.cts</text>
</g>
<!-- 9&#45;&gt;22 -->
<g id="edge7" class="edge"><title>9&#45;&gt;22</title>
<path fill="none" stroke="black" d="M434.568,-26.9958C574.719,-39.7203 848.463,-64.5738 1003.43,-78.6431"/>
<polygon fill="black" stroke="black" points="1013.46,-79.554 1003.09,-83.1313 1008.48,-79.1018 1003.5,-78.6497 1003.5,-78.6497 1003.5,-78.6497 1008.48,-79.1018 1003.91,-74.1681 1013.46,-79.554 1013.46,-79.554"/>
</g>
<!-- 27 -->
<g id="node28" class="node"><title>27</title>
<polygon fill="none" stroke="black" points="254,-108 89,-108 89,-72 254,-72 254,-108"/>
<text text-anchor="middle" x="171.5" y="-86.3" font-family="Times,serif" font-size="14.00">MyCapytain.retrievers.cts5</text>
</g>
<!-- 9&#45;&gt;27 -->
<g id="edge8" class="edge"><title>9&#45;&gt;27</title>
<path fill="none" stroke="black" d="M303.69,-36.1239C279.554,-45.7784 249.216,-57.9135 223.694,-68.1225"/>
<polygon fill="black" stroke="black" points="214.171,-71.9317 221.784,-64.0396 218.813,-70.0747 223.456,-68.2177 223.456,-68.2177 223.456,-68.2177 218.813,-70.0747 225.127,-72.3959 214.171,-71.9317 214.171,-71.9317"/>
</g>
<!-- 10 -->
<g id="node11" class="node"><title>10</title>
<polygon fill="none" stroke="black" points="1193.5,-36 1007.5,-36 1007.5,-0 1193.5,-0 1193.5,-36"/>
<text text-anchor="middle" x="1100.5" y="-14.3" font-family="Times,serif" font-size="14.00">MyCapytain.resolvers.cts.local</text>
</g>
<!-- 10&#45;&gt;4 -->
<g id="edge9" class="edge"><title>10&#45;&gt;4</title>
<path fill="none" stroke="black" d="M1007.22,-29.4665C855.782,-47.8081 564.569,-89.0895 477.5,-144 432.107,-172.627 392.333,-208.312 423.5,-252 435.495,-268.814 453.183,-280.348 472.339,-288.246"/>
<polygon fill="black" stroke="black" points="481.842,-291.838 470.897,-292.511 477.165,-290.07 472.488,-288.302 472.488,-288.302 472.488,-288.302 477.165,-290.07 474.08,-284.093 481.842,-291.838 481.842,-291.838"/>
</g>
<!-- 10&#45;&gt;5 -->
<g id="edge10" class="edge"><title>10&#45;&gt;5</title>
<path fill="none" stroke="black" d="M1171.21,-36.0052C1192.47,-44.0015 1214.4,-55.5332 1230.5,-72 1305.28,-148.464 1295.19,-290.485 1287.02,-349.834"/>
<polygon fill="black" stroke="black" points="1285.53,-359.919 1282.54,-349.37 1286.26,-354.972 1286.99,-350.025 1286.99,-350.025 1286.99,-350.025 1286.26,-354.972 1291.44,-350.68 1285.53,-359.919 1285.53,-359.919"/>
</g>
<!-- 10&#45;&gt;6 -->
<g id="edge11" class="edge"><title>10&#45;&gt;6</title>
<path fill="none" stroke="black" d="M1193.65,-34.7414C1196.97,-35.1858 1200.26,-35.6073 1203.5,-36 1370.44,-56.2433 1849.06,-11.4084 1952.5,-144 1982.02,-181.846 1969.77,-207.213 1952.5,-252 1948.4,-262.642 1941.06,-272.472 1933.33,-280.702"/>
<polygon fill="black" stroke="black" points="1926.21,-287.787 1930.12,-277.544 1929.75,-284.261 1933.3,-280.734 1933.3,-280.734 1933.3,-280.734 1929.75,-284.261 1936.47,-283.924 1926.21,-287.787 1926.21,-287.787"/>
</g>
<!-- 10&#45;&gt;11 -->
<g id="edge12" class="edge"><title>10&#45;&gt;11</title>
<path fill="none" stroke="black" d="M1007.48,-25.8629C893.113,-34.684 693.191,-51.3521 522.5,-72 521.226,-72.1541 519.944,-72.3113 518.656,-72.4713"/>
<polygon fill="black" stroke="black" points="508.67,-73.7488 518.018,-68.0161 513.63,-73.1143 518.589,-72.4797 518.589,-72.4797 518.589,-72.4797 513.63,-73.1143 519.16,-76.9433 508.67,-73.7488 508.67,-73.7488"/>
</g>
<!-- 10&#45;&gt;14 -->
<g id="edge13" class="edge"><title>10&#45;&gt;14</title>
<path fill="none" stroke="black" d="M1054.66,-36.1285C984.669,-62.2841 851.354,-112.102 775.993,-140.263"/>
<polygon fill="black" stroke="black" points="766.203,-143.921 773.995,-136.206 770.887,-142.171 775.571,-140.421 775.571,-140.421 775.571,-140.421 770.887,-142.171 777.146,-144.636 766.203,-143.921 766.203,-143.921"/>
</g>
<!-- 25 -->
<g id="node26" class="node"><title>25</title>
<polygon fill="none" stroke="black" points="1656,-108 1435,-108 1435,-72 1656,-72 1656,-108"/>
<text text-anchor="middle" x="1545.5" y="-86.3" font-family="Times,serif" font-size="14.00">MyCapytain.resources.texts.locals.tei</text>
</g>
<!-- 10&#45;&gt;25 -->
<g id="edge14" class="edge"><title>10&#45;&gt;25</title>
<path fill="none" stroke="black" d="M1193.69,-34.4232C1197,-34.9576 1200.28,-35.4846 1203.5,-36 1277,-47.7609 1359.46,-60.5513 1424.99,-70.6203"/>
<polygon fill="black" stroke="black" points="1434.95,-72.149 1424.38,-75.0789 1430,-71.39 1425.06,-70.6311 1425.06,-70.6311 1425.06,-70.6311 1430,-71.39 1425.74,-66.1832 1434.95,-72.149 1434.95,-72.149"/>
</g>
<!-- 12 -->
<g id="node13" class="node"><title>12</title>
<polygon fill="none" stroke="black" points="1681.5,-36 1541.5,-36 1541.5,-0 1681.5,-0 1681.5,-36"/>
<text text-anchor="middle" x="1611.5" y="-14.3" font-family="Times,serif" font-size="14.00">MyCapytain.resources</text>
</g>
<!-- 13 -->
<g id="node14" class="node"><title>13</title>
<polygon fill="none" stroke="black" points="1089.5,-180 887.5,-180 887.5,-144 1089.5,-144 1089.5,-180"/>
<text text-anchor="middle" x="988.5" y="-158.3" font-family="Times,serif" font-size="14.00">MyCapytain.resources.collections</text>
</g>
<!-- 14&#45;&gt;2 -->
<g id="edge15" class="edge"><title>14&#45;&gt;2</title>
<path fill="none" stroke="black" d="M609.951,-169.096C539,-175.586 456.067,-188.884 433.5,-216 404.947,-250.308 467.176,-320.149 472.5,-324 596.088,-413.399 1049.68,-439.145 1257.83,-446.328"/>
<polygon fill="black" stroke="black" points="1267.85,-446.666 1257.71,-450.827 1262.86,-446.498 1257.86,-446.329 1257.86,-446.329 1257.86,-446.329 1262.86,-446.498 1258.01,-441.832 1267.85,-446.666 1267.85,-446.666"/>
</g>
<!-- 14&#45;&gt;4 -->
<g id="edge16" class="edge"><title>14&#45;&gt;4</title>
<path fill="none" stroke="black" d="M609.721,-170.121C542.489,-177.014 465.672,-190.375 444.5,-216 434.309,-228.334 435.521,-238.757 444.5,-252 453.856,-265.8 467.441,-276.007 482.395,-283.557"/>
<polygon fill="black" stroke="black" points="491.858,-287.922 480.893,-287.819 487.318,-285.828 482.778,-283.733 482.778,-283.733 482.778,-283.733 487.318,-285.828 484.663,-279.647 491.858,-287.922 491.858,-287.922"/>
</g>
<!-- 14&#45;&gt;5 -->
<g id="edge17" class="edge"><title>14&#45;&gt;5</title>
<path fill="none" stroke="black" d="M714.743,-180.141C709.334,-199.749 704.259,-231.75 720.5,-252 778.365,-324.149 1046.25,-357.307 1190.28,-370.144"/>
<polygon fill="black" stroke="black" points="1200.43,-371.034 1190.07,-374.644 1195.45,-370.597 1190.47,-370.161 1190.47,-370.161 1190.47,-370.161 1195.45,-370.597 1190.86,-365.678 1200.43,-371.034 1200.43,-371.034"/>
</g>
<!-- 15 -->
<g id="node16" class="node"><title>15</title>
<polygon fill="none" stroke="black" points="929.5,-252 729.5,-252 729.5,-216 929.5,-216 929.5,-252"/>
<text text-anchor="middle" x="829.5" y="-230.3" font-family="Times,serif" font-size="14.00">MyCapytain.resources.prototypes</text>
</g>
<!-- 14&#45;&gt;15 -->
<g id="edge18" class="edge"><title>14&#45;&gt;15</title>
<path fill="none" stroke="black" d="M747.164,-180.124C761.284,-189.192 778.811,-200.448 794.061,-210.241"/>
<polygon fill="black" stroke="black" points="802.733,-215.81 791.887,-214.193 798.526,-213.108 794.319,-210.407 794.319,-210.407 794.319,-210.407 798.526,-213.108 796.75,-206.62 802.733,-215.81 802.733,-215.81"/>
</g>
<!-- 16 -->
<g id="node17" class="node"><title>16</title>
<polygon fill="none" stroke="black" points="673,-252 454,-252 454,-216 673,-216 673,-252"/>
<text text-anchor="middle" x="563.5" y="-230.3" font-family="Times,serif" font-size="14.00">MyCapytain.resources.prototypes.cts</text>
</g>
<!-- 14&#45;&gt;16 -->
<g id="edge19" class="edge"><title>14&#45;&gt;16</title>
<path fill="none" stroke="black" d="M682.093,-180.124C660.631,-189.693 633.702,-201.7 610.932,-211.852"/>
<polygon fill="black" stroke="black" points="601.782,-215.932 609.083,-207.749 606.348,-213.896 610.915,-211.859 610.915,-211.859 610.915,-211.859 606.348,-213.896 612.748,-215.969 601.782,-215.932 601.782,-215.932"/>
</g>
<!-- 17 -->
<g id="node18" class="node"><title>17</title>
<polygon fill="none" stroke="black" points="1261,-252 986,-252 986,-216 1261,-216 1261,-252"/>
<text text-anchor="middle" x="1123.5" y="-230.3" font-family="Times,serif" font-size="14.00">MyCapytain.resources.prototypes.cts.inventory</text>
</g>
<!-- 14&#45;&gt;17 -->
<g id="edge20" class="edge"><title>14&#45;&gt;17</title>
<path fill="none" stroke="black" d="M818.57,-180.034C878.048,-190.366 954.023,-203.562 1015.26,-214.198"/>
<polygon fill="black" stroke="black" points="1025.34,-215.95 1014.72,-218.672 1020.41,-215.094 1015.49,-214.239 1015.49,-214.239 1015.49,-214.239 1020.41,-215.094 1016.26,-209.805 1025.34,-215.95 1025.34,-215.95"/>
</g>
<!-- 19 -->
<g id="node20" class="node"><title>19</title>
<polygon fill="none" stroke="black" points="1693.5,-252 1469.5,-252 1469.5,-216 1693.5,-216 1693.5,-252"/>
<text text-anchor="middle" x="1581.5" y="-230.3" font-family="Times,serif" font-size="14.00">MyCapytain.resources.prototypes.text</text>
</g>
<!-- 14&#45;&gt;19 -->
<g id="edge21" class="edge"><title>14&#45;&gt;19</title>
<path fill="none" stroke="black" d="M831.381,-175.383C847.189,-177.016 863.252,-178.605 878.5,-180 1081.84,-198.599 1318.7,-215.465 1459.04,-224.958"/>
<polygon fill="black" stroke="black" points="1469.39,-225.656 1459.11,-229.473 1464.4,-225.32 1459.42,-224.983 1459.42,-224.983 1459.42,-224.983 1464.4,-225.32 1459.72,-220.493 1469.39,-225.656 1469.39,-225.656"/>
</g>
<!-- 17&#45;&gt;2 -->
<g id="edge22" class="edge"><title>17&#45;&gt;2</title>
<path fill="none" stroke="black" d="M1125.89,-252.063C1131.38,-284.792 1147.95,-356.627 1191.5,-396 1210.22,-412.926 1234.26,-424.448 1258.38,-432.29"/>
<polygon fill="black" stroke="black" points="1267.98,-435.223 1257.11,-436.605 1263.2,-433.762 1258.42,-432.301 1258.42,-432.301 1258.42,-432.301 1263.2,-433.762 1259.73,-427.998 1267.98,-435.223 1267.98,-435.223"/>
</g>
<!-- 17&#45;&gt;4 -->
<g id="edge23" class="edge"><title>17&#45;&gt;4</title>
<path fill="none" stroke="black" d="M990.632,-252.034C896.105,-264.153 770.825,-280.215 683.103,-291.461"/>
<polygon fill="black" stroke="black" points="673.132,-292.74 682.478,-287.004 678.091,-292.104 683.051,-291.468 683.051,-291.468 683.051,-291.468 678.091,-292.104 683.623,-295.931 673.132,-292.74 673.132,-292.74"/>
</g>
<!-- 17&#45;&gt;5 -->
<g id="edge24" class="edge"><title>17&#45;&gt;5</title>
<path fill="none" stroke="black" d="M1142.68,-252.129C1170.85,-277.289 1223.54,-324.346 1255.58,-352.958"/>
<polygon fill="black" stroke="black" points="1263.25,-359.811 1252.8,-356.506 1259.52,-356.48 1255.79,-353.15 1255.79,-353.15 1255.79,-353.15 1259.52,-356.48 1258.79,-349.793 1263.25,-359.811 1263.25,-359.811"/>
</g>
<!-- 17&#45;&gt;6 -->
<g id="edge25" class="edge"><title>17&#45;&gt;6</title>
<path fill="none" stroke="black" d="M1261.33,-247.353C1428.89,-262.372 1705.22,-287.139 1834.16,-298.696"/>
<polygon fill="black" stroke="black" points="1844.31,-299.605 1833.95,-303.194 1839.33,-299.159 1834.35,-298.712 1834.35,-298.712 1834.35,-298.712 1839.33,-299.159 1834.75,-294.23 1844.31,-299.605 1844.31,-299.605"/>
</g>
<!-- 18 -->
<g id="node19" class="node"><title>18</title>
<polygon fill="none" stroke="black" points="1640.5,-324 1386.5,-324 1386.5,-288 1640.5,-288 1640.5,-324"/>
<text text-anchor="middle" x="1513.5" y="-302.3" font-family="Times,serif" font-size="14.00">MyCapytain.resources.prototypes.metadata</text>
</g>
<!-- 17&#45;&gt;18 -->
<g id="edge26" class="edge"><title>17&#45;&gt;18</title>
<path fill="none" stroke="black" d="M1218.41,-252.034C1275.85,-262.344 1349.19,-275.508 1408.38,-286.133"/>
<polygon fill="black" stroke="black" points="1418.51,-287.95 1407.87,-290.612 1413.59,-287.067 1408.66,-286.183 1408.66,-286.183 1408.66,-286.183 1413.59,-287.067 1409.46,-281.754 1418.51,-287.95 1418.51,-287.95"/>
</g>
<!-- 18&#45;&gt;2 -->
<g id="edge27" class="edge"><title>18&#45;&gt;2</title>
<path fill="none" stroke="black" d="M1495.41,-324.129C1468.94,-349.183 1419.54,-395.948 1389.28,-424.594"/>
<polygon fill="black" stroke="black" points="1381.66,-431.811 1385.83,-421.668 1385.29,-428.373 1388.92,-424.936 1388.92,-424.936 1388.92,-424.936 1385.29,-428.373 1392.01,-428.204 1381.66,-431.811 1381.66,-431.811"/>
</g>
<!-- 18&#45;&gt;3 -->
<g id="edge28" class="edge"><title>18&#45;&gt;3</title>
<path fill="none" stroke="black" d="M1533.52,-324.303C1543.63,-333.035 1556.04,-343.76 1567.02,-353.25"/>
<polygon fill="black" stroke="black" points="1574.71,-359.896 1564.2,-356.762 1570.92,-356.626 1567.14,-353.357 1567.14,-353.357 1567.14,-353.357 1570.92,-356.626 1570.08,-349.952 1574.71,-359.896 1574.71,-359.896"/>
</g>
<!-- 18&#45;&gt;5 -->
<g id="edge29" class="edge"><title>18&#45;&gt;5</title>
<path fill="none" stroke="black" d="M1457.29,-324.034C1424.59,-333.943 1383.2,-346.486 1348.9,-356.879"/>
<polygon fill="black" stroke="black" points="1338.97,-359.889 1347.23,-352.682 1343.75,-358.439 1348.54,-356.989 1348.54,-356.989 1348.54,-356.989 1343.75,-358.439 1349.84,-361.296 1338.97,-359.889 1338.97,-359.889"/>
</g>
<!-- 19&#45;&gt;2 -->
<g id="edge30" class="edge"><title>19&#45;&gt;2</title>
<path fill="none" stroke="black" d="M1653.38,-252.081C1671.47,-259.96 1688.76,-271.408 1699.5,-288 1725.58,-328.299 1730.69,-359.51 1699.5,-396 1670.25,-430.223 1556.67,-442.481 1469.57,-446.798"/>
<polygon fill="black" stroke="black" points="1459.36,-447.275 1469.14,-442.314 1464.35,-447.042 1469.35,-446.809 1469.35,-446.809 1469.35,-446.809 1464.35,-447.042 1469.56,-451.304 1459.36,-447.275 1459.36,-447.275"/>
</g>
<!-- 19&#45;&gt;3 -->
<g id="edge31" class="edge"><title>19&#45;&gt;3</title>
<path fill="none" stroke="black" d="M1638.75,-252.041C1655.83,-260.092 1672.61,-271.647 1682.5,-288 1690.78,-301.692 1690.37,-310.07 1682.5,-324 1675.16,-336.994 1663.21,-347.157 1650.46,-354.95"/>
<polygon fill="black" stroke="black" points="1641.54,-359.973 1648.05,-351.143 1645.9,-357.518 1650.25,-355.063 1650.25,-355.063 1650.25,-355.063 1645.9,-357.518 1652.46,-358.984 1641.54,-359.973 1641.54,-359.973"/>
</g>
<!-- 19&#45;&gt;4 -->
<g id="edge32" class="edge"><title>19&#45;&gt;4</title>
<path fill="none" stroke="black" d="M1469.25,-242.826C1273.82,-256.451 873.766,-284.344 683.095,-297.638"/>
<polygon fill="black" stroke="black" points="673.064,-298.337 682.727,-293.152 678.052,-297.989 683.04,-297.642 683.04,-297.642 683.04,-297.642 678.052,-297.989 683.353,-302.131 673.064,-298.337 673.064,-298.337"/>
</g>
<!-- 19&#45;&gt;18 -->
<g id="edge33" class="edge"><title>19&#45;&gt;18</title>
<path fill="none" stroke="black" d="M1564.69,-252.303C1556.37,-260.865 1546.19,-271.344 1537.11,-280.696"/>
<polygon fill="black" stroke="black" points="1530.12,-287.896 1533.86,-277.587 1533.6,-284.309 1537.08,-280.723 1537.08,-280.723 1537.08,-280.723 1533.6,-284.309 1540.31,-283.858 1530.12,-287.896 1530.12,-287.896"/>
</g>
<!-- 20 -->
<g id="node21" class="node"><title>20</title>
<polygon fill="none" stroke="black" points="1922,-180 1753,-180 1753,-144 1922,-144 1922,-180"/>
<text text-anchor="middle" x="1837.5" y="-158.3" font-family="Times,serif" font-size="14.00">MyCapytain.resources.texts</text>
</g>
<!-- 21 -->
<g id="node22" class="node"><title>21</title>
<polygon fill="none" stroke="black" points="1889,-36 1700,-36 1700,-0 1889,-0 1889,-36"/>
<text text-anchor="middle" x="1794.5" y="-14.3" font-family="Times,serif" font-size="14.00">MyCapytain.resources.texts.api</text>
</g>
<!-- 22&#45;&gt;2 -->
<g id="edge34" class="edge"><title>22&#45;&gt;2</title>
<path fill="none" stroke="black" d="M1013.28,-95.4769C858.626,-102.826 576.013,-119.16 477.5,-144 381.583,-168.186 273.5,-134.08 273.5,-233 273.5,-233 273.5,-233 273.5,-307 273.5,-405.563 983.372,-437.523 1257.37,-446.188"/>
<polygon fill="black" stroke="black" points="1267.73,-446.511 1257.59,-450.697 1262.73,-446.355 1257.73,-446.199 1257.73,-446.199 1257.73,-446.199 1262.73,-446.355 1257.87,-441.701 1267.73,-446.511 1267.73,-446.511"/>
</g>
<!-- 22&#45;&gt;3 -->
<g id="edge35" class="edge"><title>22&#45;&gt;3</title>
<path fill="none" stroke="black" d="M1152.51,-108.114C1173.24,-118.347 1199.98,-131.708 1223.5,-144 1253.11,-159.474 1259.4,-165.498 1289.5,-180 1363.79,-215.789 1381.56,-228.153 1460.5,-252 1542.36,-276.728 1594.98,-222.121 1649.5,-288 1666.34,-308.35 1646.3,-334.299 1625.85,-352.92"/>
<polygon fill="black" stroke="black" points="1618.06,-359.67 1622.67,-349.719 1621.84,-356.394 1625.62,-353.118 1625.62,-353.118 1625.62,-353.118 1621.84,-356.394 1628.57,-356.518 1618.06,-359.67 1618.06,-359.67"/>
</g>
<!-- 22&#45;&gt;4 -->
<g id="edge36" class="edge"><title>22&#45;&gt;4</title>
<path fill="none" stroke="black" d="M1013.31,-92.6526C837.778,-98.0722 496.071,-120.885 433.5,-216 424.707,-229.367 424.346,-238.877 433.5,-252 443.31,-266.064 457.29,-276.406 472.724,-284.009"/>
<polygon fill="black" stroke="black" points="481.958,-288.176 470.992,-288.164 477.401,-286.12 472.843,-284.063 472.843,-284.063 472.843,-284.063 477.401,-286.12 474.694,-279.961 481.958,-288.176 481.958,-288.176"/>
</g>
<!-- 22&#45;&gt;5 -->
<g id="edge37" class="edge"><title>22&#45;&gt;5</title>
<path fill="none" stroke="black" d="M1140.72,-108.221C1181.77,-138.903 1263.48,-201.202 1270.5,-216 1277.36,-230.456 1270.94,-236.006 1270.5,-252 1269.61,-284 1264.38,-292.254 1268.5,-324 1269.6,-332.494 1271.66,-341.566 1273.87,-349.76"/>
<polygon fill="black" stroke="black" points="1276.68,-359.56 1269.59,-351.189 1275.3,-354.754 1273.92,-349.948 1273.92,-349.948 1273.92,-349.948 1275.3,-354.754 1278.24,-348.707 1276.68,-359.56 1276.68,-359.56"/>
</g>
<!-- 22&#45;&gt;6 -->
<g id="edge38" class="edge"><title>22&#45;&gt;6</title>
<path fill="none" stroke="black" d="M1221.75,-98.2149C1369.81,-108.89 1627.67,-129.22 1668.5,-144 1753.98,-174.939 1838.03,-244.101 1878.88,-280.897"/>
<polygon fill="black" stroke="black" points="1886.46,-287.804 1876.04,-284.396 1882.77,-284.437 1879.07,-281.07 1879.07,-281.07 1879.07,-281.07 1882.77,-284.437 1882.1,-277.743 1886.46,-287.804 1886.46,-287.804"/>
</g>
<!-- 22&#45;&gt;13 -->
<g id="edge39" class="edge"><title>22&#45;&gt;13</title>
<path fill="none" stroke="black" d="M1085.94,-108.124C1068.84,-117.404 1047.52,-128.975 1029.18,-138.925"/>
<polygon fill="black" stroke="black" points="1020.18,-143.81 1026.82,-135.086 1024.57,-141.426 1028.97,-139.041 1028.97,-139.041 1028.97,-139.041 1024.57,-141.426 1031.11,-142.996 1020.18,-143.81 1020.18,-143.81"/>
</g>
<!-- 22&#45;&gt;14 -->
<g id="edge40" class="edge"><title>22&#45;&gt;14</title>
<path fill="none" stroke="black" d="M1020.89,-108.034C962.297,-118.366 887.454,-131.562 827.132,-142.198"/>
<polygon fill="black" stroke="black" points="817.198,-143.95 826.265,-137.782 822.122,-143.082 827.046,-142.213 827.046,-142.213 827.046,-142.213 822.122,-143.082 827.828,-146.645 817.198,-143.95 817.198,-143.95"/>
</g>
<!-- 22&#45;&gt;15 -->
<g id="edge41" class="edge"><title>22&#45;&gt;15</title>
<path fill="none" stroke="black" d="M1118.99,-108.005C1119.74,-128.094 1117.64,-161.158 1098.5,-180 1092.51,-185.9 1011.12,-201.443 939.426,-214.181"/>
<polygon fill="black" stroke="black" points="929.382,-215.959 938.445,-209.785 934.306,-215.087 939.229,-214.216 939.229,-214.216 939.229,-214.216 934.306,-215.087 940.014,-218.647 929.382,-215.959 929.382,-215.959"/>
</g>
<!-- 22&#45;&gt;19 -->
<g id="edge42" class="edge"><title>22&#45;&gt;19</title>
<path fill="none" stroke="black" d="M1173.47,-108.129C1259.63,-134.498 1424.38,-184.917 1515.98,-212.949"/>
<polygon fill="black" stroke="black" points="1525.69,-215.921 1514.81,-217.298 1520.91,-214.458 1516.13,-212.995 1516.13,-212.995 1516.13,-212.995 1520.91,-214.458 1517.45,-208.692 1525.69,-215.921 1525.69,-215.921"/>
</g>
<!-- 23 -->
<g id="node24" class="node"><title>23</title>
<polygon fill="none" stroke="black" points="1659,-180 1432,-180 1432,-144 1659,-144 1659,-180"/>
<text text-anchor="middle" x="1545.5" y="-158.3" font-family="Times,serif" font-size="14.00">MyCapytain.resources.texts.encodings</text>
</g>
<!-- 22&#45;&gt;23 -->
<g id="edge43" class="edge"><title>22&#45;&gt;23</title>
<path fill="none" stroke="black" d="M1221.65,-108.034C1285.08,-118.408 1366.18,-131.671 1431.35,-142.33"/>
<polygon fill="black" stroke="black" points="1441.25,-143.95 1430.66,-146.777 1436.32,-143.143 1431.38,-142.336 1431.38,-142.336 1431.38,-142.336 1436.32,-143.143 1432.11,-137.895 1441.25,-143.95 1441.25,-143.95"/>
</g>
<!-- 23&#45;&gt;2 -->
<g id="edge44" class="edge"><title>23&#45;&gt;2</title>
<path fill="none" stroke="black" d="M1644.21,-180.013C1665.83,-187.849 1686.88,-199.291 1702.5,-216 1757.46,-274.806 1775.1,-335.069 1722.5,-396 1690.28,-433.33 1563.22,-444.823 1469.36,-448.12"/>
<polygon fill="black" stroke="black" points="1459.24,-448.448 1469.09,-443.626 1464.23,-448.286 1469.23,-448.124 1469.23,-448.124 1469.23,-448.124 1464.23,-448.286 1469.38,-452.622 1459.24,-448.448 1459.24,-448.448"/>
</g>
<!-- 23&#45;&gt;5 -->
<g id="edge45" class="edge"><title>23&#45;&gt;5</title>
<path fill="none" stroke="black" d="M1515.64,-180.051C1498.99,-189.941 1478.13,-202.984 1460.5,-216 1440.86,-230.504 1395.64,-271.65 1377.5,-288 1353.6,-309.547 1326.9,-334.657 1307.9,-352.701"/>
<polygon fill="black" stroke="black" points="1300.52,-359.73 1304.66,-349.576 1304.14,-356.282 1307.76,-352.835 1307.76,-352.835 1307.76,-352.835 1304.14,-356.282 1310.87,-356.095 1300.52,-359.73 1300.52,-359.73"/>
</g>
<!-- 23&#45;&gt;19 -->
<g id="edge46" class="edge"><title>23&#45;&gt;19</title>
<path fill="none" stroke="black" d="M1554.4,-180.303C1558.5,-188.272 1563.45,-197.9 1567.99,-206.736"/>
<polygon fill="black" stroke="black" points="1572.7,-215.896 1564.13,-209.061 1570.42,-211.449 1568.13,-207.003 1568.13,-207.003 1568.13,-207.003 1570.42,-211.449 1572.13,-204.945 1572.7,-215.896 1572.7,-215.896"/>
</g>
<!-- 24 -->
<g id="node25" class="node"><title>24</title>
<polygon fill="none" stroke="black" points="2111.5,-36 1907.5,-36 1907.5,-0 2111.5,-0 2111.5,-36"/>
<text text-anchor="middle" x="2009.5" y="-14.3" font-family="Times,serif" font-size="14.00">MyCapytain.resources.texts.locals</text>
</g>
<!-- 25&#45;&gt;2 -->
<g id="edge47" class="edge"><title>25&#45;&gt;2</title>
<path fill="none" stroke="black" d="M1656.15,-96.2827C1758.87,-102.81 1903.12,-116.597 1952.5,-144 1997.23,-168.826 2025.5,-181.841 2025.5,-233 2025.5,-233 2025.5,-233 2025.5,-307 2025.5,-419.391 1656.1,-443.107 1469.18,-447.914"/>
<polygon fill="black" stroke="black" points="1459.05,-448.16 1468.94,-443.418 1464.05,-448.038 1469.05,-447.917 1469.05,-447.917 1469.05,-447.917 1464.05,-448.038 1469.16,-452.415 1459.05,-448.16 1459.05,-448.16"/>
</g>
<!-- 25&#45;&gt;4 -->
<g id="edge48" class="edge"><title>25&#45;&gt;4</title>
<path fill="none" stroke="black" d="M1491.25,-108.082C1427.29,-127.71 1317.55,-159.801 1221.5,-180 1114.23,-202.56 1076.4,-168.72 977.5,-216 956.218,-226.174 959.786,-241.833 938.5,-252 894.562,-272.986 773.205,-287.881 683.26,-296.431"/>
<polygon fill="black" stroke="black" points="673.283,-297.366 682.82,-291.953 678.261,-296.9 683.24,-296.433 683.24,-296.433 683.24,-296.433 678.261,-296.9 683.659,-300.914 673.283,-297.366 673.283,-297.366"/>
</g>
<!-- 25&#45;&gt;5 -->
<g id="edge49" class="edge"><title>25&#45;&gt;5</title>
<path fill="none" stroke="black" d="M1481.84,-108.026C1461.12,-116.137 1439.4,-127.732 1423.5,-144 1387.27,-181.068 1410.29,-210.302 1379.5,-252 1364.49,-272.327 1351.99,-268.856 1335.5,-288 1319.01,-307.145 1304.65,-332.085 1295.06,-350.691"/>
<polygon fill="black" stroke="black" points="1290.49,-359.78 1290.96,-348.824 1292.73,-355.313 1294.98,-350.846 1294.98,-350.846 1294.98,-350.846 1292.73,-355.313 1299,-352.867 1290.49,-359.78 1290.49,-359.78"/>
</g>
<!-- 25&#45;&gt;6 -->
<g id="edge50" class="edge"><title>25&#45;&gt;6</title>
<path fill="none" stroke="black" d="M1656.45,-90.6482C1757.57,-92.9762 1896.38,-103.726 1931.5,-144 1964.19,-181.487 1939.37,-243.242 1920.53,-278.373"/>
<polygon fill="black" stroke="black" points="1915.42,-287.533 1916.36,-276.608 1917.86,-283.166 1920.29,-278.798 1920.29,-278.798 1920.29,-278.798 1917.86,-283.166 1924.22,-280.988 1915.42,-287.533 1915.42,-287.533"/>
</g>
<!-- 25&#45;&gt;15 -->
<g id="edge51" class="edge"><title>25&#45;&gt;15</title>
<path fill="none" stroke="black" d="M1467.29,-108.02C1382.13,-126.405 1241.83,-156.251 1120.5,-180 1059.77,-191.886 991.741,-204.326 936.735,-214.164"/>
<polygon fill="black" stroke="black" points="926.62,-215.97 935.674,-209.782 931.542,-215.091 936.465,-214.212 936.465,-214.212 936.465,-214.212 931.542,-215.091 937.256,-218.642 926.62,-215.97 926.62,-215.97"/>
</g>
<!-- 25&#45;&gt;19 -->
<g id="edge52" class="edge"><title>25&#45;&gt;19</title>
<path fill="none" stroke="black" d="M1621.96,-108.113C1640.22,-115.966 1657.57,-127.392 1668.5,-144 1677.29,-157.366 1676.34,-166.05 1668.5,-180 1661.25,-192.904 1649.44,-203.036 1636.83,-210.828"/>
<polygon fill="black" stroke="black" points="1628.02,-215.854 1634.48,-206.991 1632.36,-213.377 1636.71,-210.9 1636.71,-210.9 1636.71,-210.9 1632.36,-213.377 1638.94,-214.809 1628.02,-215.854 1628.02,-215.854"/>
</g>
<!-- 25&#45;&gt;20 -->
<g id="edge53" class="edge"><title>25&#45;&gt;20</title>
<path fill="none" stroke="black" d="M1616.56,-108.034C1658.85,-118.174 1712.66,-131.073 1756.59,-141.604"/>
<polygon fill="black" stroke="black" points="1766.38,-143.95 1755.6,-145.995 1761.51,-142.784 1756.65,-141.619 1756.65,-141.619 1756.65,-141.619 1761.51,-142.784 1757.7,-137.243 1766.38,-143.95 1766.38,-143.95"/>
</g>
<!-- 25&#45;&gt;23 -->
<g id="edge54" class="edge"><title>25&#45;&gt;23</title>
<path fill="none" stroke="black" d="M1545.5,-108.303C1545.5,-116.017 1545.5,-125.288 1545.5,-133.888"/>
<polygon fill="black" stroke="black" points="1545.5,-143.896 1541,-133.896 1545.5,-138.896 1545.5,-133.896 1545.5,-133.896 1545.5,-133.896 1545.5,-138.896 1550,-133.896 1545.5,-143.896 1545.5,-143.896"/>
</g>
<!-- 26 -->
<g id="node27" class="node"><title>26</title>
<polygon fill="none" stroke="black" points="2269.5,-36 2129.5,-36 2129.5,-0 2269.5,-0 2269.5,-36"/>
<text text-anchor="middle" x="2199.5" y="-14.3" font-family="Times,serif" font-size="14.00">MyCapytain.retrievers</text>
</g>
<!-- 27&#45;&gt;4 -->
<g id="edge55" class="edge"><title>27&#45;&gt;4</title>
<path fill="none" stroke="black" d="M186.77,-108.444C195.61,-118.675 206.86,-131.925 216.5,-144 253.934,-190.89 246.575,-220.272 297.5,-252 326.357,-269.979 404.939,-283.93 471.533,-292.995"/>
<polygon fill="black" stroke="black" points="481.686,-294.353 471.178,-297.488 476.73,-293.69 471.774,-293.028 471.774,-293.028 471.774,-293.028 476.73,-293.69 472.371,-288.567 481.686,-294.353 481.686,-294.353"/>
</g>
<!-- 28 -->
<g id="node29" class="node"><title>28</title>
<polygon fill="none" stroke="black" points="207.5,-180 7.5,-180 7.5,-144 207.5,-144 207.5,-180"/>
<text text-anchor="middle" x="107.5" y="-158.3" font-family="Times,serif" font-size="14.00">MyCapytain.retrievers.prototypes</text>
</g>
<!-- 27&#45;&gt;28 -->
<g id="edge56" class="edge"><title>27&#45;&gt;28</title>
<path fill="none" stroke="black" d="M155.68,-108.303C147.93,-116.78 138.461,-127.136 129.976,-136.417"/>
<polygon fill="black" stroke="black" points="123.138,-143.896 126.565,-133.479 126.512,-140.206 129.886,-136.515 129.886,-136.515 129.886,-136.515 126.512,-140.206 133.207,-139.552 123.138,-143.896 123.138,-143.896"/>
</g>
</g>
</svg>
